<?xml version="1.0" encoding="utf-8" ?><svg xmlns="http://www.w3.org/2000/svg" xmlns:xlink="http://www.w3.org/1999/xlink" width="975" height="975" viewBox="0 0 975 975"><path fill="#FEFEFD" transform="scale(0.952378 0.952378)" d="M0 0L1024 0L1024 1024L0 1024L0 0Z"/><path fill="#0B0D0C" transform="scale(0.952378 0.952378)" d="M748.047 89.6975C758.379 89.2178 768.662 91.3767 777.929 95.9709C805.58 109.506 808.69 131.71 815.524 157.363C819.13 171.269 823.177 185.056 827.659 198.705C837.557 204.9 847.686 213.396 857.345 220.208C868.829 228.457 880.619 236.409 891.684 245.219C899.85 251.72 896.09 258.006 887.057 259.986C890.487 261.942 893.517 263.221 893.631 267.459C893.881 276.814 888.219 274.702 881.916 275.994C881.645 277.777 880.269 282.523 879.227 283.501C871.09 291.144 852.773 268.874 846.745 263.016C854.786 290.26 842.564 318.333 815.789 329.422C812.445 330.807 808.862 331.767 805.382 332.775C807.405 338.154 816.622 354.083 819.842 358.832C831.521 353.291 846.472 351.303 856.092 362.167C859.327 365.797 860.911 370.606 860.469 375.449C860.251 377.941 859.108 382.125 857.496 384.106C851.377 391.328 843.228 396.948 835.962 403.122C830.04 408.155 823.487 415.165 816.269 418.03C809.759 420.615 802.384 419.893 797.976 413.98C792.334 406.411 793.795 398.053 794.999 389.44C791.745 393.497 782.211 401.578 777.9 405.407C771.63 411.339 764.378 419.455 755.429 420.945C750.259 421.805 744.765 420.643 740.6 417.408C734.697 412.821 732.762 407.181 731.888 400.084C731.029 393.113 715.473 369.142 711.176 361.052C679.239 368.756 655.97 355.655 638.156 329.59C637.124 333.862 636.291 338.926 635.664 343.352C634.64 350.584 632.567 361.167 622.698 356.388C620.608 355.376 619.931 353.46 619.295 351.351C617.37 351.858 617.237 356.687 615.401 358.65C612.244 362.025 605.45 361.522 603.591 357.082C602.91 355.456 603.015 351.776 603.046 349.801C601.071 348.672 597.781 349.758 595.378 348.819C590.677 347.107 592.156 340.927 593.446 337.318C595.704 330.997 598.087 324.642 600.414 318.314C605.49 304.557 610.46 290.762 615.322 276.928L601.1 233.678C597.122 221.708 589.849 202.31 588.728 190.392C587.454 175.534 592.089 160.773 601.627 149.309C608.445 141.128 634.087 120.931 643.549 115.54C658.774 106.864 686.542 103.225 704.091 98.7133C715.658 95.7391 736.168 90.7991 748.047 89.6975Z"/><path fill="#6AB08B" transform="scale(0.952378 0.952378)" d="M747.805 91.1938C758.139 90.2196 769.967 93.0834 779.028 98.0305C789.343 103.555 797.775 112.032 803.247 122.376C808.146 131.54 809.757 140.44 812.35 150.406C814.73 159.633 817.21 168.834 819.79 178.006C827.115 203.724 835.482 229.466 843.02 255.328C848.958 272.908 850.653 288.412 841.269 305.114C830.29 324.654 817.414 327.596 797.751 333.437L766.352 342.803C749.054 347.843 731.836 353.375 714.576 358.559C695.481 364.295 680.864 362.859 663.428 353.242C651.321 346.115 646.27 338.811 638.368 327.827C641.117 315.574 650.967 265.397 647.696 255.456C646.616 252.173 644.431 249.244 641.26 247.743C637.971 246.186 633.965 246.35 630.652 247.762C621.998 251.451 619.197 266.191 616.07 274.417C609.169 255.564 603.743 235.884 597.069 216.9C594.214 208.779 591.039 199.434 590.232 190.914C588.753 176.101 593.326 161.32 602.912 149.931C609.555 142.065 640.119 117.974 649.688 114.028C662.148 108.89 686.766 103.955 701.071 100.761C713.343 98.0212 736.151 92.2142 747.805 91.1938Z"/><path fill="#0B0D0C" transform="scale(0.952378 0.952378)" d="M745.325 108.682C756.339 107.339 769.731 111.559 778.37 118.276C793.789 129.707 795.82 143.586 799.84 160.757C804.749 181.728 809.441 199.308 794.83 218.346C790.827 223.606 785.685 227.892 779.79 230.882C773.332 234.157 756.171 238.735 748.139 240.944C733.749 244.901 715.788 251.535 701.464 253.456C690.186 253.885 679.103 250.425 670.073 243.656C665.241 239.964 661.231 235.306 658.299 229.979C653.242 220.96 642.536 186.413 640.906 175.814C636.475 146.986 658.564 125.404 685.863 121.315C705.481 118.377 725.678 111.287 745.325 108.682Z"/><path fill="#F9F5DB" transform="scale(0.952378 0.952378)" d="M745.183 110.161C755.869 108.517 768.429 112.638 776.972 118.924C792.195 129.956 794.287 143.562 798.249 160.29C803.211 181.24 808.137 198.956 793.474 217.909C789.485 223.101 784.351 227.303 778.473 230.186C772.652 233.053 756.511 237.31 749.272 239.215C734.823 243.018 716.056 250.2 701.81 252.072C690.586 252.337 681.19 249.979 671.956 243.444C657.141 233.379 655.282 217.909 649.843 202.588C642.3 181.986 636.482 161.98 650.472 142.47C663.95 123.673 687.304 123.122 708.036 117.978C719.576 115.114 733.51 111.893 745.183 110.161Z"/><path fill="#040303" transform="scale(0.952378 0.952378)" d="M690.885 147.459C707.59 145.92 722.395 158.175 724.005 174.873C725.615 191.57 713.423 206.428 696.732 208.108C679.941 209.799 664.975 197.518 663.356 180.72C661.736 163.922 674.081 149.008 690.885 147.459Z"/><path fill="#FEFEFD" transform="scale(0.952378 0.952378)" d="M689.793 148.985C705.777 146.827 720.464 158.092 722.523 174.089C724.581 190.087 713.225 204.703 697.215 206.662C681.345 208.604 666.885 197.369 664.844 181.512C662.803 165.654 673.948 151.124 689.793 148.985Z"/><path fill="#0B0D0C" transform="scale(0.952378 0.952378)" d="M692.752 163.125C701.87 161.937 710.209 168.406 711.325 177.533C712.441 186.659 705.906 194.947 696.771 195.991C687.737 197.023 679.562 190.577 678.458 181.552C677.354 172.526 683.736 164.3 692.752 163.125Z"/><path fill="#040303" transform="scale(0.952378 0.952378)" d="M731.396 152.672L731.57 152.782C733.788 154.146 732.812 159.065 734.932 163.502C743.059 180.509 769.162 176.421 771.443 157.739C771.578 156.629 771.113 153.31 772.259 153.036C773.76 153.757 772.771 159.895 772.618 161.351C774.085 161.452 778.098 161.407 778.952 162.107C781.524 164.219 772.877 162.935 772.047 162.904C771.699 163.639 770.87 165.099 770.675 165.826C770.219 167.531 777.657 168.53 776.751 169.891C775.322 172.038 770.782 168.462 769.553 167.728C768.296 169.094 767.465 169.86 766.127 171.089C767.092 171.794 770.935 174.092 770.525 175.333C769.385 176.145 766.115 172.896 764.973 172.086C748.625 181.372 729.23 171.517 731.396 152.672Z"/><path fill="#040303" transform="scale(0.952378 0.952378)" d="M755.622 194.33C758.309 196.901 753.993 206.612 752.39 209.195C749.642 213.682 745.235 216.903 740.126 218.161C733.464 219.812 726.981 217.945 721.258 214.481C719.477 210.32 724.476 214.437 726 215.115C739.415 221.085 752.586 212.757 754.412 198.489C754.6 197.02 755.073 195.693 755.622 194.33Z"/><path fill="#0B0D0C" transform="scale(0.952378 0.952378)" d="M813.62 240.874C820.233 239.21 826.945 243.211 828.627 249.82C830.309 256.428 826.327 263.151 819.723 264.852C813.094 266.559 806.338 262.558 804.649 255.923C802.96 249.289 806.981 242.544 813.62 240.874Z"/><path fill="#F9F5DB" transform="scale(0.952378 0.952378)" d="M815.247 241.942C821.222 241.207 826.68 245.41 827.495 251.376C828.311 257.341 824.181 262.855 818.227 263.75C815.081 264.224 811.884 263.312 809.46 261.251C807.036 259.19 805.623 256.181 805.584 253C805.516 247.39 809.678 242.627 815.247 241.942Z"/><path fill="#6AB08B" transform="scale(0.952378 0.952378)" d="M633.714 248.074C649.344 248.026 647.76 262.015 646.11 273.475C642.457 298.849 637.698 324.155 632.999 349.352C631.942 355.022 628.751 358.151 623.056 355.13C619.564 353.065 621.785 343.485 622.282 339.549C619.651 340.86 617.212 356.871 613.158 358.745C609.53 360.423 607.26 360.045 604.888 356.445C602.585 346.816 611.315 340.979 612.87 332.086L612.424 331.69C607.681 334.61 607.379 351.858 596.766 347.829C592.407 346.174 593.364 341.799 594.607 338.34C600.3 322.491 606.154 306.691 611.851 290.838L620.274 267.412C623.405 258.726 624.211 251.107 633.714 248.074Z"/><path fill="#F9F5DB" transform="scale(0.952378 0.952378)" d="M767.632 359.163C782.391 358.136 798.066 365.526 796.601 381.74C795.893 389.574 767.955 413.343 761.258 417.753C754.653 420.605 747.587 420.949 741.675 416.408C728.426 406.231 732.228 385.543 741.194 373.871C747.917 365.119 756.904 360.521 767.632 359.163Z"/><path fill="#F9F5DB" transform="scale(0.952378 0.952378)" d="M835.107 355.691C852.863 355.417 866.192 371.073 856.171 383.605C851.38 389.598 824.976 411.464 818.283 415.768C807.407 420.806 796.948 416.862 795.608 404.234C793.189 381.441 812.395 358.103 835.107 355.691Z"/><path fill="#6AB08B" transform="scale(0.952378 0.952378)" d="M828.607 200.929C830.029 201.524 831.233 202.415 832.522 203.269C832.864 203.459 832.855 203.463 833.125 203.746C842.042 210.607 851.071 217.32 860.209 223.882C870.125 230.909 880.03 237.897 889.676 245.343C893.055 247.95 896.895 251.554 893.042 256.11C887.354 262.836 880.535 251.01 877.158 251.154C876.472 255.545 892.253 261.842 892.005 266.502C890.982 285.714 872.555 265.267 866.945 260.771C871.201 267.502 886.082 275.313 877.315 283.031C872.752 287.048 866.399 280.006 862.983 276.792C857.409 271.549 850.711 265.621 845.64 259.823C845.681 256.448 845.835 249.474 845.135 246.445C841.747 231.781 834.222 214.934 828.607 200.929Z"/><path fill="#6AB08B" transform="scale(0.952378 0.952378)" d="M804.49 335.975C805.263 336.37 817.16 356.873 818.727 359.549C808.833 366.12 803.782 370.864 798.187 381.789C797.811 376.786 797.913 375.107 795.516 370.463C789.327 361.326 785.936 359.847 774.938 357.163C773.91 355.177 772.53 352.163 771.271 350.437L770.841 349.833C780.158 346.526 795.48 340.374 804.49 335.975Z"/><path fill="#6AB08B" transform="scale(0.952378 0.952378)" d="M748.32 350.98C750.328 351.65 753.83 358.736 755.147 361.013C739.772 369.33 734.878 377.516 731.784 394.211C730.713 392.369 729.588 390.639 728.604 388.749C724.729 382.088 719.117 373.066 715.85 366.126C726.463 360.563 738.292 356.32 748.32 350.98Z"/><path fill="#FEFEFD" transform="scale(0.952378 0.952378)" d="M765.62 344.511C767.681 344.839 772.363 354.989 773.533 357.277C767.728 357.462 765.092 357.486 759.321 359.298L757.225 359.965C756.88 360.097 756.616 360.235 756.26 360.256C755.713 359.747 750.603 350.774 749.826 349.389L765.62 344.511Z"/><path fill="#0B0D0C" transform="scale(0.952378 0.952378)" d="M716.231 581.185C728.252 580.311 740.264 583 750.765 588.916C758.898 593.565 766.039 599.765 771.783 607.164C776.349 613.043 782.111 623.528 786.059 630.256L805.272 662.468L833.714 709.695C847.969 733.418 864.524 755.451 848.176 783.414C848.832 783.415 849.487 783.432 850.143 783.466C860 783.997 868.659 789.339 873.276 798.151C874.301 800.108 875.456 803.635 876.691 804.983C881.847 803.213 882.247 792.002 893.216 786.429C899.478 783.283 906.722 782.71 913.401 784.833C920.025 787.045 925.513 791.776 928.677 798.003C933.225 807.081 933.308 834.178 930.012 843.674C927.828 849.967 923.525 855.596 917.407 858.463C913.73 860.186 909.457 861.321 905.391 861.447C899.347 861.635 894.605 857.558 888.778 857.233C881.729 856.84 873.875 856.453 866.857 857.197C855.115 858.443 854.987 864.446 840.537 858.883C831.801 855.519 766.606 857.302 751.942 857.38C740.63 857.441 729.328 857.155 718.016 857.204C681.672 858.993 662.826 840.491 642.451 813.346C641.403 818.558 639.591 825.683 639.446 831.036C639.279 837.167 647.098 851.765 637.575 856.262C628.385 860.602 623.087 852.111 619.543 844.744C616.428 845.888 603.519 850.588 601.141 850.906C593.729 851.897 570.036 852.758 562.996 851.646L562.557 850.716C563.392 834.194 585.48 832.593 597.97 829.685C604.931 812.557 611.648 795.33 618.119 778.01C615.195 772.61 610.725 766.177 607.317 760.829L589.619 732.584C586.274 727.218 581.363 719.819 578.941 714.24C576.841 709.46 575.504 704.38 574.977 699.185C572.613 677.06 582.159 663.408 596.062 647.445C607.281 634.564 617.812 616.014 633.087 607.445C646.195 600.092 663.717 597.055 677.854 591.877C688.922 588.41 705.27 582.408 716.231 581.185Z"/><path fill="#6AB08B" transform="scale(0.952378 0.952378)" d="M719.121 582.365C719.979 581.772 720.506 581.781 721.381 582.365C732.828 582.845 741.286 585.064 751.287 590.761C767.369 599.921 774.177 613.009 783.227 628.184L805.873 666.276L831.775 709.19C846.543 733.465 863.523 755.092 846.396 783.373C829.879 787.733 831.521 795.521 823.193 799.421C811.458 804.916 794.859 811.745 782.493 816.565C771.995 819.822 763.391 823.81 753.693 828.938C735.821 838.388 727.298 858.511 704.834 855.725C676.072 852.159 663.155 836.855 646.106 816.12C646.299 807.969 653.927 757.532 653.223 755.863L652.6 756.092C651.887 757.621 648.457 776.577 647.913 779.317C644.324 797.369 640.374 814.958 637.252 833.106C639.174 837.86 642.84 845.478 640.361 850.106C633.041 863.776 623.298 851.154 620.245 842.898C601.606 850.384 598.859 850.757 579.502 850.572C582.81 836.658 586.482 835.437 598.97 830.633C601.3 825.604 603.921 818.421 606.045 813.09L620.834 775.375C623.63 768.203 631.474 750.597 632.375 744.359L631.94 744.478C628.035 751.63 622.776 767.731 618.764 776.446C616.346 772.131 612.528 766.635 609.769 762.259L591.387 732.799C585.719 723.678 579.161 714.292 577.21 703.879C574.014 686.818 578.121 671.248 589.212 657.96C599.586 645.531 609.723 631.697 620.426 619.526C628.507 610.69 640.943 603.7 652.752 601.128C671.41 597.064 701.154 582.902 719.121 582.365Z"/><path fill="#305348" transform="scale(0.952378 0.952378)" d="M719.121 582.365C719.979 581.772 720.506 581.781 721.381 582.365C720.248 582.5 720.303 582.499 719.121 582.365Z"/><path fill="#0B0D0C" transform="scale(0.952378 0.952378)" d="M720.537 598.205C730.161 597.464 740.603 600.419 748.941 605.103C754.061 607.926 758.659 611.605 762.538 615.98C768.938 623.307 793.808 663.745 796.32 672.764C798.555 680.786 797.757 689.353 793.527 696.599C791.147 700.678 788.289 703.731 784.206 706.15C774.688 711.788 761.757 715.048 751.327 718.899C735.466 724.755 719.529 731.808 703.21 736.16C698.144 737.262 691.993 737.496 686.901 736.544C676.805 734.844 662.87 727.538 657.43 718.359C649.325 704.685 636.28 686.581 630.237 672.136C628.467 667.874 627.33 663.375 626.864 658.783C625.819 648.232 629.19 636.81 636.039 628.693C639.292 624.828 643.337 621.707 647.9 619.538C657.814 614.733 709.954 599.145 720.537 598.205Z"/><path fill="#F9F5DB" transform="scale(0.952378 0.952378)" d="M719.764 599.682C729.382 598.962 739.309 601.504 747.731 606.109C752.842 608.86 757.433 612.485 761.294 616.819C767.464 623.828 792.338 664.053 794.694 672.51C796.855 680.266 796.213 689.113 792.169 696.16C789.853 700.196 787.035 702.902 783.03 705.229C773.441 710.801 759.328 714.593 748.773 718.465C733.895 723.923 719.021 730.509 703.683 734.51C702.106 734.888 700.509 735.177 698.9 735.373C687.672 736.824 676.005 733.385 667.1 726.482C663.919 723.997 661.095 721.088 658.706 717.834C654.05 711.623 648.989 702.541 644.962 695.691C638.165 684.129 629.84 673.115 628.301 659.496C627.075 648.993 630.05 638.432 636.577 630.112C639.511 626.376 643.241 623.339 647.495 621.224C656.65 616.626 709.872 600.765 719.764 599.682Z"/><path fill="#040303" transform="scale(0.952378 0.952378)" d="M713.812 652.603C732.828 651.39 738.682 661.415 746.122 676.976C749.217 683.451 754.978 692.018 754.909 699.241C754.841 706.371 742.103 709.278 736.616 711.031C713.801 718.539 716.019 711.263 705.011 694.052C695.008 678.414 691.28 659.611 713.812 652.603Z"/><path fill="#040303" transform="scale(0.952378 0.952378)" d="M670.393 637.539C671.812 637.451 674.74 637.228 676.746 637.603C680.163 638.24 688.582 642.737 688.555 647.021C688.553 647.28 688.079 647.351 687.976 647.221C683.135 641.097 676.771 637.362 668.816 639.785L667.243 640.266C662.072 643.669 658.572 648.033 659.429 654.989C660.554 656.749 658.254 659.074 657.767 656.465C655.861 646.255 662.326 639.722 670.393 637.539Z"/><path fill="#040303" transform="scale(0.952378 0.952378)" d="M728.87 619.536C734.292 619.413 736.922 620.077 741.848 622.69C743.253 623.435 750.851 630.4 746.688 630.744C743.63 627.253 743.664 624.314 737.505 622.419C734.416 621.469 733.533 621.354 730.222 621.193C724.299 622.343 719.533 625.511 718.483 632C718.275 633.291 718.564 634.756 718.282 635.968C718.007 636.903 716.69 636.499 716.596 635.704C715.586 627.086 721.176 621.665 728.87 619.536Z"/><path fill="#0B0D0C" transform="scale(0.952378 0.952378)" d="M813.414 713.116C830.705 711.308 836.572 729.238 823.226 735.549C807.375 738.576 800.467 720.098 813.414 713.116Z"/><path fill="#F9F5DB" transform="scale(0.952378 0.952378)" d="M816.183 714.071C829.689 714.945 834.562 729.882 821.336 734.78C804.224 734.498 805.163 716.487 815.219 714.301L816.183 714.071Z"/><path fill="#F9F5DB" transform="scale(0.952378 0.952378)" d="M903.328 785.162C919.445 783.684 930.631 797.082 930.323 812.505C930.151 821.129 931.201 831.687 929.448 840.087C928.782 843.366 927.507 846.492 925.69 849.301C921.437 855.773 915.931 858.106 908.753 859.638C902.648 860.503 896.441 859.039 891.365 855.538C881.097 848.359 879.964 836.534 880.37 825.136C880.595 818.813 879.757 811.352 881.04 805.189C881.828 801.32 883.476 797.678 885.863 794.533C890.526 788.435 896.02 786.09 903.328 785.162Z"/><path fill="#F9F5DB" transform="scale(0.952378 0.952378)" d="M846.446 785.072C852.141 784.853 857.046 785.299 862.146 788.247C877.361 797.045 874.651 813.798 874.809 828.558C874.849 832.234 874.799 835.982 874.179 839.605C873.665 842.638 872.602 845.553 871.04 848.203C867.026 854.916 861.697 857.555 854.509 859.426C848.724 860.06 843.629 859.581 838.374 856.82C832.683 853.762 828.458 848.548 826.645 842.347C824.892 836.436 824.889 811.815 825.893 805.674C826.345 802.786 827.315 800.005 828.756 797.463C832.849 790.301 838.906 787.212 846.446 785.072Z"/><path fill="#6AB08B" transform="scale(0.952378 0.952378)" d="M813.208 815.701C815.847 815.387 821.118 815.417 823.964 815.354C823.849 829.93 822.494 842.139 827.231 855.894C800.654 855.265 771.2 855.967 744.393 856.026L735.54 855.939C732.882 853.414 732.458 852.671 730.396 849.63C734.623 846.641 746.046 840.026 750.873 837.165C759.499 832.053 774.923 821.993 783.344 818.496C786.135 817.337 808.604 816.056 813.208 815.701Z"/><path fill="#6AB08B" transform="scale(0.952378 0.952378)" d="M586.056 833.61L587.534 834.151C581.615 837.812 579.86 842.131 578.68 848.748L578.367 850.564C572.854 850.458 567.007 852.453 570.672 845.592C574.982 837.525 578.36 836.501 586.056 833.61Z"/><path fill="#F9F5DB" transform="scale(0.952378 0.952378)" d="M824.73 800.366C824.943 801.126 823.949 811.498 823.932 813.943C821.518 813.96 819.104 813.994 816.691 814.045C816.566 811.754 822.745 802.249 824.73 800.366Z"/><path fill="#6AB08B" transform="scale(0.952378 0.952378)" d="M572.472 840.082C570.468 842.57 568.934 845.291 568.58 848.511C568.566 848.645 568.461 850.205 568.205 850.277C566.752 850.688 563.336 851.203 563.983 848.774C565.316 843.767 567.736 841.199 571.801 838.528L572.472 840.082Z"/><path fill="#51886C" transform="scale(0.952378 0.952378)" d="M571.801 838.528L572.572 838.142C573.065 837.887 574.103 837.185 574.646 837.649C574.729 838.189 573.492 839.114 573.221 839.368L572.472 840.082L571.801 838.528Z"/><path fill="#305348" transform="scale(0.952378 0.952378)" d="M586.056 833.61C586.801 833.212 587.986 832.644 588.775 833.193C588.874 833.729 587.832 834.019 587.534 834.151L586.056 833.61Z"/><path fill="#0B0D0C" transform="scale(0.952378 0.952378)" d="M183.41 229.64C183.584 220.303 183.375 210.653 183.34 201.291L183.314 167.421C183.332 143.399 182.325 127.701 200.385 109.07C221.666 87.115 248.597 91.4561 276.421 91.4724L326.796 91.4672C344.525 91.5591 358.375 96.0016 371.172 108.863C376.793 114.512 383.035 123.471 385.491 131.089C386.972 135.614 387.948 140.289 388.402 145.029C389.375 154.828 388.989 168.576 388.997 178.786C389.009 195.425 389.139 212.356 388.915 228.961C389.203 231.828 389.477 232.016 391.444 234.316C403.723 250.425 416.113 266.449 428.611 282.388C434.145 289.499 440.051 296.602 445.113 303.991C446.542 306.077 445.584 311.296 443.214 312.837C440.968 314.298 437.999 314.398 436.518 316.042C435.923 319.64 437.429 321.899 434.69 324.764C430.35 329.305 425.778 327.211 421.905 323.414C420.747 326.248 419.652 328.948 416.696 330.322C414.92 331.147 412.902 331.022 411.132 330.243C405.059 327.569 393.422 306.025 389.131 299.447C384.661 332.221 365.454 350.655 332.344 353.4L332.234 386.433C349.068 394.633 351.011 408.428 350.149 425.35C329.994 425.166 309.234 424.826 289.122 425.119C288.96 414.329 288.664 410.308 292.04 399.999C293.185 396.503 291.481 382.794 292.135 378.351C291.888 370.502 292.459 361.672 292.134 354.04L291.896 353.41C288.572 353.573 282.131 353.677 278.987 353.104L279.602 352.719L252.165 352.694C249.588 352.692 241.152 352.515 239.076 352.977L238.851 353.316C228.331 353.913 211.124 346.739 203.465 339.415C189.676 326.227 184.656 314.885 183.377 296.471C178.374 303.468 166.358 326.016 160.541 329.325C158.949 330.231 156.783 330.38 155.047 329.786C152.918 329.057 151.887 327.689 150.93 325.752C150.569 325.022 150.32 324.411 149.784 323.784C149.342 323.267 149.524 323.404 148.94 323.835C146.609 325.558 143.956 327.643 140.878 327.146C139.257 326.885 136.827 325.419 135.982 323.981C134.359 321.22 135.379 318.379 136.042 315.504C135.405 313.858 126.079 314.369 125.611 309.077C124.986 303.377 130.473 298.079 133.658 293.717C149.535 271.976 167.527 251.289 183.41 229.64Z"/><path fill="#6AB08B" transform="scale(0.952378 0.952378)" d="M387.565 290.693C387.598 295.719 387.755 301.221 386.91 306.143C384.542 319.939 376.862 332.331 365.678 340.677C355.133 348.546 343.572 351.984 330.542 352.059C304.697 352.209 279.023 352.017 253.19 352.185C244.688 352.237 236.351 352.429 228.007 350.465C218.364 348.273 209.498 343.498 202.362 336.651C190.527 325.147 184.933 310.859 184.898 294.52C184.84 266.666 185.059 238.805 184.782 210.956C184.643 197.327 184.581 183.698 184.596 170.069C184.591 159.58 184.047 147.351 186.105 137.132C189.977 117.907 208.965 98.7346 228.101 94.5179C242.717 91.2974 262.985 92.6178 278.441 92.6868C294.384 92.7365 310.327 92.6928 326.27 92.5557C343.134 92.5552 358.272 97.3193 370.063 109.607C387.402 127.676 387.619 142.154 387.606 165.226C388.349 169.401 388.072 181.54 388.072 186.329L388.046 228.156C388.005 247.699 387.326 271.488 388.026 290.552L387.565 290.693Z"/><path fill="#305348" transform="scale(0.952378 0.952378)" d="M387.606 165.226C388.349 169.401 388.072 181.54 388.072 186.329L388.046 228.156C388.005 247.699 387.326 271.488 388.026 290.552L387.565 290.693C387.247 286.245 387.492 278.414 387.491 273.775L387.535 239.91C387.568 215.683 386.878 189.226 387.606 165.226Z"/><path fill="#0B0D0C" transform="scale(0.952378 0.952378)" d="M245.451 249.571C233.202 248.449 221.91 242.478 214.087 232.986C200.252 216.489 203.793 200.134 203.56 180.22C203.301 158.034 201.454 138.248 220.596 122.666C234.931 110.996 246.703 111.973 264.273 111.948L291.913 111.932C316.038 111.936 342.452 107.815 359.277 129.02C372.763 146.017 369.162 162.335 369.708 182.4C370.315 204.718 371.349 224.928 351.817 240.12C335.548 252.774 317.326 249.295 298.066 249.529C293.147 250.285 249.706 250.463 245.451 249.571Z"/><path fill="#44644E" transform="scale(0.952378 0.952378)" d="M245.451 249.571L279.081 249.351C284.405 249.335 292.908 249.064 298.066 249.529C293.147 250.285 249.706 250.463 245.451 249.571Z"/><path fill="#F9F5DB" transform="scale(0.952378 0.952378)" d="M245.201 113.676C252.591 112.868 275.804 113.235 284.294 113.277C294.871 113.33 322.049 112.603 331.095 114.126C337.355 115.189 343.325 117.543 348.625 121.038C358.587 127.644 365.177 138.598 367.459 150.242C369.178 159.012 369.225 203.076 367.573 211.774C366.418 217.849 364.025 223.621 360.543 228.731C352.786 240.226 342.402 245.545 329.116 248.157C317.96 249.182 296.423 248.204 284.548 248.454C275.6 248.643 248.743 249.07 241.481 247.7C234.425 246.391 227.779 243.43 222.087 239.06C212.767 231.821 206.753 221.136 205.4 209.413C204.157 199.185 204.206 156.837 206.373 147.659C207.918 141.298 210.846 135.356 214.948 130.255C222.574 120.654 233.113 115.107 245.201 113.676Z"/><path fill="#040303" transform="scale(0.952378 0.952378)" d="M287.274 163.35C287.728 158.68 289.137 154.153 291.414 150.051C295.829 142.418 303.123 136.877 311.66 134.669C320.159 132.438 329.086 133.96 336.617 138.396C343.853 142.57 349.084 149.502 351.113 157.605C358.071 186.014 327.767 210.916 302.184 193.975C292.62 187.641 288.856 179.083 286.772 168.133C285.201 175.926 284.066 180.89 278.965 187.256C273.502 194.146 265.473 198.519 256.721 199.368C248.436 200.24 239.817 196.959 233.449 191.741C226.651 186.232 222.381 178.199 221.614 169.483C220.756 160.453 223.827 151.759 229.672 144.902C235.176 138.368 243.076 134.323 251.594 133.676C268.404 132.42 284.793 144.999 286.035 162.237L286.077 162.89L287.274 163.35Z"/><path fill="#82817E" transform="scale(0.952378 0.952378)" d="M286.077 162.89L287.274 163.35C286.465 166.129 286.031 164.826 286.077 162.89Z"/><path fill="#FEFEFD" transform="scale(0.952378 0.952378)" d="M315.707 135.393C332.824 133.224 348.465 145.324 350.667 162.437C352.868 179.55 340.798 195.214 323.689 197.448C306.535 199.688 290.819 187.578 288.612 170.419C286.405 153.261 298.544 137.568 315.707 135.393Z"/><path fill="#0B0D0C" transform="scale(0.952378 0.952378)" d="M316.688 148.766C326.019 147.116 334.934 153.303 336.652 162.621C338.371 171.94 332.25 180.899 322.944 182.686C313.542 184.492 304.468 178.293 302.731 168.877C300.995 159.462 307.26 150.434 316.688 148.766Z"/><path fill="#FEFEFD" transform="scale(0.952378 0.952378)" d="M250.717 135.359C267.917 133.513 283.348 145.983 285.153 163.188C286.957 180.392 274.45 195.793 257.241 197.557C240.091 199.315 224.753 186.859 222.954 169.712C221.156 152.566 233.574 137.199 250.717 135.359Z"/><path fill="#0B0D0C" transform="scale(0.952378 0.952378)" d="M251.16 148.784C260.524 146.735 269.763 152.711 271.732 162.092C273.701 171.473 267.646 180.66 258.248 182.549C248.964 184.415 239.912 178.448 237.966 169.18C236.021 159.913 241.91 150.809 251.16 148.784Z"/><path fill="#040303" transform="scale(0.952378 0.952378)" d="M249.675 203.34C251.495 204.002 256.469 211.61 258.577 213.602C274.948 229.068 301.67 228.378 317.027 211.811C319.271 209.39 320.593 206.274 322.853 204.091L323.595 204.223L323.998 205.265C322.501 207.675 321.189 209.587 319.34 211.755C311.988 220.317 301.521 225.589 290.264 226.399C278.113 227.348 266.889 223.333 257.668 215.43C254.455 212.676 249.982 207.592 249.675 203.34Z"/><path fill="#0B0D0C" transform="scale(0.952378 0.952378)" d="M354.486 268.336C361.074 266.929 367.56 271.111 368.998 277.692C370.437 284.272 366.287 290.779 359.713 292.249C353.094 293.729 346.534 289.544 345.086 282.919C343.637 276.293 347.853 269.753 354.486 268.336Z"/><path fill="#F9F5DB" transform="scale(0.952378 0.952378)" d="M354.016 269.824C359.766 268.149 365.788 271.433 367.493 277.173C369.199 282.914 365.946 288.953 360.214 290.688C354.44 292.436 348.346 289.154 346.629 283.371C344.911 277.588 348.225 271.512 354.016 269.824Z"/><path fill="#6AB08B" transform="scale(0.952378 0.952378)" d="M388.046 228.156L388.915 228.961C389.203 231.828 389.477 232.016 391.444 234.316L390.102 234.789L427.03 282.502C432.558 289.648 438.405 296.751 443.332 304.187C446.126 308.404 441.264 315.132 437.349 313.807C431.897 311.962 427.766 303.248 422.844 299.029C424.769 303.814 428.451 307.442 431.36 311.703C432.532 313.42 434.857 316.359 435.325 318.621C434.896 324.12 431.572 327.71 426.388 324.823C420.568 321.582 418.202 312.065 413.086 309.907L412.607 310.121C414.307 314.814 427.652 326.117 414.61 329.265C413.143 329.613 411.597 329.363 410.315 328.568C406.079 325.905 396.731 307.685 393.197 303.047C392.524 302.164 391.094 299.525 390.327 298.918C389.352 298.896 389.46 298.879 388.503 298.664C387.763 296.476 388.142 293.243 388.026 290.552C387.326 271.488 388.005 247.699 388.046 228.156Z"/><path fill="#040303" transform="scale(0.952378 0.952378)" d="M388.046 228.156L388.915 228.961C389.203 231.828 389.477 232.016 391.444 234.316L390.102 234.789C389.989 248.236 389.802 261.682 389.54 275.126C389.445 280.31 388.342 294.919 390.327 298.918C389.352 298.896 389.46 298.879 388.503 298.664C387.763 296.476 388.142 293.243 388.026 290.552C387.326 271.488 388.005 247.699 388.046 228.156Z"/><path fill="#6AB08B" transform="scale(0.952378 0.952378)" d="M330.567 359.747C331.283 361.641 330.965 382.436 330.94 385.706C314.389 381.301 304.593 384.579 293.592 397.441C293.5 389.967 293.466 382.493 293.488 375.019C293.496 371.104 293.74 365.238 293.245 361.527C304.259 359.763 319.011 360.896 330.567 359.747Z"/><path fill="#040303" transform="scale(0.952378 0.952378)" d="M291.896 353.41C291.801 352.973 291.779 353.146 291.84 352.891C292.149 352.548 327.928 352.707 331.933 352.703C331.859 354.751 332.598 359.76 330.567 359.747C319.011 360.896 304.259 359.763 293.245 361.527C291.805 360.764 293.674 357.096 292.134 354.04L291.896 353.41Z"/><path fill="#6AB08B" transform="scale(0.952378 0.952378)" d="M156.981 328.892C142.957 323.971 159.304 313.191 157.871 308.642C154.55 309.115 146.357 331.765 138.439 324.553C130.208 317.056 146.89 307.209 146.831 301.006L146.274 300.612C142.383 303.823 139.157 314.466 133.142 313.694C131.139 313.437 129.075 311.807 128.055 310.111C127.202 308.691 126.945 306.819 127.454 305.235C129.045 300.282 176.098 240.526 183.462 232.073C183.483 252.241 183.913 274.115 183.42 294.137C178.068 301.699 173.377 309.332 168.634 317.289C165.812 322.022 163.479 326.953 158.177 329.009C157.495 329.022 157.639 329.043 156.981 328.892Z"/><path fill="#305348" transform="scale(0.952378 0.952378)" d="M156.981 328.892C157.39 328.829 157.749 328.938 158.177 329.009C157.495 329.022 157.639 329.043 156.981 328.892Z"/><path fill="#F9F5DB" transform="scale(0.952378 0.952378)" d="M314.633 385.608C317.375 385.366 320.019 385.241 322.768 385.477C330.198 386.076 337.065 389.671 341.793 395.435C349.044 404.14 349.51 413.192 348.537 423.913L325.945 423.869L290.505 423.729C290.088 404.861 293.506 390.385 314.633 385.608Z"/><path fill="#6AB08B" transform="scale(0.952378 0.952378)" d="M174.029 768.574L173.945 701.457C173.864 669.907 169.196 643.476 196.177 620.682C205.056 613.14 215.695 607.96 227.108 605.623C236.823 603.581 248.434 604.084 258.497 604.115L294.737 604.207C308.159 604.201 331.541 603.312 343.971 604.368C360.226 605.804 375.237 613.665 385.674 626.209C392.347 634.124 396.936 643.581 399.024 653.721C401.067 663.611 400.546 675.084 400.535 685.305L400.541 722.609L400.541 750.61C400.541 755.87 400.747 762.808 400.256 767.888C409.268 784.875 419.61 801.57 428.786 818.513C430.89 822.397 433.545 826.23 435.546 830.131C447.709 832.11 469.538 835.75 472.456 850.024C472.135 850.819 472.21 851.165 471.502 851.263C468.603 851.664 464.631 851.175 461.548 851.33C441.034 852.361 438.835 851.357 421.27 842.445C417.175 847.078 412.645 852.853 405.93 853.365C399.632 853.845 397.789 847.171 397.987 841.981L397.153 841.589C386.593 858.434 374.842 857.202 357.204 857.207L328.322 857.191C312.118 857.432 295.793 857.168 279.577 857.114C239.267 856.98 201 864.96 179.121 822.434C177.915 825.238 176.785 828.467 175.711 831.353C179.4 835.092 182.252 839.311 182.173 844.715C182.086 849.042 179.944 853.732 174.902 853.211C168.717 852.573 165.319 847.244 161.472 842.843C155.687 844.599 141.988 849.455 136.815 850.281C127.8 851.721 111.254 851.186 101.765 850.983C105.619 834.852 123.356 833.33 137.053 829.626L174.029 768.574Z"/><path fill="#040303" transform="scale(0.952378 0.952378)" d="M400.256 767.888C409.268 784.875 419.61 801.57 428.786 818.513C430.89 822.397 433.545 826.23 435.546 830.131C447.709 832.11 469.538 835.75 472.456 850.024C472.135 850.819 472.21 851.165 471.502 851.263C468.603 851.664 464.631 851.175 461.548 851.33C441.034 852.361 438.835 851.357 421.27 842.445C417.175 847.078 412.645 852.853 405.93 853.365C399.632 853.845 397.789 847.171 397.987 841.981L397.153 841.589C386.593 858.434 374.842 857.202 357.204 857.207L328.322 857.191C327.21 856.738 327.329 856.654 326.361 855.823C319.354 855.345 305.235 856.647 299.544 854.654L297.465 855.423C285.419 849.341 278.537 839.877 277.895 826.236C277.601 819.971 277.455 811.84 278.931 805.776C280.88 797.818 285.886 790.949 292.863 786.654C307.655 777.661 325.697 783.773 334.287 798.11C338.473 796.715 342.009 795.686 346.406 795.3C356.179 784.951 366.504 779.4 381.202 784.266C386.454 786.005 390.024 789.186 393.637 793.191C396.706 785.835 398.437 779.191 399.043 771.249L399.631 768.195L400.256 767.888Z"/><path fill="#F9F5DB" transform="scale(0.952378 0.952378)" d="M299.544 854.654C291.585 851.386 284.964 845.777 281.756 837.674C278.462 829.354 278.14 812.104 280.942 803.742C289.949 776.859 325.925 778.006 335.431 803.68C338.893 813.399 337.48 837.775 332.994 846.727C331.277 850.09 329.038 853.16 326.361 855.823C319.354 855.345 305.235 856.647 299.544 854.654Z"/><path fill="#F9F5DB" transform="scale(0.952378 0.952378)" d="M401.253 827.413C404.425 832.938 403.835 831.641 400.021 837.01L399.196 836.451C400.179 833.185 400.592 830.721 401.253 827.413Z"/><path fill="#82817E" transform="scale(0.952378 0.952378)" d="M399.196 836.451L400.021 837.01C399.232 838.769 398.605 840.148 397.987 841.981L397.153 841.589C397.762 839.848 398.573 838.189 399.196 836.451Z"/><path fill="#F9F5DB" transform="scale(0.952378 0.952378)" d="M368.472 784.159C374.779 783.48 381.125 785.022 386.417 788.52C393.083 792.953 397.689 799.878 399.202 807.739C400.35 813.497 400.066 819.711 399.809 825.544C399.142 840.72 390.077 852.484 374.925 855.548C364.191 855.772 353.454 855.851 342.717 855.784C342.502 846.761 342.043 813.604 343.491 806.689C344.337 802.522 346.11 798.6 348.677 795.211C353.876 788.378 360.144 785.349 368.472 784.159Z"/><path fill="#6AB08B" transform="scale(0.952378 0.952378)" d="M404.274 778.752C405.823 780.221 409.306 787 410.674 789.242C417.693 800.734 426.193 818.228 433.542 828.945C439.122 837.082 447.348 833.857 453.021 850.237C441.928 850.232 441.024 850.412 430.714 845.612C427.058 843.798 424.411 842.305 420.908 840.193C417.275 845.313 408.719 855.188 402.131 850.919C395.215 846.439 402.429 836.027 405.219 832.052C403.744 829.086 403.197 827.896 401.193 825.236C401.547 814.204 402.331 804.958 395.576 795.569C398.201 789.777 401.537 784.56 404.274 778.752Z"/><path fill="#6AB08B" transform="scale(0.952378 0.952378)" d="M440.434 832.368C447.014 833.803 453.001 835.453 458.153 839.858C461.475 842.699 462.422 846.289 464.004 850.153L454.081 850.262C451.587 840.259 448.226 838.75 440.434 832.368Z"/><path fill="#6AB08B" transform="scale(0.952378 0.952378)" d="M458.49 837.21C464.146 840.498 470.012 842.845 471.092 850.342C469.299 850.615 469.345 850.634 467.537 850.352C467.301 850.28 465.778 849.91 465.702 849.685C463.984 844.608 462.5 841.583 458.003 838.49L458.49 837.21Z"/><path fill="#305348" transform="scale(0.952378 0.952378)" d="M467.537 850.352C469.006 850.262 469.67 850.159 471.092 850.342C469.299 850.615 469.345 850.634 467.537 850.352Z"/><path fill="#4A8167" transform="scale(0.952378 0.952378)" d="M458.003 838.49C455.644 836.81 455.382 836.06 458.49 837.21L458.003 838.49Z"/><path fill="#0B0D0C" transform="scale(0.952378 0.952378)" d="M174.029 768.574L173.945 701.457C173.864 669.907 169.196 643.476 196.177 620.682C205.056 613.14 215.695 607.96 227.108 605.623C236.823 603.581 248.434 604.084 258.497 604.115L294.737 604.207C308.159 604.201 331.541 603.312 343.971 604.368C360.226 605.804 375.237 613.665 385.674 626.209C392.347 634.124 396.936 643.581 399.024 653.721C401.067 663.611 400.546 675.084 400.535 685.305L400.541 722.609L400.541 750.61C400.541 755.87 400.747 762.808 400.256 767.888L399.631 768.195C399.333 760.072 399.601 750.099 399.601 741.857L399.599 689.854C399.598 686.078 399.863 667.057 399.131 665.113C397.48 636.341 379.255 612.655 350.296 606.628C341.564 604.81 331.422 605.422 322.469 605.449L288.51 605.492L255.363 605.467C249.156 605.464 242.377 605.236 236.116 605.642C209.647 607.358 182.523 627.184 176.861 653.795C173.653 668.873 176.118 686.924 175.392 702.434C175.454 723.505 175.141 745.089 175.506 766.018C179.739 758.86 187.083 745.616 192.031 739.62L192.375 739.804C190.439 744.364 186.399 750.591 183.754 755.032L165.636 784.865L147.247 815.274C141.272 825.116 138.869 831.4 128.947 837.74C126.078 839.573 122.612 846.21 120.901 849.499C137.335 849.905 145.737 847.083 161.48 841.117C165.841 844.899 169.25 851.577 175.263 852.069C179.508 852.417 181.094 846.527 180.606 843.278C179.987 838.057 177.419 835 173.794 831.593C184.168 805.972 193.451 779.858 203.805 754.219C204.824 751.696 205.456 749.429 206.882 747.072L207.434 747.027C207.587 750.327 183.237 811.721 179.859 820.73C185.97 835.392 197.183 845.312 211.747 851.284C216.904 853.402 222.33 854.796 227.869 855.425C236.649 856.461 253.434 856.019 262.76 855.863C273.395 855.686 287.239 856.109 297.465 855.423L299.544 854.654C305.235 856.647 319.354 855.345 326.361 855.823C327.329 856.654 327.21 856.738 328.322 857.191C312.118 857.432 295.793 857.168 279.577 857.114C239.267 856.98 201 864.96 179.121 822.434C177.915 825.238 176.785 828.467 175.711 831.353C179.4 835.092 182.252 839.311 182.173 844.715C182.086 849.042 179.944 853.732 174.902 853.211C168.717 852.573 165.319 847.244 161.472 842.843C155.687 844.599 141.988 849.455 136.815 850.281C127.8 851.721 111.254 851.186 101.765 850.983C105.619 834.852 123.356 833.33 137.053 829.626L174.029 768.574Z"/><path fill="#6AB08B" transform="scale(0.952378 0.952378)" d="M132.736 832.094C132.846 832.117 133.141 832.136 133.23 832.262C133.179 832.318 133.128 832.374 133.077 832.43C126.186 837.064 122.5 841.723 119.612 849.597L111.96 849.672C110.468 849.005 111.579 848.346 112.083 847.015C115.824 837.139 122.975 835.085 132.736 832.094Z"/><path fill="#6AB08B" transform="scale(0.952378 0.952378)" d="M117.19 836.475C117.625 836.63 117.685 836.472 117.767 836.851C117.574 837.085 117.637 837.036 117.406 837.197C113.202 840.068 111.538 844.861 109.374 849.187C108.983 849.968 105.724 849.874 104.93 849.939C104.179 849.472 103.614 849.039 104.053 848.036C106.778 841.815 111.51 839.238 117.19 836.475Z"/><path fill="#305348" transform="scale(0.952378 0.952378)" d="M399.131 665.113C399.863 667.057 399.598 686.078 399.599 689.854L399.601 741.857C399.601 750.099 399.333 760.072 399.631 768.195L399.043 771.249C399.642 747.09 398.757 721.882 399.221 697.599C399.422 687.083 398.661 675.529 399.131 665.113Z"/><path fill="#0B0D0C" transform="scale(0.952378 0.952378)" d="M284.745 624.25L312.168 624.228C333.643 624.234 353.296 621.386 369.34 637.941C383.314 651.464 383.04 669.44 382.532 687.293C381.773 709.484 387.526 731.722 369.346 748.845C355.207 762.162 341.769 761.586 323.679 761.41L289.882 761.39C279.86 761.379 266.013 761.979 256.667 759.414C249.839 757.502 243.595 753.918 238.5 748.987C228.79 739.538 225.284 727.796 225.137 714.579L225.058 686.398C225.02 667.745 224.131 651.808 238.501 637.604C252.545 623.722 266.779 624.335 284.745 624.25Z"/><path fill="#F9F5DB" transform="scale(0.952378 0.952378)" d="M270.657 625.723C283.451 625.331 297.22 625.37 309.954 625.568C329.871 626.324 349.336 621.938 365.594 636.372C383.445 652.221 381.317 670.32 381.221 692.021C381.137 710.944 384.607 730.31 370.521 745.558C361.222 755.624 352.019 759.119 338.563 759.939L291.302 759.924C282.392 759.919 266.857 760.402 258.692 758.582C252.376 757.181 246.5 754.254 241.577 750.057C219.75 731.478 228.085 702.487 226.503 677.447C224.674 648.497 241.265 627.327 270.657 625.723Z"/><path fill="#040303" transform="scale(0.952378 0.952378)" d="M269.694 656.656C285.663 653.617 301.067 664.116 304.076 680.091C307.085 696.066 296.556 711.45 280.575 714.429C264.637 717.399 249.303 706.905 246.303 690.973C243.302 675.04 253.767 659.687 269.694 656.656Z"/><path fill="#F9F5DB" transform="scale(0.952378 0.952378)" d="M270.627 657.549C290.072 656.172 301.732 667.127 303.027 686.707C295.561 686.422 287.394 686.539 279.875 686.507L247.656 686.411C248.242 671.366 255.582 661.339 270.627 657.549Z"/><path fill="#040303" transform="scale(0.952378 0.952378)" d="M338.651 656.153C354.745 655.403 368.424 667.789 369.27 683.878C370.117 699.967 357.813 713.72 341.73 714.663C325.509 715.615 311.612 703.183 310.759 686.957C309.905 670.73 322.42 656.909 338.651 656.153Z"/><path fill="#F9F5DB" transform="scale(0.952378 0.952378)" d="M340.131 657.207C346.15 657.531 350.609 658.546 355.711 662.199C361.881 666.631 366.007 673.362 367.155 680.872C367.417 682.641 367.775 684.892 366.747 686.296C361.689 686.96 346.089 686.534 340.25 686.509C335.654 686.492 315.653 687.323 313.069 685.74C312.666 685.118 312.195 684.359 312.252 683.594C313.128 671.859 322.006 660.813 333.547 657.971C335.845 657.405 337.928 657.328 340.131 657.207Z"/><path fill="#040303" transform="scale(0.952378 0.952378)" d="M287.918 733.171C294.448 732.949 318.453 733.545 326.202 733.567C326.394 733.567 326.315 734.546 326.313 734.615C315.018 736.017 300.268 734.441 288.697 734.707C288.311 734.716 288.092 733.941 288.032 733.667L287.918 733.171Z"/><path fill="#040303" transform="scale(0.952378 0.952378)" d="M238.851 353.316L239.076 352.977C241.152 352.515 249.588 352.692 252.165 352.694L279.602 352.719L278.987 353.104C278.958 368.414 278.842 383.924 278.99 399.246C279.028 403.27 280.544 408.956 280.943 413.088C281.318 416.976 281.232 421.136 281.206 425.055L219.398 425.063C219.218 407.422 220.004 393.787 238.7 385.68C238.866 374.863 238.769 364.117 238.851 353.316Z"/><path fill="#F9F5DB" transform="scale(0.952378 0.952378)" d="M247.786 385.153C256.527 384.115 266.266 388.145 272.063 394.736C279.934 403.686 280.39 412.536 279.675 423.822L254.583 423.91L220.559 423.924C220.232 403.44 224.554 388.483 247.786 385.153Z"/><path fill="#6AB08B" transform="scale(0.952378 0.952378)" d="M266.522 360.288C270.331 360.024 273.779 359.969 277.591 359.88C277.642 373.316 277.602 386.752 277.47 400.188C273.388 393.008 270.244 389.86 262.753 386.29C253.652 383.211 249.52 383.295 240.217 385.096C240.091 377.406 240.277 369.294 240.283 361.539C247.936 361.394 258.652 360.754 266.522 360.288Z"/><path fill="#4A8167" transform="scale(0.952378 0.952378)" d="M180.101 935.544C182.25 935.527 185.672 935.188 187.492 936.421C191.446 939.101 190.46 942.689 188.334 946.02C177.254 950.424 180.233 944.778 180.101 935.544Z"/><path fill="#FEFEFD" transform="scale(0.952378 0.952378)" d="M182.473 937.707C187.077 937.856 189.109 938.88 187.142 944.031C180.692 946.536 182.524 944.674 182.473 937.707Z"/><path fill="#040303" transform="scale(0.952378 0.952378)" d="M717.628 913.137C720.717 912.529 723.713 914.548 724.308 917.64C724.904 920.732 722.873 923.719 719.779 924.302C716.702 924.883 713.736 922.866 713.143 919.791C712.551 916.717 714.556 913.742 717.628 913.137Z"/><path fill="#FEFEFD" transform="scale(0.952378 0.952378)" d="M716.802 915.794C717.868 915.14 719.211 915.142 720.275 915.798C721.339 916.454 721.943 917.653 721.839 918.899C721.734 920.144 720.937 921.225 719.778 921.694C718.179 922.341 716.351 921.654 715.575 920.114C714.798 918.574 715.331 916.695 716.802 915.794Z"/><path fill="#040303" transform="scale(0.952378 0.952378)" d="M730.522 913.188C732.523 912.591 734.69 913.143 736.163 914.624C737.635 916.104 738.174 918.275 737.565 920.272C736.957 922.27 735.3 923.771 733.252 924.18C730.282 924.773 727.37 922.926 726.641 919.987C725.911 917.048 727.62 914.054 730.522 913.188Z"/><path fill="#FEFEFD" transform="scale(0.952378 0.952378)" d="M731.694 915.328C733.393 915.078 735.001 916.17 735.395 917.842C735.789 919.513 734.839 921.209 733.207 921.744C732.019 922.134 730.714 921.822 729.831 920.936C728.949 920.051 728.641 918.744 729.035 917.558C729.429 916.372 730.458 915.509 731.694 915.328Z"/><path fill="#040303" transform="scale(0.952378 0.952378)" d="M356.755 477.623C359.789 476.917 362.819 478.81 363.515 481.846C364.211 484.882 362.309 487.907 359.27 488.594C356.245 489.277 353.237 487.385 352.544 484.362C351.851 481.339 353.734 478.325 356.755 477.623Z"/><path fill="#FEFEFD" transform="scale(0.952378 0.952378)" d="M356.322 480.319C357.358 479.719 358.641 479.742 359.656 480.378C360.67 481.015 361.248 482.16 361.159 483.354C361.069 484.548 360.326 485.594 359.228 486.072C357.659 486.755 355.83 486.095 355.059 484.568C354.287 483.04 354.842 481.176 356.322 480.319Z"/><path fill="#040303" transform="scale(0.952378 0.952378)" d="M651.788 477.726C654.719 476.839 657.821 478.46 658.766 481.373C659.712 484.286 658.153 487.42 655.26 488.424C653.336 489.091 651.202 488.667 649.679 487.314C648.157 485.961 647.486 483.891 647.923 481.902C648.36 479.913 649.838 478.316 651.788 477.726Z"/><path fill="#FEFEFD" transform="scale(0.952378 0.952378)" d="M651.74 480.34C653.286 479.443 655.265 479.94 656.203 481.461C657.142 482.981 656.7 484.973 655.206 485.953C654.202 486.612 652.92 486.673 651.858 486.113C650.796 485.554 650.122 484.462 650.097 483.262C650.073 482.061 650.702 480.943 651.74 480.34Z"/><path fill="#040303" transform="scale(0.952378 0.952378)" d="M880.398 477.703C883.32 476.893 886.358 478.55 887.26 481.446C888.161 484.341 886.599 487.43 883.733 488.421C881.798 489.09 879.651 488.652 878.133 487.279C876.614 485.905 875.963 483.814 876.434 481.821C876.906 479.829 878.424 478.251 880.398 477.703Z"/><path fill="#FEFEFD" transform="scale(0.952378 0.952378)" d="M880.644 479.891C882.345 479.239 884.255 480.071 884.936 481.761C885.617 483.451 884.818 485.375 883.14 486.085C882.028 486.555 880.75 486.389 879.795 485.651C878.841 484.912 878.359 483.716 878.535 482.522C878.711 481.328 879.517 480.322 880.644 479.891Z"/><path fill="#040303" transform="scale(0.952378 0.952378)" d="M269.742 477.858C272.566 476.681 275.812 477.983 277.039 480.785C278.267 483.586 277.024 486.855 274.246 488.133C272.402 488.981 270.245 488.768 268.604 487.576C266.962 486.384 266.092 484.399 266.328 482.384C266.564 480.369 267.87 478.638 269.742 477.858Z"/><path fill="#FEFEFD" transform="scale(0.952378 0.952378)" d="M270.426 479.329C275.443 479.878 275.897 482.025 273.645 486.518C268.257 486.458 267.814 483.511 270.426 479.329Z"/><path fill="#040303" transform="scale(0.952378 0.952378)" d="M695.893 477.739C698.792 476.746 701.951 478.269 702.98 481.155C704.009 484.042 702.526 487.22 699.652 488.284C697.761 488.985 695.639 488.614 694.098 487.314C692.556 486.014 691.833 483.986 692.205 482.003C692.576 480.021 693.985 478.392 695.893 477.739Z"/><path fill="#FEFEFD" transform="scale(0.952378 0.952378)" d="M696.983 479.917C698.118 479.681 699.293 480.073 700.058 480.944C700.823 481.816 701.061 483.031 700.68 484.126C700.299 485.221 699.359 486.027 698.218 486.235C696.484 486.552 694.818 485.416 694.48 483.686C694.142 481.957 695.258 480.277 696.983 479.917Z"/><path fill="#040303" transform="scale(0.952378 0.952378)" d="M676.31 913.786C678.171 912.951 680.341 913.212 681.95 914.465C683.56 915.717 684.345 917.757 683.992 919.766C683.639 921.774 682.205 923.424 680.265 924.052C677.481 924.955 674.478 923.523 673.426 920.792C672.374 918.061 673.641 914.985 676.31 913.786Z"/><path fill="#FEFEFD" transform="scale(0.952378 0.952378)" d="M676.726 915.926C678.28 914.973 680.313 915.462 681.263 917.018C682.213 918.574 681.72 920.606 680.162 921.553C678.608 922.498 676.583 922.006 675.635 920.454C674.688 918.902 675.176 916.876 676.726 915.926Z"/><path fill="#040303" transform="scale(0.952378 0.952378)" d="M774.551 477.487C778.17 477.487 783.403 476.878 784.122 481.726C784.506 484.317 783.869 485.281 782.434 487.311C779.195 488.789 778.309 488.479 774.657 488.436C774.676 484.759 774.755 481.163 774.551 477.487Z"/><path fill="#FEFEFD" transform="scale(0.952378 0.952378)" d="M777.33 479.194L778.282 479.465C781.911 480.549 782.26 482.299 780.874 485.781C775.499 487.03 777.095 485.103 777.33 479.194Z"/><path fill="#040303" transform="scale(0.952378 0.952378)" d="M292.843 913.145C299.62 913.125 305.088 914.589 300.737 922.762L300.197 923.028C297.458 924.405 295.976 924.157 292.799 924.512C292.816 920.734 292.75 916.909 292.843 913.145Z"/><path fill="#FEFEFD" transform="scale(0.952378 0.952378)" d="M295.406 914.759C299.848 915.842 300.276 916.721 298.903 921.388C298.561 921.448 298.219 921.514 297.879 921.587C296.269 921.946 295.028 922.112 295.138 920.042L295.406 914.759Z"/><path fill="#4A8167" transform="scale(0.952378 0.952378)" d="M258.718 947.027C257.515 945.305 256.737 943.683 257.252 941.582C258.489 936.534 261.78 939.514 264.308 938.677C266.951 937.802 265.569 948.424 264.81 949.32C263.615 950.731 257.843 952.076 257.893 948.692C258.182 948.127 258.457 947.606 258.718 947.027Z"/><path fill="#EDF5EB" transform="scale(0.952378 0.952378)" d="M258.718 947.027C266.665 946.548 263.043 948.465 257.893 948.692C258.182 948.127 258.457 947.606 258.718 947.027Z"/><path fill="#FEFEFD" transform="scale(0.952378 0.952378)" d="M260.908 940.477C261.726 940.294 262.581 940.565 263.143 941.187C263.706 941.81 263.89 942.686 263.626 943.483C263.361 944.279 262.689 944.871 261.866 945.033C260.616 945.278 259.401 944.474 259.139 943.228C258.877 941.981 259.665 940.756 260.908 940.477Z"/><path fill="#040303" transform="scale(0.952378 0.952378)" d="M796.461 913.272C797.763 913.322 801.245 913.352 802.23 913.64C803.535 914.018 804.622 914.926 805.226 916.144C806.121 917.925 805.747 919.966 805.011 921.721L804.734 922.41C793.99 927.56 796.386 921.756 796.461 913.272Z"/><path fill="#FEFEFD" transform="scale(0.952378 0.952378)" d="M798.603 915.199C802.796 915.89 804.727 916.834 802.644 921.226C796.999 922.596 798.527 921.25 798.603 915.199Z"/><path fill="#4A8167" transform="scale(0.952378 0.952378)" d="M318.073 511.71C317.664 508.237 316.01 501.865 323.152 503.814C324.404 504.155 326.201 501.682 325.727 504.733C325.317 507.039 326.502 512.494 324.539 514.056C322.407 515.754 317.69 516.383 317.725 512.384L318.073 511.71Z"/><path fill="#EDF5EB" transform="scale(0.952378 0.952378)" d="M318.073 511.71L319.609 511.823C320.483 511.879 322.505 511.509 322.944 511.779C323.294 512.574 322.108 513.559 321.514 513.744C320.661 514.01 318.66 512.744 317.725 512.384L318.073 511.71Z"/><path fill="#FEFEFD" transform="scale(0.952378 0.952378)" d="M320.218 505.799C320.892 505.335 321.764 505.27 322.499 505.628C323.235 505.987 323.72 506.714 323.77 507.53C323.82 508.347 323.426 509.128 322.739 509.573C321.698 510.247 320.307 509.961 319.618 508.929C318.929 507.897 319.196 506.503 320.218 505.799Z"/><path fill="#040303" transform="scale(0.952378 0.952378)" d="M315.536 913.058C317.504 913.072 321.194 912.785 322.763 913.948C326.531 916.743 321.611 919.955 322.63 921.509C324.009 923.613 324.879 923.71 322.156 924.765C321.425 923.783 319.915 920.82 319 920.681C317.042 920.384 319.012 923.943 317.011 924.354C314.339 924.903 315.496 914.834 315.536 913.058Z"/><path fill="#FEFEFD" transform="scale(0.952378 0.952378)" d="M318.195 915.862C318.564 915.321 319.196 915.019 319.849 915.074C320.502 915.128 321.075 915.53 321.349 916.125C321.623 916.721 321.555 917.417 321.172 917.949C320.59 918.755 319.469 918.945 318.654 918.374C317.84 917.803 317.635 916.684 318.195 915.862Z"/><path fill="#040303" transform="scale(0.952378 0.952378)" d="M292.908 477.676C294.907 477.665 298.984 477.324 300.418 478.583C301.263 479.325 301.442 479.967 301.54 481C301.805 483.294 300.8 483.409 299.901 484.983C299.424 485.818 303.162 488.046 300.717 488.523C303.123 488.054 296.059 489.313 299.351 488.755C299.151 488.453 296.673 484.56 296.216 484.672C293.616 485.315 298.183 488.945 293.092 488.184C292.634 488.115 292.823 479.191 292.908 477.676Z"/><path fill="#FEFEFD" transform="scale(0.952378 0.952378)" d="M295.588 480.346C296.202 479.505 297.379 479.312 298.229 479.915C299.079 480.517 299.288 481.69 298.698 482.549C298.308 483.115 297.644 483.428 296.96 483.368C296.275 483.307 295.676 482.883 295.392 482.257C295.108 481.632 295.183 480.901 295.588 480.346Z"/><path fill="#040303" transform="scale(0.952378 0.952378)" d="M238.484 913.32C240.499 913.307 244.642 912.823 246.249 914.363C247.581 915.422 247.237 918.281 245.905 919.207C242.989 921.233 248.02 922.174 246.551 924.254L246.163 924.821C244.764 923.892 241.704 920.378 241.347 920.445C240.393 921.243 241.708 923.911 240.051 924.303C238.821 924.595 238.438 923.241 238.446 922.263L238.484 913.32Z"/><path fill="#FEFEFD" transform="scale(0.952378 0.952378)" d="M241.195 915.855C241.739 915.112 242.765 914.914 243.546 915.402C244.328 915.89 244.6 916.898 244.171 917.714C243.864 918.298 243.256 918.661 242.596 918.654C241.937 918.648 241.336 918.273 241.041 917.682C240.745 917.092 240.805 916.387 241.195 915.855Z"/><path fill="#4A8167" transform="scale(0.952378 0.952378)" d="M315.61 938.141C320.671 940.869 317.495 938.085 320.474 938.502C324.946 939.127 325.957 944.65 321.88 947.282L321.094 947.812C320.481 947.524 318.704 946.524 318.084 946.646C317.338 947.342 318.165 949.056 317.469 950.005C317.042 950.586 315.786 950.384 315.755 950.033C315.444 946.49 315.42 941.697 315.61 938.141Z"/><path fill="#FEFEFD" transform="scale(0.952378 0.952378)" d="M318.767 940.932C319.944 940.266 321.437 940.686 322.095 941.867C322.752 943.048 322.322 944.539 321.136 945.188C319.962 945.831 318.489 945.406 317.838 944.236C317.187 943.066 317.602 941.591 318.767 940.932Z"/><path fill="#51886C" transform="scale(0.952378 0.952378)" d="M263.404 502.822C265.982 503.428 269.483 502.889 270.791 504.207C273.667 507.105 271.558 510.219 269.715 512.14C269.268 512.105 266.33 511.702 266.112 511.794C265.39 512.102 265.976 513.792 265.467 514.204C264.445 515.033 263.416 514.685 263.44 513.255C263.483 509.777 263.471 506.299 263.404 502.822Z"/><path fill="#FEFEFD" transform="scale(0.952378 0.952378)" d="M266.816 504.822C270.186 506.069 270.223 507.028 268.853 510.371C265.29 509.592 264.907 508.09 266.816 504.822Z"/><path fill="#040303" transform="scale(0.952378 0.952378)" d="M714.056 477.442C714.384 477.498 716.606 477.646 716.697 478.114C717.226 480.853 716.784 484.199 716.89 487.016C716.919 487.764 716.301 488.732 715.472 488.34C713.792 489.006 714.822 482.023 714.313 482.228C711.389 483.407 712.483 488.127 708.631 481.632C708.599 482.734 708.797 486.919 708.274 487.854C707.82 488.665 706.157 488.626 706.267 487.022C706.447 484.385 705.663 480.442 706.496 477.998C706.587 477.726 707.776 477.725 708.011 477.787C709.773 477.94 710.069 479.943 710.944 481.113C711.37 481.683 711.898 481.106 712.181 480.726L712.173 480.701C712.779 479.602 713.407 478.516 714.056 477.442Z"/><path fill="#040303" transform="scale(0.952378 0.952378)" d="M260.746 912.84C264.559 913.813 263.479 913.925 265.727 917.468C265.973 917.137 270.023 910.516 271.123 914.205C271.255 914.649 272.203 926.71 269.284 924.043C268.638 923.452 268.802 920.333 268.769 919.382C268.84 918.872 268.981 918.484 268.737 918.065C267.874 917.873 266.438 921.221 265.686 920.734C264.83 920.179 263.59 917.923 262.939 916.979C262.891 918.486 262.856 919.994 262.832 921.501C262.818 923.127 262.234 925.576 260.789 923.921C260.211 923.259 260.599 914.199 260.746 912.84Z"/><path fill="#4A8167" transform="scale(0.952378 0.952378)" d="M741.678 947.12C741.386 943.721 741.382 938.94 741.651 935.575C741.709 934.845 743.762 934.35 743.757 936.918C744.266 941.628 748.786 935.63 749.994 941.743C751.264 948.164 744.849 946.885 741.678 947.12Z"/><path fill="#4A8167" transform="scale(0.952378 0.952378)" d="M741.678 947.12C741.386 943.721 741.382 938.94 741.651 935.575C741.709 934.845 743.762 934.35 743.757 936.918C742.958 939.124 743.607 938.317 743.811 940.451C743.82 942.132 743.852 943.607 743.929 945.293C743.113 946.039 742.564 946.449 741.678 947.12Z"/><path fill="#FEFEFD" transform="scale(0.952378 0.952378)" d="M743.811 940.451C749.277 939.939 749.577 945.597 743.929 945.293C743.852 943.607 743.82 942.132 743.811 940.451Z"/><path fill="#040303" transform="scale(0.952378 0.952378)" d="M774.493 913.164C776.218 913.205 780.417 913.041 781.703 914.093C785.534 917.229 780.281 919.293 781.634 921.374C783.106 923.637 783.192 923.647 780.886 924.293C780.415 923.547 778.56 919.747 777.565 920.162C776.106 920.771 778.285 925.087 774.689 923.688C774.126 923.469 774.434 914.129 774.493 913.164Z"/><path fill="#FEFEFD" transform="scale(0.952378 0.952378)" d="M777.104 915.875C777.643 915.128 778.666 914.923 779.45 915.405C780.235 915.887 780.514 916.893 780.091 917.71C779.788 918.295 779.183 918.662 778.525 918.66C777.866 918.658 777.264 918.287 776.965 917.701C776.665 917.114 776.719 916.409 777.104 915.875Z"/><path fill="#040303" transform="scale(0.952378 0.952378)" d="M208.194 477.146C212.208 478.141 212.46 480.553 214.855 484.107C214.917 483.119 214.779 478.299 215.351 477.835C218.821 475.021 217.43 487.089 217.276 488.845C213.41 487.648 213.048 485.244 210.6 481.852C210.559 482.852 210.739 487.007 210.266 487.854C209.873 488.558 208.018 488.778 208.033 487.259C208.065 484.004 207.973 480.425 208.194 477.146Z"/><path fill="#51886C" transform="scale(0.952378 0.952378)" d="M282.263 511.995C277.734 507.834 279.015 502.411 284.749 503.471L286.63 503.828C289.515 502.232 288.358 512.278 286.997 514.486C286.237 513.964 286.068 513.92 285.145 513.473C285.367 512.719 285.549 512.115 285.815 511.371C284.629 511.569 283.434 511.738 282.263 511.995Z"/><path fill="#4A8167" transform="scale(0.952378 0.952378)" d="M286.63 503.828C289.515 502.232 288.358 512.278 286.997 514.486C286.237 513.964 286.068 513.92 285.145 513.473C285.367 512.719 285.549 512.115 285.815 511.371L285.763 510.604C285.683 509.534 285.692 509.593 285.907 508.49C286.42 507.429 286.017 506.152 284.987 505.577C285.69 504.896 285.997 504.569 286.63 503.828Z"/><path fill="#FEFEFD" transform="scale(0.952378 0.952378)" d="M285.907 508.49C285.51 509.312 284.652 509.808 283.742 509.742C282.832 509.676 282.054 509.062 281.779 508.192C281.505 507.322 281.789 506.372 282.496 505.796C283.203 505.219 284.191 505.133 284.987 505.577C286.017 506.152 286.42 507.429 285.907 508.49Z"/><path fill="#51886C" transform="scale(0.952378 0.952378)" d="M690.025 938.435C692.902 938.468 694.121 938.545 697.008 938.411C697.013 940.189 697.841 946.649 696.039 947.004C693.849 947.087 688.776 948.202 688.531 944.758C688.323 941.828 688.311 940.71 690.025 938.435Z"/><path fill="#FEFEFD" transform="scale(0.952378 0.952378)" d="M691.241 940.148C695.343 940.662 694.843 941.45 694.235 945.85C690.188 945.083 690.463 944.158 691.241 940.148Z"/><path fill="#040303" transform="scale(0.952378 0.952378)" d="M287.346 919.543C287.357 918.135 287.142 913.949 287.529 913.508C291.135 909.404 289.638 923.07 289.457 924.628C286.745 923.323 284.957 920.219 282.967 917.632C282.895 919.273 283.241 922.994 282.099 924.237C281.669 924.706 280.81 924.119 280.756 923.846C280.222 921.184 280.15 915.61 280.863 913.056C284.123 913.711 284.58 916.051 287.346 919.543Z"/><path fill="#040303" transform="scale(0.952378 0.952378)" d="M373.962 477.257C374.825 477.559 376.02 477.632 376.046 478.726C376.313 490.262 376.14 492.59 369.113 481.46C369.04 483.761 368.996 486.063 368.981 488.364C368.79 488.389 366.909 488.704 366.84 488.101C366.4 484.258 366.46 479.582 367.17 475.778C370.046 479.081 370.989 480.61 373.461 484.225C373.571 481.439 373.342 479.918 373.962 477.257Z"/><path fill="#040303" transform="scale(0.952378 0.952378)" d="M720.292 477.552C721.604 477.568 726.913 477.431 727.452 478.143C731.255 483.178 727.345 484.804 724 485.443C721.208 484.632 723.84 488.02 721.3 488.613C719.36 487.66 720.235 479.956 720.292 477.552Z"/><path fill="#FEFEFD" transform="scale(0.952378 0.952378)" d="M722.954 480.352C723.357 479.784 724.042 479.486 724.733 479.581C725.423 479.675 726.004 480.146 726.239 480.802C726.474 481.458 726.325 482.191 725.851 482.702C725.182 483.425 724.067 483.505 723.302 482.885C722.536 482.264 722.384 481.156 722.954 480.352Z"/><path fill="#040303" transform="scale(0.952378 0.952378)" d="M890.713 477.121C893.646 478.229 895.156 481.31 897.22 483.862C897.185 482.77 896.732 478.335 897.61 477.756C901.1 475.457 899.433 487.831 898.982 489.102C896.048 487.246 895.123 484.99 892.762 482.089C892.764 483.007 892.898 487.654 892.366 488.165C889.245 491.165 890.54 478.54 890.713 477.121Z"/><path fill="#040303" transform="scale(0.952378 0.952378)" d="M596.902 477.501C599.715 477.506 608.299 476.967 604.795 483.189C604.267 484.133 603.369 484.814 602.318 485.067C601.713 485.212 601.166 485.328 600.552 485.486C600.119 485.328 599.782 485.102 599.414 485.272C598.859 486.126 599.869 488.454 598.276 488.681C598.13 488.737 596.981 488.353 596.947 488.188C596.557 486.262 596.872 479.228 596.902 477.501Z"/><path fill="#FEFEFD" transform="scale(0.952378 0.952378)" d="M599.559 479.853C600.31 479.141 601.492 479.162 602.217 479.899C602.943 480.637 602.943 481.82 602.218 482.558C601.738 483.048 601.031 483.24 600.369 483.061C599.707 482.882 599.193 482.359 599.025 481.694C598.857 481.029 599.061 480.325 599.559 479.853Z"/><path fill="#4A8167" transform="scale(0.952378 0.952378)" d="M726.862 938.408C727.599 938.398 733.193 938.421 733.095 939.255C732.917 940.776 735.08 948.467 732.018 946.531C731.554 946.63 729.478 947.2 729.275 947.195C723.304 947.063 724.368 941.419 726.862 938.408Z"/><path fill="#FEFEFD" transform="scale(0.952378 0.952378)" d="M728.973 939.724C731.382 941.287 732.204 943.165 729.972 945.436L729.347 946.109L729.173 945.933C727.113 943.883 726.071 942.748 728.349 940.389L728.973 939.724Z"/><path fill="#040303" transform="scale(0.952378 0.952378)" d="M607.823 477.57C610.054 477.529 613.607 477.09 615.468 478.561C617.438 480.12 616.685 484.481 613.834 484.551L612.839 484.704C607.152 485.522 613.231 489.284 608.216 488.257C607.97 488.206 607.936 486.951 607.938 486.75C607.966 483.69 607.928 480.629 607.823 477.57Z"/><path fill="#FEFEFD" transform="scale(0.952378 0.952378)" d="M610.868 479.897C611.551 479.32 612.552 479.323 613.232 479.905C613.911 480.487 614.069 481.476 613.604 482.24C613.228 482.857 612.523 483.195 611.807 483.101C611.09 483.006 610.497 482.498 610.293 481.805C610.09 481.111 610.315 480.363 610.868 479.897Z"/><path fill="#4A8167" transform="scale(0.952378 0.952378)" d="M775.4 939.08C777.551 938.323 778.562 937.775 778.055 940.752C777.788 942.315 778.598 945.663 777.679 947.045C777.311 947.599 776.101 947.098 775.66 946.931C774.47 946.934 773.61 947.525 772.748 947.417C768.899 946.936 768.437 940.649 771.502 938.996C773.141 938.112 773.901 938.809 775.4 939.08Z"/><path fill="#4A8167" transform="scale(0.952378 0.952378)" d="M775.4 939.08C777.551 938.323 778.562 937.775 778.055 940.752C777.788 942.315 778.598 945.663 777.679 947.045C777.311 947.599 776.101 947.098 775.66 946.931C775.446 946.26 775.22 945.594 774.98 944.931C775.642 944.559 776.08 943.886 776.151 943.13C776.222 942.373 775.918 941.63 775.337 941.141C775.296 940.102 775.26 940.103 775.4 939.08Z"/><path fill="#FEFEFD" transform="scale(0.952378 0.952378)" d="M774.98 944.931C773.958 945.506 772.668 945.226 771.976 944.28C771.284 943.334 771.407 942.02 772.264 941.22C773.121 940.419 774.441 940.386 775.337 941.141C775.918 941.63 776.222 942.373 776.151 943.13C776.08 943.886 775.642 944.559 774.98 944.931Z"/><path fill="#4A8167" transform="scale(0.952378 0.952378)" d="M335.329 938.418C337.294 938.495 339.314 939.302 340.811 938.671C341.846 938.234 342.998 947.307 340.496 946.745C337.722 947.419 334.319 948.474 333.482 944.008C333.004 941.455 333.728 940.259 335.329 938.418Z"/><path fill="#FEFEFD" transform="scale(0.952378 0.952378)" d="M336.223 940.203C340.253 940.478 340.113 942.314 338.741 945.803C335.096 945.109 335.035 943.525 336.223 940.203Z"/><path fill="#4A8167" transform="scale(0.952378 0.952378)" d="M293.19 503.724C295.444 502.625 298.163 503.553 299.276 505.801C300.388 508.049 299.476 510.774 297.234 511.899C294.974 513.033 292.222 512.112 291.101 509.845C289.98 507.579 290.917 504.833 293.19 503.724Z"/><path fill="#FEFEFD" transform="scale(0.952378 0.952378)" d="M294.947 505.351C296.208 505.199 297.366 506.067 297.573 507.321C297.78 508.574 296.963 509.769 295.72 510.03C294.866 510.21 293.982 509.906 293.419 509.24C292.855 508.574 292.703 507.652 293.022 506.839C293.341 506.027 294.08 505.456 294.947 505.351Z"/><path fill="#51886C" transform="scale(0.952378 0.952378)" d="M698.697 499.846C701.191 501.481 707.748 515.274 702.292 511.003C701.884 510.683 701.874 509.942 700.459 509.088C699.875 509.191 699.288 509.281 698.7 509.358C695.515 509.719 695.462 513.488 693.743 511.301C693.434 510.908 698.023 500.869 698.697 499.846Z"/><path fill="#FEFEFD" transform="scale(0.952378 0.952378)" d="M699.108 503.825C700.565 505.342 700.587 506.257 699.891 508.11C697.129 506.86 697.74 506.677 699.108 503.825Z"/><path fill="#51886C" transform="scale(0.952378 0.952378)" d="M241.608 938.789C243.885 937.789 246.541 938.818 247.55 941.091C248.56 943.363 247.542 946.024 245.274 947.043C242.992 948.068 240.312 947.042 239.296 944.756C238.281 942.47 239.318 939.794 241.608 938.789Z"/><path fill="#FEFEFD" transform="scale(0.952378 0.952378)" d="M242.854 939.659C245.361 941.133 246.28 942.409 244.497 945.004L243.937 945.856C240.485 944.636 241.081 942.128 242.854 939.659Z"/><path fill="#040303" transform="scale(0.952378 0.952378)" d="M249.694 913.457C252.261 913.306 255.195 913.139 257.747 913.433C258.414 913.646 258.525 914.257 258.171 914.77C257.28 916.088 252.777 914.645 252.331 915.956C251.185 919.323 258.758 915.487 256.973 919.186C256.711 919.728 253.307 919.604 252.645 919.628C250.232 922.963 256.343 921.125 257.198 921.983C258.748 923.54 257.129 924.054 255.752 924.082C253.716 924.111 251.681 924.17 249.647 924.259C249.668 920.665 249.604 917.041 249.694 913.457Z"/><path fill="#040303" transform="scale(0.952378 0.952378)" d="M862.2 482.585C865.821 488.101 860.207 489.992 855.756 487.718C854.277 486.963 855.388 484.709 856.86 485.817C858.914 487.653 863.22 485.516 859.241 484.083C847.66 479.911 862.611 473.99 862.237 480.03L862.182 480.827L862.2 482.585Z"/><path fill="#FEFEFD" transform="scale(0.952378 0.952378)" d="M862.2 482.585C860.994 482.14 857.189 481.544 857.517 479.917C858.773 479.123 860.065 479.937 861.238 480.481L862.182 480.827L862.2 482.585Z"/><path fill="#040303" transform="scale(0.952378 0.952378)" d="M587.116 477.358C587.335 477.38 589.749 477.469 589.86 477.72C591.335 481.027 592.824 484.695 593.886 488.143C593.751 488.707 592.249 488.594 592.003 488.441C591.102 487.882 590.865 486.81 590.407 485.745C589.475 485.812 586.416 485.583 586.287 486.894C586.133 488.463 584.635 489.071 583.317 488.047C583.064 487.851 583.908 486.308 584.049 485.988C585.285 483.197 586.181 480.264 587.116 477.358Z"/><path fill="#FEFEFD" transform="scale(0.952378 0.952378)" d="M588.526 480.818C589.174 482.117 590.053 482.768 588.686 483.399C586.786 483.525 587.805 482.419 588.526 480.818Z"/><path fill="#040303" transform="scale(0.952378 0.952378)" d="M741.627 477.515C744.168 477.539 746.915 477.381 749.4 477.666C749.822 477.715 750.126 478.684 749.759 479.065C748.676 480.192 746.164 479.402 744.818 479.711C744.368 479.815 743.492 480.837 743.969 481.222C745.161 482.463 746.966 481.477 748.479 482.02C749.294 482.313 749.156 483.494 748.778 483.673C747.634 484.217 745.142 484.041 743.749 484.129C743.832 484.525 743.914 484.92 743.997 485.315C744.439 487.254 748.218 485.571 749.48 486.546C750.454 487.298 749.643 488.491 748.501 488.479L741.553 488.467C741.591 484.81 741.555 481.173 741.627 477.515Z"/><path fill="#4A8167" transform="scale(0.952378 0.952378)" d="M301.051 938.794C303.282 937.784 305.91 938.77 306.926 940.999C307.942 943.228 306.962 945.859 304.735 946.88C302.501 947.905 299.859 946.921 298.839 944.684C297.82 942.447 298.811 939.807 301.051 938.794Z"/><path fill="#FEFEFD" transform="scale(0.952378 0.952378)" d="M302.343 940.436C303.239 940.216 304.183 940.51 304.793 941.202C305.404 941.893 305.579 942.866 305.25 943.727C304.92 944.589 304.139 945.195 303.223 945.302C301.924 945.453 300.731 944.568 300.499 943.282C300.266 941.995 301.074 940.749 302.343 940.436Z"/><path fill="#040303" transform="scale(0.952378 0.952378)" d="M304.905 913.216L310.004 913.264C310.626 913.266 313.801 912.979 312.847 914.782C312.029 916.326 306.779 914.098 307.329 916.938C308.604 918.329 313.332 916.512 311.803 919.373C311.49 919.959 307.921 920.031 306.79 920.2C309.08 924.743 313.888 920.039 312.503 924.046C312.327 924.555 305.879 924.367 304.897 924.365C304.83 920.711 304.747 916.857 304.905 913.216Z"/><path fill="#040303" transform="scale(0.952378 0.952378)" d="M763.744 477.526L766.501 477.523C767.9 477.533 771.538 476.966 772.067 478.413C771.289 480.919 765.323 478.08 766.224 481.212C766.67 482.761 770.839 480.978 771.599 482.63C771.478 483.754 770.744 483.883 769.744 483.898L766.178 483.973C766.227 489.415 771.362 483.976 772.444 487.478C772.087 488.186 771.768 488.443 770.989 488.443L763.753 488.471C763.702 484.823 763.698 481.175 763.744 477.526Z"/><path fill="#4A8167" transform="scale(0.952378 0.952378)" d="M740.345 503.842C741.774 503.107 743.489 503.204 744.825 504.096C746.162 504.989 746.909 506.536 746.778 508.137C746.646 509.739 745.656 511.143 744.192 511.805C742.006 512.794 739.43 511.86 738.386 509.7C737.342 507.539 738.211 504.94 740.345 503.842Z"/><path fill="#FEFEFD" transform="scale(0.952378 0.952378)" d="M741.766 505.509C742.978 505.165 744.244 505.847 744.623 507.048C745.003 508.25 744.358 509.535 743.168 509.949C742.367 510.228 741.478 510.05 740.846 509.483C740.215 508.916 739.942 508.051 740.133 507.225C740.324 506.398 740.95 505.741 741.766 505.509Z"/><path fill="#4A8167" transform="scale(0.952378 0.952378)" d="M195.783 938.692C197.354 938.395 198.962 938.971 199.987 940.197C201.013 941.422 201.295 943.107 200.725 944.6C200.156 946.093 198.823 947.162 197.242 947.393C194.866 947.741 192.648 946.125 192.251 943.757C191.854 941.389 193.424 939.138 195.783 938.692Z"/><path fill="#FEFEFD" transform="scale(0.952378 0.952378)" d="M195.13 940.923C195.866 940.435 196.809 940.388 197.59 940.8C198.37 941.213 198.864 942.018 198.876 942.901C198.888 943.783 198.418 944.602 197.649 945.036C196.518 945.675 195.084 945.303 194.405 944.195C193.726 943.087 194.047 941.64 195.13 940.923Z"/><path fill="#040303" transform="scale(0.952378 0.952378)" d="M237.261 477.106C240.884 478.378 238.589 478.646 239.68 481.667C239.793 481.981 242.416 482.071 242.893 481.949C244.48 481.542 243.295 478.867 244.064 477.816C244.577 477.213 246.602 477.469 246.255 478.751C246.153 482.17 246.181 485.547 246.136 488.922C246.106 488.915 243.98 488.512 243.83 488.161C242.692 485.488 245.989 483.047 239.786 484.015C239.114 484.12 239.736 487.252 239.222 487.965C238.348 489.179 236.636 488.225 236.976 486.748C237.133 483.392 236.763 480.432 237.261 477.106Z"/><path fill="#040303" transform="scale(0.952378 0.952378)" d="M320.799 477.73C322.285 477.7 327.463 477.257 328.864 478.062C329.036 478.161 329.186 478.771 329.086 478.986C328.277 480.722 325.008 479.257 323.563 480.129C323.325 480.271 323.16 480.509 323.11 480.781C322.701 482.916 327.392 481.236 328.659 482.606C328.85 484.388 324.238 483.845 323.11 483.883C323.118 484.349 323.004 485.813 323.383 486.098C324.535 486.969 327.189 485.946 328.686 486.632C329.417 486.967 329.118 488.155 328.926 488.203C326.705 488.752 323.075 488.482 320.671 488.478C320.679 484.946 320.625 481.236 320.799 477.73Z"/><path fill="#4A8167" transform="scale(0.952378 0.952378)" d="M727.095 510.121C725.897 512.027 723.45 512.716 721.433 511.714C719.417 510.711 718.488 508.344 719.284 506.238C720.081 504.132 722.343 502.972 724.518 503.554C726.693 504.137 728.073 506.273 727.71 508.495C727.616 509.073 727.407 509.625 727.095 510.121Z"/><path fill="#EDF5EB" transform="scale(0.952378 0.952378)" d="M727.095 510.121C725.116 510.2 722.945 511.299 721.567 509.596C721.689 507.736 726.448 508.433 727.71 508.495C727.616 509.073 727.407 509.625 727.095 510.121Z"/><path fill="#EDF5EB" transform="scale(0.952378 0.952378)" d="M722.253 504.728C724.381 505.235 724.996 505.229 724.75 507.51C722.897 507.165 721.037 507.495 721.996 505.342L722.253 504.728Z"/><path fill="#040303" transform="scale(0.952378 0.952378)" d="M571.573 477.114C575.806 478.449 572.114 481.489 574.284 481.896C579.85 483.214 577.286 478.931 578.104 478.028C581.744 474.008 580.498 487.194 580.495 488.877C574.667 487.345 581.128 484.603 576.274 484.024C571.206 483.42 575.553 487.822 572.495 488.48C570.386 488.934 571.478 478.61 571.573 477.114Z"/><path fill="#4A8167" transform="scale(0.952378 0.952378)" d="M772.806 509.884C771.349 512.038 768.612 513.066 766.559 511.739C759.798 507.365 771.273 496.846 773.071 508.905L772.806 509.884Z"/><path fill="#EDF5EB" transform="scale(0.952378 0.952378)" d="M773.071 508.905L772.806 509.884C771.633 509.952 767.086 511.258 767.06 509.169C767.965 508.062 771.768 508.761 773.071 508.905Z"/><path fill="#EDF5EB" transform="scale(0.952378 0.952378)" d="M767.462 505.414L768.045 505.408C770.025 505.368 770.493 505.42 770.282 507.457C768.006 507.137 766.786 507.712 767.462 505.414Z"/><path fill="#040303" transform="scale(0.952378 0.952378)" d="M804.804 477.117C809.467 478.641 805.17 481.601 807.979 482.001C811.807 482.546 811.573 481.457 811.547 478.249C811.543 477.834 812.844 477.048 813.242 477.68C814.138 479.915 813.801 486.867 813.801 488.982C810.092 488.12 812 487.713 811.476 484.449C811.328 483.524 807.815 483.784 807.306 484.128C806.697 484.538 807.242 487.23 806.903 487.976C806.537 489.201 804.83 488.401 804.82 488.33C804.394 485.392 804.483 480.057 804.804 477.117Z"/><path fill="#040303" transform="scale(0.952378 0.952378)" d="M785.656 913.389C787.358 913.36 794.056 912.437 794.028 914.622C792.814 916.398 788.12 914.333 788.092 916.513C788.065 918.729 794.762 915.948 792.724 919.21C792.479 919.602 788.851 919.496 788.195 919.516C788.103 925.134 794.464 919.454 793.714 923.489C793.568 924.272 787.483 924.015 785.702 924.023L785.656 913.389Z"/><path fill="#040303" transform="scale(0.952378 0.952378)" d="M740.928 912.766C745.13 914.208 741.877 916.194 743.286 916.93C744.075 916.646 745.55 914.119 746.758 913.549C747.612 913.145 749.609 913.112 748.408 914.411L745.203 917.858C746.285 919.306 747.345 920.769 748.383 922.249C749.576 923.929 748.936 924.085 747.224 923.967C745.729 923.863 744.187 919.834 743.231 920.237C742.719 920.962 743.234 922.672 742.684 923.696C742.065 924.849 740.432 923.941 740.433 923.271C740.438 920.24 740.004 915.6 740.928 912.766Z"/><path fill="#040303" transform="scale(0.952378 0.952378)" d="M844.557 477.594C846.898 477.596 849.575 477.54 851.922 477.701C852.402 477.734 852.818 478.827 852.489 479.099C851.298 480.086 849.188 479.212 847.802 479.679C846.986 479.93 846.879 481.059 847.25 481.62C847.953 482.684 850.724 481.716 851.693 482.166C853.018 482.781 852.146 484.026 851.004 483.961C849.559 483.895 848.041 484.044 846.607 484.255C848.165 489.355 850.976 484.387 853.288 487.791L853.212 488.138C852.202 488.728 846.002 488.501 844.487 488.499L844.557 477.594Z"/><path fill="#040303" transform="scale(0.952378 0.952378)" d="M280.957 477.212C286.113 479.078 280.179 485.211 284.484 486.511C287.963 487.667 287.358 481.883 287.14 480.255C286.681 476.818 289.672 476.569 289.536 479.375C289.527 481.279 290.076 487.034 288.563 487.737C278.99 492.178 279.934 481.716 280.957 477.212Z"/><path fill="#040303" transform="scale(0.952378 0.952378)" d="M817.246 477.562C819.419 477.593 821.614 477.607 823.772 477.696C824.269 477.716 825.297 478.353 824.929 478.894C823.983 480.288 821.684 479.437 820.251 479.814C819.4 480.037 819.42 481.021 819.73 481.689C820.758 482.566 822.588 481.679 823.713 482.098C825.158 482.636 824.231 484.188 823.001 484.087C821.819 483.99 820.503 484.123 819.308 484.165C819.906 488.476 821.139 485.417 824.507 486.597C825.515 486.951 825.349 488.673 823.502 488.57C821.752 488.472 819.065 488.584 817.205 488.598L817.246 477.562Z"/><path fill="#040303" transform="scale(0.952378 0.952378)" d="M662.213 477.105C662.342 477.154 663.297 477.49 663.373 477.556C665.061 479.025 663.427 482.976 664.418 484.993C664.615 485.523 665.057 486.081 665.652 486.248C670.495 487.611 667.963 480.402 668.781 478.244C669.286 476.911 670.803 477.237 671.134 478.875C671.137 480.176 671.026 482.959 671.127 484.256C671.504 489.111 665.094 489.831 662.674 486.85C661.378 485.253 661.859 479.396 662.213 477.105Z"/><path fill="#51886C" transform="scale(0.952378 0.952378)" d="M705.892 503.323C709.484 504.056 707.754 506.653 709.292 507.528C710.166 507.168 710.483 504.155 711.574 503.565C712.575 503.026 713.537 507.15 713.79 507.954L714.084 508.857C714.665 507.374 715.439 503.683 717.137 503.368C718.308 503.932 717.514 505.265 717.15 506.115L715.769 509.6C713.154 516.128 711.991 507.894 711.249 507.935C710.768 508.296 708.95 512.459 708.46 513.437C707.714 511.046 705.676 505.519 705.892 503.323Z"/><path fill="#040303" transform="scale(0.952378 0.952378)" d="M686.735 913.115C692.185 914.885 685.086 922.495 692.319 921.687C694.131 921.485 692.918 914.82 693.502 914.014C694.335 912.863 695.563 913.162 695.699 914.875C695.691 916.692 696.109 922.272 694.551 923.066C685.179 927.84 686.334 916.967 686.735 913.115Z"/><path fill="#4A8167" transform="scale(0.952378 0.952378)" d="M710.873 938.49L711.337 938.461C713.821 938.288 717.209 938.114 717.493 942.576C717.611 944.413 711.906 942.95 711.665 943.773C711.172 945.456 713.783 945.537 714.774 945.508L715.724 945.504C717.015 944.818 716.748 946.12 716.616 946.225C711.851 949.999 706.131 944.16 710.139 939.375C710.384 939.08 710.628 938.785 710.873 938.49Z"/><path fill="#EDF5EB" transform="scale(0.952378 0.952378)" d="M712.122 939.751L712.371 939.807C714.17 940.194 714.986 940.344 714.678 942.344C713.084 942.113 710.85 942.509 711.797 940.496L712.122 939.751Z"/><path fill="#040303" transform="scale(0.952378 0.952378)" d="M343.822 477.418C344.234 477.445 350.677 477.934 349.231 480.071C348.354 480.912 344.78 479.242 344.191 480.24C343.221 481.884 348.839 482.135 349.775 484.172C351.041 486.928 348.925 487.982 347.083 489.003C346.633 488.911 340.564 487.959 341.787 485.706C342.348 484.672 345.198 487.158 346.697 486.496C348.522 485.692 346.931 484.465 345.741 484.076C341.179 482.378 340.335 480.836 343.822 477.418Z"/><path fill="#040303" transform="scale(0.952378 0.952378)" d="M227.595 477.512C228.58 477.496 232.82 477.158 233.28 478.418C234.596 482.019 229.476 477.996 228.347 480.352C228.666 481.913 240.301 484.148 230.92 488.813C229.268 488.523 225.281 488.063 226.145 485.416C227.308 484.527 228.923 486.785 230.262 486.473C235.382 485.28 227.733 483.359 227.112 482.859C225.093 481.232 226.309 479.162 227.595 477.512Z"/><path fill="#040303" transform="scale(0.952378 0.952378)" d="M334.348 477.464C336.514 477.681 338.056 477.646 339.279 479.625C338.745 481.27 336.367 479.584 335.73 479.725C329.888 481.017 339.214 482.174 339.542 483.983C340.165 487.414 338.786 487.863 336.163 488.858L335.236 488.704C334.015 488.512 331.038 488.302 331.507 486.267C331.924 484.455 336.543 488.246 337.262 485.692C337.739 483.999 333.197 484.204 331.885 482.017C331.481 481.347 331.393 480.532 331.643 479.791C332.09 478.494 333.232 478.033 334.348 477.464Z"/><path fill="#040303" transform="scale(0.952378 0.952378)" d="M867.602 477.438C869.085 477.492 873.448 477.282 873.52 479.61C872.232 481.041 869.443 478.849 868.557 479.763C867.125 481.242 871.846 482.043 872.971 483.068C873.645 483.687 874.01 484.573 873.967 485.487C873.883 486.949 872.77 487.717 871.738 488.601C870.459 488.602 865.419 488.807 865.443 486.527C867.074 485.008 868.306 486.743 869.755 486.482C875.326 485.477 867.269 482.927 866.918 482.581C864.889 480.578 866.01 479.063 867.602 477.438Z"/><path fill="#4A8167" transform="scale(0.952378 0.952378)" d="M270.491 938.48C273.323 938.403 275.716 938.105 276.543 941.495C277.463 945.272 271.642 942.566 270.406 943.797C270.162 945.477 273.623 945.787 274.505 945.946C275.313 945.663 276.335 945.79 275.659 946.328C273.378 948.145 267.871 947.252 267.988 943.503C268.079 940.568 268.655 940.262 270.491 938.48Z"/><path fill="#EDF5EB" transform="scale(0.952378 0.952378)" d="M271.177 939.741L271.692 939.854C273.705 940.278 274.093 940.36 273.775 942.408C270.751 941.912 269.844 942.577 271.177 939.741Z"/><path fill="#4A8167" transform="scale(0.952378 0.952378)" d="M256.544 502.96C259.251 503.558 261.393 503.986 260.796 507.721C260.579 509.082 256.07 507.595 255.407 509.081C256.176 510.54 259.182 510.188 260.493 510.245C260.056 511.951 259.126 511.747 257.481 511.966C252.258 512.662 250.824 504.94 255.658 503.297L256.544 502.96Z"/><path fill="#EDF5EB" transform="scale(0.952378 0.952378)" d="M255.494 504.81C257.837 504.874 258.126 504.816 259.109 507.006C257.446 507.002 255.177 507.702 255.428 505.54L255.494 504.81Z"/><path fill="#4A8167" transform="scale(0.952378 0.952378)" d="M377.987 938.41C380.528 938.565 383.683 938.784 383.571 942.562C383.508 944.65 378.392 943.009 377.899 943.953C377.24 945.213 379.302 945.655 380.272 945.604L381.888 945.505C382.29 945.532 382.346 945.438 382.557 945.728C382.217 947.676 377.625 947.916 376.305 946.182C374.596 943.936 374.602 941.08 376.842 939.312L377.987 938.41Z"/><path fill="#4A8167" transform="scale(0.952378 0.952378)" d="M762.605 938.376C765.162 938.688 767.275 939.219 767.602 942.271C767.879 944.862 763.209 943.19 762.455 943.927C761.08 945.272 763.877 945.585 764.519 945.581L766.861 945.56C768.405 946.956 764.536 947.401 763.79 947.277C758.124 946.344 757.691 941.571 762.605 938.376Z"/><path fill="#4A8167" transform="scale(0.952378 0.952378)" d="M245.946 502.985C246.706 503.111 247.515 503.222 248.253 503.432C249.153 503.689 249.897 504.323 250.293 505.17C252.912 510.868 244.212 506.156 245.232 509.318C245.514 510.192 248.188 510.14 249.317 510.27C249.931 512.461 246.102 512.054 245.224 511.637C240.815 509.539 241.28 505.06 245.946 502.985Z"/><path fill="#EDF5EB" transform="scale(0.952378 0.952378)" d="M245.82 504.167C247.582 504.79 248.539 505.079 248.125 507.161C245.043 506.718 244.346 507.229 245.82 504.167Z"/><path fill="#040303" transform="scale(0.952378 0.952378)" d="M683.386 477.536C684.604 477.513 685.724 477.444 686.999 477.596C687.624 477.671 690.275 478.952 689.471 479.906C688.166 481.209 686.515 479.416 684.996 479.682C680.749 480.425 681.848 487.936 687.159 486.124L688.118 485.813C689.128 485.623 689.081 485.532 689.789 486.302C689.449 490.423 678.626 488.956 680.111 482.503C680.693 479.979 680.329 479.876 682.658 478.11L683.386 477.536Z"/><path fill="#040303" transform="scale(0.952378 0.952378)" d="M191.665 477.544C192.952 477.557 199.459 477.505 200.061 477.957C201.13 480.661 195.967 479.048 194.732 479.79C193.287 480.659 194.182 482.473 195.739 482.362C197.702 482.222 198.214 482.274 199.247 483.728C198.328 484.18 197.47 484.513 196.499 484.323C192.678 483.328 194.97 487.203 194.089 488.014C190.186 491.606 191.643 478.724 191.665 477.544Z"/><path fill="#040303" transform="scale(0.952378 0.952378)" d="M616.861 477.428C621.856 477.724 620.253 477.502 623.322 481.963C624.468 479.69 624.474 478.125 626.803 477.291L627.694 477.597C627.736 477.608 627.778 477.62 627.82 477.631C628.423 478.543 626.025 481.775 625.48 482.681C623.999 484.607 625.246 489.909 622.468 488.215C621.483 487.614 622.76 485.097 621.345 483.164C619.862 481.139 618.566 479.4 616.861 477.428Z"/><path fill="#4A8167" transform="scale(0.952378 0.952378)" d="M781.267 935.108C784.996 936.764 781.947 938.639 783.366 941.148C783.837 941.98 786.072 938.201 787.725 939.077C788.306 942.255 781.902 939.301 788.289 946.176C788.762 949.736 783.933 944.655 783.529 944.527C782.594 945.059 783.257 945.809 782.8 946.679C782.513 947.225 781.558 947.403 781.245 946.827C780.609 945.659 781.129 943.863 780.993 942.577C780.998 940.042 780.926 937.597 781.267 935.108Z"/><path fill="#51886C" transform="scale(0.952378 0.952378)" d="M307.448 503.124C310.849 504.078 313.857 502.255 314.921 505.274C315.377 506.569 316.243 511.688 313.988 512.132C312.564 511.671 312.935 509.136 312.864 507.893C313.055 506.795 312.844 505.026 311.233 505.39C308.317 505.994 310.327 510.685 309.318 511.825C308.686 512.539 307.421 512.255 307.443 510.748C307.477 508.207 307.478 505.665 307.448 503.124Z"/><path fill="#040303" transform="scale(0.952378 0.952378)" d="M260.432 481.996C260.867 481.214 262.566 477.741 262.653 477.722C267.199 476.718 265.07 478.968 263.636 481.237L263.35 481.703C262.542 483.02 261.526 484.122 261.716 485.747C261.833 486.742 262.039 488.574 260.542 488.527C259.618 488.499 259.363 487.83 259.469 486.998C259.679 484.987 259.563 484.474 258.483 482.911C257.262 481.145 255.952 479.1 254.889 477.296C255.294 477.364 255.702 477.424 256.11 477.477C258.755 477.8 259.026 479.714 260.432 481.996Z"/><path fill="#4A8167" transform="scale(0.952378 0.952378)" d="M680.376 935.693C681.596 935.633 686.388 935.291 687.572 935.759C687.919 935.983 688.015 936.42 688.059 936.737C688.312 938.558 685.478 937.652 685.303 938.161C684.612 940.176 684.98 944.11 684.973 946.421C681.337 950.97 682.748 939.022 682.453 938.447C681.944 937.456 679.182 938.292 678.963 936.82C679.231 936.186 679.75 936.025 680.376 935.693Z"/><path fill="#4A8167" transform="scale(0.952378 0.952378)" d="M234.88 507.43C231.982 519.99 231.569 502.91 232.214 500.712C232.325 500.337 233.326 499.986 233.564 499.932C235.474 500.839 233.605 506.394 235.784 503.651C240.561 497.639 242.695 499.795 236.23 505.399C235.908 506.701 236.102 507.07 234.88 507.43Z"/><path fill="#040303" transform="scale(0.952378 0.952378)" d="M635.89 477.339C636.296 477.383 636.701 477.419 637.108 477.449C640.129 477.654 639.773 479.1 641.536 482.093C641.974 481.291 643.76 477.815 643.936 477.767C648.354 476.577 645.131 480.415 644.537 481.445C642.831 483.986 642.315 484.771 642.325 487.702C642.327 488.092 639.981 488.661 640.285 486.769C640.807 483.517 637.589 480.197 635.89 477.339Z"/><path fill="#040303" transform="scale(0.952378 0.952378)" d="M751.347 477.704C753.854 477.433 756.199 477.409 758.749 477.49C759.656 477.519 761.326 477.149 761.149 478.746C760.975 480.311 758.603 479.252 758.255 479.928C757.694 481.016 757.959 484.821 757.959 486.125C757.947 487.456 758.012 488.553 756.462 488.405C754.148 487.96 756.475 480.958 755.112 479.857C754.115 479.051 752.501 480.513 751.66 478.443L751.347 477.704Z"/><path fill="#4A8167" transform="scale(0.952378 0.952378)" d="M207.594 939.011C213.231 935.318 210.797 954.231 208.923 944.989C208.39 942.357 209.56 943.319 207.916 940.122C202.632 942.862 208.069 947.958 203.677 946.88C203.242 946.773 203.49 940.758 203.372 939.615C203.232 938.252 205.694 939.509 207.594 939.011Z"/><path fill="#040303" transform="scale(0.952378 0.952378)" d="M662.086 913.207C662.877 913.308 663.391 913.315 664.258 913.536C665.519 913.858 665.942 917.152 666.986 917.028C667.932 916.916 668.766 914.094 669.777 913.556C670.31 913.272 671.843 913.331 672.075 913.812C671.983 914.171 671.876 914.324 671.646 914.628L668.903 918.212C668.908 918.199 668.588 918.906 668.607 918.889C667.508 919.882 668.781 923.61 668.025 923.873C666.194 924.51 665.875 923.648 665.778 922.04C665.586 918.846 663.432 916.158 662.086 913.207Z"/><path fill="#040303" transform="scale(0.952378 0.952378)" d="M792.527 477.652C794.688 477.492 796.589 477.475 798.75 477.506L799.754 477.527C800.255 477.535 801.921 477.389 802.087 478.196C802.399 479.706 799.663 479.31 798.757 479.788C798.42 480.597 798.574 485.011 798.577 486.125C798.598 489.56 796.59 489.511 796.097 487.027C795.926 486.164 796.527 480.025 795.843 479.686C793.935 478.741 793.155 480.92 792.527 477.652Z"/><path fill="#51886C" transform="scale(0.952378 0.952378)" d="M235.498 934.165L235.703 934.239C236.336 934.46 237.72 934.813 237.975 935.494C238.366 936.96 235.222 936.613 235.759 938.161C236.003 938.863 238.091 938.82 237.773 939.869C237.667 940.218 236.826 940.715 236.516 940.723C235.662 940.744 235.618 941.446 235.629 942.21C235.657 943.498 235.664 944.786 235.651 946.074C235.444 946.724 235.294 947.203 234.498 947.176C232.008 947.195 234.344 941.57 232.807 940.817C230.586 939.729 234.325 935.464 235.498 934.165Z"/><path fill="#51886C" transform="scale(0.952378 0.952378)" d="M293.361 935.221C293.978 935.741 294.5 936.098 294.475 937.002C294.399 939.654 296.297 937.606 297.067 939.342C296.887 940.779 294.972 940.151 294.647 941.033C292.995 945.519 296.419 945.541 296.84 946.269L297.169 946.85C291.424 947.487 292.405 946.531 292.087 941.234C292.095 940.705 288.962 939.383 291.002 938.688C293.067 937.984 291.416 937.165 292.893 935.71L293.361 935.221Z"/><path fill="#040303" transform="scale(0.952378 0.952378)" d="M310.638 477.558C310.898 477.607 312.647 477.849 312.703 478.12C313.153 480.321 312.908 484.049 312.909 486.307C314.772 486.378 318.051 485.602 318.656 487.585L318.898 488.29C316.09 488.585 313.373 488.501 310.549 488.502C310.537 484.854 310.567 481.206 310.638 477.558Z"/><path fill="#4A8167" transform="scale(0.952378 0.952378)" d="M220.972 935.228C222.964 936.898 221.58 938.081 224.295 938.692C224.569 938.753 224.739 939.319 224.778 939.584C224.171 940.675 223.178 940.295 222.485 940.788C222.288 941.399 222.301 944.698 222.523 944.992C223.484 946.266 225.068 944.964 223.964 947.627C218.337 946.803 220.934 944.945 219.847 940.799C219.79 940.581 216.051 939.65 219.508 938.463C220.084 938.265 220.769 935.757 220.972 935.228Z"/><path fill="#4A8167" transform="scale(0.952378 0.952378)" d="M730.511 503.444C730.984 503.451 731.457 503.451 731.93 503.444C733.007 503.435 735.611 503.188 735.472 505.01C735.44 505.428 735.042 505.905 734.579 505.736C733.807 505.453 732.767 504.817 731.954 505.351L731.967 505.707C733.325 507.776 738.763 507.754 734.578 512.23C733.21 512.161 729.784 512.482 729.487 510.612C730.587 509.407 732.766 511.259 733.776 509.894C733.559 507.96 727.822 509.171 730.098 504.354L730.511 503.444Z"/><path fill="#040303" transform="scale(0.952378 0.952378)" d="M755.917 913.686C758.791 913.171 761.347 913.309 764.249 913.408C764.465 913.416 766.573 913.256 766.37 914.171C766.034 915.681 763.477 914.745 762.888 915.38C762.278 916.037 762.549 920.169 762.547 921.125C762.551 922.51 762.771 924.159 760.934 924.11C759.708 922.49 761.099 917.092 760.187 915.532C759.586 914.505 757.468 916.46 756.31 914.347L755.917 913.686Z"/><path fill="#040303" transform="scale(0.952378 0.952378)" d="M731.5 477.513C736.712 478.909 732.365 483.031 734.219 486.166C735.025 487.528 737.949 484.563 739.426 488.274C736.68 488.513 734.227 488.461 731.477 488.452C731.462 484.806 731.469 481.159 731.5 477.513Z"/><path fill="#040303" transform="scale(0.952378 0.952378)" d="M834.357 477.161C834.674 477.261 834.994 477.353 835.315 477.436C837.845 478.093 836.727 483.826 836.755 486.349C840.37 486.657 840.56 485.728 842.937 487.776C839.866 488.938 837.754 488.515 834.299 488.511L834.357 477.161Z"/><path fill="#4A8167" transform="scale(0.952378 0.952378)" d="M369.534 938.459C370.311 938.537 373.558 938.719 373.619 940.184C373.671 941.451 371.223 940.363 370.502 940.414C368.034 940.585 367.595 944.005 369.45 945.257C370.441 945.913 372.788 945.172 373.822 944.98C371.448 951.281 360.335 944.14 369.534 938.459Z"/><path fill="#4A8167" transform="scale(0.952378 0.952378)" d="M355.092 935.758C356.571 936.65 356.283 936.678 356.787 938.223C356.902 938.575 357.365 938.905 357.733 938.908C358.159 938.922 358.57 939.066 358.751 939.468C359.272 940.627 356.811 940.218 356.682 940.795C356.391 942.085 356.43 943.616 356.684 944.912C356.737 945.182 357.272 945.427 357.496 945.5C358.442 945.721 358.679 946.034 359.304 946.783C354.039 948.831 354.419 945.57 354.362 941.272C354.421 940.631 352.033 939.826 353.294 939.135C354.861 938.276 354.447 937.626 355.092 935.758Z"/><path fill="#040303" transform="scale(0.952378 0.952378)" d="M704.469 912.991C709.132 914.268 704.977 919.126 706.851 921.664C707.714 922.832 710.156 920.457 711.783 923.53C708.915 924.316 707.471 924.04 704.453 923.959C704.331 920.304 704.337 916.646 704.469 912.991Z"/><path fill="#4A8167" transform="scale(0.952378 0.952378)" d="M280.201 935.61C282.872 936.873 280.792 937.983 282.505 938.508C286.019 939.584 282.091 939.958 281.843 940.629C281.077 942.709 281.385 944.601 283.444 946.072L284.118 946.613C279.233 948.336 279.364 945.594 279.495 941.499C279.548 939.835 278.277 940.245 278.124 939.265C278.699 938.014 278.979 938.883 280.201 935.61Z"/><path fill="#4A8167" transform="scale(0.952378 0.952378)" d="M749.428 503.515C751.972 503.502 754.106 503.184 756.422 504.027C756.405 504.142 756.252 504.631 756.407 504.814C756.537 504.967 756.94 504.879 757.082 504.87C757.186 504.864 757.291 504.863 757.395 504.859L756.779 507.069L754.514 506.142C749.928 501.859 753.422 514.359 749.709 511.786C749.275 511.486 749.432 504.259 749.428 503.515Z"/><path fill="#4A8167" transform="scale(0.952378 0.952378)" d="M348.272 938.48C349.194 938.601 351.233 938.834 351.378 940.126C350.838 941.088 346.999 939.942 346.641 941.538C345.349 947.295 348.727 945.429 351.746 945.036C347.963 951.895 338.14 942.224 348.272 938.48Z"/><path fill="#4A8167" transform="scale(0.952378 0.952378)" d="M702.631 944.331C702.504 944.697 702.381 945.065 702.263 945.434C701.979 946.335 701.56 947.644 700.35 946.825C699.502 946.25 699.894 935.614 699.971 935.5C702.495 931.734 702.088 940.026 702.288 941.362C703.846 942.72 703.589 942.852 702.631 944.331Z"/><path fill="#4A8167" transform="scale(0.952378 0.952378)" d="M756.422 504.027C758.41 503.422 761.504 502.522 762.11 505.46C762.27 506.235 762.435 511.509 761.905 511.652C756.502 513.112 763.155 507.235 757.395 504.859C757.291 504.863 757.186 504.864 757.082 504.87C756.94 504.879 756.537 504.967 756.407 504.814C756.252 504.631 756.405 504.142 756.422 504.027Z"/><path fill="#040303" transform="scale(0.952378 0.952378)" d="M274.987 912.555C275.19 912.618 276.867 913.078 276.898 913.231C277.484 916.099 277.181 921.708 277.173 924.605C273.558 923.788 275.093 923.337 274.821 919.439C274.672 917.303 274.876 914.716 274.987 912.555Z"/><path fill="#4A8167" transform="scale(0.952378 0.952378)" d="M752.758 938.238C753.918 938.604 754.09 938.69 755.153 939.287C755.838 939.458 757.843 937.626 758.305 939.228C758.828 941.036 755.718 939.687 755.01 941.99C755.006 942.28 755.868 949.153 752.718 946.784C752.36 946.516 752.643 939.426 752.758 938.238Z"/><path fill="#040303" transform="scale(0.952378 0.952378)" d="M220.807 477.126C221.042 477.208 222.803 477.687 222.845 478.114C223.153 481.241 223.366 485.777 222.579 488.799C222.205 488.66 220.863 488.206 220.798 487.846C220.45 485.901 220.676 478.672 220.807 477.126Z"/><path fill="#51886C" transform="scale(0.952378 0.952378)" d="M250.365 938.132C251.332 938.449 252.407 939.15 253.383 938.82C254.382 938.482 255.373 938.098 256.14 939.057C256.137 941.555 253.071 939.303 252.577 941.983C252.571 942.804 252.752 946.409 252.279 946.786C249.267 949.186 250.36 939.454 250.365 938.132Z"/><path fill="#040303" transform="scale(0.952378 0.952378)" d="M202.443 477.046C202.755 477.144 204.361 477.584 204.424 477.75C205.063 479.434 204.696 486.785 204.675 488.442C204.462 488.441 202.812 488.487 202.739 488.196C202.208 486.085 202.447 479.168 202.443 477.046Z"/><path fill="#040303" transform="scale(0.952378 0.952378)" d="M769.572 912.717C772.573 913.947 771.452 921.908 770.553 924.222C767.786 922.768 768.804 915.108 769.572 912.717Z"/><path fill="#4A8167" transform="scale(0.952378 0.952378)" d="M326.855 938.248C327.778 938.614 327.791 938.699 328.5 939.08C329.589 939.664 330.731 937.824 332.047 939.089C332.752 941.43 328.967 939.368 328.684 942.504C328.67 943.479 328.766 946.711 328.447 947.003C325.476 949.722 326.753 939.273 326.855 938.248Z"/><path fill="#51886C" transform="scale(0.952378 0.952378)" d="M702.288 941.362C706.954 937.286 709.23 937.394 703.974 942.947C704.498 943.495 707.244 946.042 707.39 946.512C707.178 947.318 705.587 947.163 704.988 946.996C704.053 946.733 703.241 945.114 702.631 944.331C703.589 942.852 703.846 942.72 702.288 941.362Z"/><path fill="#51886C" transform="scale(0.952378 0.952378)" d="M361.127 938.898L363.657 938.4C363.557 940.087 363.621 946.458 363.371 946.69C359.963 949.85 361.144 939.683 361.127 938.898Z"/><path fill="#4A8167" transform="scale(0.952378 0.952378)" d="M302.263 503.11L302.948 503.343C305.097 504.066 304.296 510.092 304.211 512.372L303.724 512.246C303.612 512.218 302.309 511.941 302.244 511.723C301.723 509.992 302.045 504.762 302.263 503.11Z"/><path fill="#51886C" transform="scale(0.952378 0.952378)" d="M234.88 507.43C236.102 507.07 235.908 506.701 236.23 505.399C236.828 505.952 243.517 512.345 238.761 511.545C238.243 511.458 235.996 508.382 234.88 507.43Z"/><path fill="#44644E" transform="scale(0.952378 0.952378)" d="M282.263 511.995C283.434 511.738 284.629 511.569 285.815 511.371C285.549 512.115 285.367 512.719 285.145 513.473C286.068 513.92 286.237 513.964 286.997 514.486C285.737 514.838 280.636 515.883 280.542 513.574L280.505 513.056C281.11 512.702 281.672 512.377 282.263 511.995Z"/><path fill="#EDF5EB" transform="scale(0.952378 0.952378)" d="M282.263 511.995C283.434 511.738 284.629 511.569 285.815 511.371C285.549 512.115 285.367 512.719 285.145 513.473C283.331 513.436 282.256 513.201 280.505 513.056C281.11 512.702 281.672 512.377 282.263 511.995Z"/><path fill="#51886C" transform="scale(0.952378 0.952378)" d="M775.501 500.015C778.981 501.058 777.606 504.582 777.362 508.308C774.167 507.267 775.452 503.453 775.501 500.015Z"/><path fill="#4A8167" transform="scale(0.952378 0.952378)" d="M329.31 499.099C332.045 500.603 331.008 505.477 330.446 508.29C327.967 507.042 328.885 501.549 329.31 499.099Z"/><path fill="#4A8167" transform="scale(0.952378 0.952378)" d="M754.514 506.142L756.779 507.069C756.795 508.897 757.529 511.847 755.444 512.159C753.97 510.974 754.544 508.026 754.514 506.142Z"/><path fill="#EDF5EB" transform="scale(0.952378 0.952378)" d="M361.023 936.506C361.945 935.016 362.005 935.293 363.487 936.069C363.866 937.178 363.779 937.242 363.657 938.4L361.127 938.898C361.079 938.074 361.037 937.336 361.023 936.506Z"/><path fill="#44644E" transform="scale(0.952378 0.952378)" d="M361.023 936.506C361.945 935.016 362.005 935.293 363.487 936.069C362.548 937.258 362.442 937.07 361.023 936.506Z"/><path fill="#51886C" transform="scale(0.952378 0.952378)" d="M214.012 935.18C217.93 935.681 216.986 935.912 215.492 939.299C214.045 941.361 214.053 936.033 214.012 935.18Z"/><path fill="#4A8167" transform="scale(0.952378 0.952378)" d="M775.491 509.773C775.836 509.448 776.331 509.335 776.783 509.481C777.234 509.626 777.571 510.005 777.662 510.471C777.753 510.936 777.583 511.414 777.219 511.719C776.679 512.169 775.878 512.11 775.411 511.584C774.944 511.058 774.98 510.256 775.491 509.773Z"/><path fill="#4A8167" transform="scale(0.952378 0.952378)" d="M302.657 499.314C303.304 499.022 304.066 499.304 304.367 499.948C304.667 500.591 304.395 501.357 303.756 501.666C303.335 501.87 302.837 501.831 302.452 501.565C302.067 501.298 301.856 500.846 301.898 500.38C301.94 499.914 302.23 499.507 302.657 499.314Z"/><path fill="#51886C" transform="scale(0.952378 0.952378)" d="M329.138 509.754C329.609 509.374 330.292 509.419 330.71 509.857C331.127 510.294 331.14 510.979 330.739 511.432C330.448 511.76 329.996 511.897 329.572 511.785C329.147 511.674 328.821 511.332 328.73 510.903C328.638 510.474 328.796 510.029 329.138 509.754Z"/></svg>