<?xml version="1.0" encoding="utf-8" ?><svg xmlns="http://www.w3.org/2000/svg" xmlns:xlink="http://www.w3.org/1999/xlink" width="1024" height="1820" viewBox="0 0 1024 1820"><path fill="#B08FB2" d="M0 0L1024 0L1024 601.014L1024 973.695L1024 1100.91L1024 1112.5L1024 1820L0 1820L0 0Z"/><path fill="#FEFEFE" d="M0 0L1024 0L1024 601.014C1020.5 596.199 1003.96 557.495 999.622 548.676C985.579 520.539 969.314 493.566 950.982 468.015C950.263 456.583 951.637 442.764 950.304 431.613L950.18 429.658C946.456 427.31 923.399 428.424 917.586 428.42C893.643 427.745 866.593 428.385 842.46 428.395L699.925 428.308L237.587 428.377L72.7491 428.291L74.416 1385.37C68.4617 1385.35 33.8548 1384.25 30.7343 1386.86C42.1385 1387.75 55.8369 1387.24 67.4007 1387.38C91.6255 1387.68 116.236 1387.07 140.435 1387.49C140.367 1409.65 140.638 1432.79 140.21 1454.86C133.873 1454.86 87.3063 1454.31 85.1245 1455.72C93.349 1458.52 190.78 1457.09 206.902 1457.06L701.859 1457.25C758.139 1457.57 814.419 1457.57 870.698 1457.25C884.585 1457.17 898.471 1457.01 912.355 1456.77C920.044 1456.69 928.253 1457.53 935.616 1455.9L936.074 1455.39C921.358 1454.28 899.14 1455 884.093 1455.14C883.444 1432.65 884.237 1410.06 884.198 1387.54C898.309 1387.45 989.716 1389.1 994.484 1385.93C981.326 1384.99 963.994 1385.4 950.48 1385.37C951.584 1380.13 951 1358.02 950.913 1351.37C950.6 1332.86 950.494 1314.34 950.595 1295.83C950.441 1269.99 950.483 1244.14 950.721 1218.3L951.608 1221.1L952.568 1221.34C979.014 1200.56 1002.03 1161.96 1014.44 1131.26C1017.97 1122.55 1019.32 1108.52 1024 1100.91L1024 1112.5L1024 1820L0 1820L0 0Z"/><path fill="#FFF5E4" d="M237.587 428.377C242.993 425.967 290.205 382.783 299.088 375.757C367.797 321.409 435.446 261.064 516.84 226.186C525.123 222.651 542.608 220.31 551.422 218.91C595.1 211.976 642.249 212.008 684.757 225.506C763.969 250.659 823.879 321.856 878.099 381.393C885.537 389.561 913.323 421.351 917.586 428.42C893.643 427.745 866.593 428.385 842.46 428.395L699.925 428.308L237.587 428.377Z"/><path fill="#FFF5E4" d="M950.721 1218.3L951.608 1221.1L952.568 1221.34C979.014 1200.56 1002.03 1161.96 1014.44 1131.26C1017.97 1122.55 1019.32 1108.52 1024 1100.91L1024 1112.5C1021.09 1116.82 1015.52 1137.06 1012.7 1143.7C1001.13 1171 974.427 1208.53 951.339 1227.16C951.329 1236.77 952.509 1290.43 950.595 1295.83C950.441 1269.99 950.483 1244.14 950.721 1218.3Z"/><path fill="#B08FB2" d="M277.884 1505.23C278.706 1506.08 278.377 1505.91 278.702 1507.43C274.479 1515.78 254.347 1545.18 248.523 1553.39L511.096 1553.12C511.045 1546.95 510.525 1526.97 512.306 1522.24C513.277 1531.41 513.09 1543.87 513.201 1553.32L777.011 1553.32C770.271 1543.76 748.999 1515.88 746.072 1507.67C748.842 1508.73 775.265 1547.32 779.601 1553.36C789.562 1553.31 847.498 1552.11 851.962 1554.73C846.937 1555.83 826.547 1555.44 820.667 1555.42L759.905 1555.25L513.219 1555.58C513.125 1565.36 513.048 1574.58 512.412 1584.36C510.598 1580.95 511.03 1560.34 511.038 1555.24L250.659 1555.57C240.357 1555.57 179.085 1556.68 173.611 1555.02L173.29 1554.09C180.569 1552.04 234.486 1553.34 245.528 1553.35C249.979 1548.55 272.928 1512.73 277.884 1505.23Z"/><path fill="#FEFEFE" d="M161.604 800.508C187.86 801.991 224.454 800.91 251.541 800.783C256.664 804.596 271.641 861.802 279.098 868.559L279.314 872.825C280.409 876.002 280.965 878.523 283.401 880.822C283.249 882.831 283.259 884.656 282.547 886.524C287.446 892.036 289.852 899.374 288.666 906.756L291.26 906.495L291.946 910.135L372.116 910.161C371.091 919.981 371.556 935.373 371.551 945.761L371.532 1006.96C365.275 1007.48 332.44 1005.89 330.109 1008.87C329.957 1009.06 329.846 1009.28 329.715 1009.49L330.463 1009.84L568.18 1009.9C607.54 1009.95 658.866 1011.65 697.101 1009.77C706.812 1009.54 715.743 1010.12 724.974 1009.98L743.865 1010.16C744.408 983.637 743.724 956.139 743.98 929.475L744.094 893.083C744.164 885.605 744.784 878.947 744.076 871.454C744.826 868.46 744.763 862.734 744.847 859.437L745.968 859.659C751.01 853.573 768.171 808.799 770.314 800.892C779.149 802.419 854.456 802.375 862.823 800.929C868.712 820.108 879.717 845.442 887.241 864.723C903.083 905.001 918.632 945.393 933.886 985.897C938.579 998.449 947.586 1016.85 948.324 1029.3C948.761 1065.33 948.536 1103.23 948.372 1139.36C939.887 1139.42 929.034 1139.2 920.741 1139.8C914.608 1135.8 879.82 1137.04 870.107 1137.01L792.636 1136.92L543.795 1137.19L543.586 1088.57C538.818 1088.46 534.596 1089.18 531.551 1086.04C532.001 1083.84 532.084 1083.31 532.011 1081.08C530.267 1079.26 530.219 1079.13 527.841 1078.67L527.152 1080.15C527.244 1081.75 528.89 1085.76 529.522 1087.48C526.814 1088.37 519.059 1088.15 515.807 1088.17L515.522 1136.8L494.956 1136.84C494.812 1120.71 494.777 1104.59 494.85 1088.46C491.169 1088.49 484.618 1088.87 481.374 1087.76C480.84 1084.9 481.975 1083.7 483.247 1080.57L482.644 1079.21C479.597 1079.02 480.491 1078.64 478.282 1080.05C479.249 1083.7 480.114 1084.69 478.002 1087.6C474.921 1089.3 470.173 1088.7 466.496 1088.57L466.733 1137.15C436.999 1137.37 407.264 1137.42 377.529 1137.33L377.328 1088.51C372.528 1088.7 367.313 1089.6 363.611 1086.73C362.411 1083.41 363.116 1083.57 364.309 1079.43L363.368 1078.35L360.255 1078.27L359.192 1079.39C360.629 1082.96 361.741 1084.22 359.619 1087.51C356.673 1089.31 352.004 1088.69 348.389 1088.57L348.399 1137.09C329.898 1137.86 307.764 1137.32 288.981 1137.22C289.229 1136.38 289.46 1135.53 289.675 1134.68C291.448 1127.9 296.838 1109.29 292.959 1103.23C290.961 1100.11 303.307 1079.27 297.442 1064.32C296.766 1068.36 297.68 1070.7 297.576 1074.42C297.34 1082.85 294.556 1096.28 289.456 1103.07L289.8 1103.74C278.869 1103.85 267.894 1104.07 256.975 1103.61L257.196 1103.13C255.931 1101.74 255.459 1101.34 253.983 1100.18C249.681 1105.55 248.802 1106.11 249.325 1113.52C249.888 1121.51 252.445 1129.57 254.469 1137.33L160.568 1137.31C148.648 1137.29 112.999 1135.5 104.017 1140.4C95.2487 1140.3 87.0182 1138.2 76.3209 1138.18C75.5459 1104.13 74.765 1055.95 76.1963 1023.16C84.3227 1007.59 91.8009 982.506 97.9201 965.701L141.037 846.322C145.903 832.62 150.632 816.615 156.015 802.961C156.743 801.115 159.63 800.923 161.604 800.508Z"/><path fill="#FFF5E4" d="M279.314 872.825C280.409 876.002 280.965 878.523 283.401 880.822C283.249 882.831 283.259 884.656 282.547 886.524C287.446 892.036 289.852 899.374 288.666 906.756L291.26 906.495L291.946 910.135L372.116 910.161C371.091 919.981 371.556 935.373 371.551 945.761L371.532 1006.96C365.275 1007.48 332.44 1005.89 330.109 1008.87C329.957 1009.06 329.846 1009.28 329.715 1009.49C321.471 1010.06 308.483 1009.64 299.887 1009.64C293.046 1009.53 286.237 1009.75 279.398 1009.92C278.471 997.466 279.212 975.903 279.207 962.877C279.055 932.86 279.091 902.842 279.314 872.825Z"/><path fill="#EDE7F6" d="M279.314 872.825C280.409 876.002 280.965 878.523 283.401 880.822C283.249 882.831 283.259 884.656 282.547 886.524C287.446 892.036 289.852 899.374 288.666 906.756L291.26 906.495L291.946 910.135L281.677 909.908L281.814 1006.87L337.053 1006.75C345.375 1006.68 363.68 1006.11 371.532 1006.96C365.275 1007.48 332.44 1005.89 330.109 1008.87C329.957 1009.06 329.846 1009.28 329.715 1009.49C321.471 1010.06 308.483 1009.64 299.887 1009.64C293.046 1009.53 286.237 1009.75 279.398 1009.92C278.471 997.466 279.212 975.903 279.207 962.877C279.055 932.86 279.091 902.842 279.314 872.825Z"/><path fill="#FEFEFE" d="M282.547 886.524C287.446 892.036 289.852 899.374 288.666 906.756C285.294 906.594 284.987 907.169 282.807 905.297C281.029 899.621 282.203 892.813 282.547 886.524Z"/><path fill="#C8F0DC" d="M330.463 1009.84L568.18 1009.9C607.54 1009.95 658.866 1011.65 697.101 1009.77C695.559 1018.66 692.204 1025.79 690.231 1034.4L454.364 1034.52C420.178 1034.53 373.363 1035.92 339.957 1034.31C339.198 1031.09 332.139 1014.15 330.463 1009.84Z"/><path fill="#7DD5CD" d="M253.983 1100.18C245.072 1084.62 238.764 1042.02 260.211 1033.77C279.488 1031.79 276.202 1052.56 282.106 1059.37C282.904 1058.92 283.483 1058.63 284.24 1058.12C285.908 1057.02 287.947 1056.62 289.91 1057.01C291.136 1057.26 292.494 1057.7 293.685 1058.1C295.498 1060.45 296.522 1061.46 297.442 1064.32C296.766 1068.36 297.68 1070.7 297.576 1074.42C297.34 1082.85 294.556 1096.28 289.456 1103.07L289.8 1103.74C278.869 1103.85 267.894 1104.07 256.975 1103.61L257.196 1103.13C255.931 1101.74 255.459 1101.34 253.983 1100.18Z"/><path fill="#7DD5CD" d="M293.685 1058.1C295.498 1060.45 296.522 1061.46 297.442 1064.32C296.766 1068.36 297.68 1070.7 297.576 1074.42C297.34 1082.85 294.556 1096.28 289.456 1103.07C287.496 1103.07 286.404 1102.93 284.454 1102.68C280.599 1097.75 288.414 1086.01 287.024 1079.4C283.144 1087.33 284.816 1097 279.027 1102.04C276.376 1103.09 276.029 1103.22 273.252 1102.64C272.418 1100.14 278.199 1073.03 279.384 1068.53C281.51 1060.46 286.066 1058.25 293.685 1058.1Z"/><path fill="#519DA1" d="M260.211 1033.77C279.488 1031.79 276.202 1052.56 282.106 1059.37C282.904 1058.92 283.483 1058.63 284.24 1058.12C285.908 1057.02 287.947 1056.62 289.91 1057.01C291.136 1057.26 292.494 1057.7 293.685 1058.1C286.066 1058.25 281.51 1060.46 279.384 1068.53C278.199 1073.03 272.418 1100.14 273.252 1102.64C276.029 1103.22 276.376 1103.09 279.027 1102.04C284.816 1097 283.144 1087.33 287.024 1079.4C288.414 1086.01 280.599 1097.75 284.454 1102.68C286.404 1102.93 287.496 1103.07 289.456 1103.07L289.8 1103.74C278.869 1103.85 267.894 1104.07 256.975 1103.61L257.196 1103.13C260 1103.21 261.929 1103.53 264.513 1102.48C266.959 1093.11 259.385 1053.72 261.843 1046.34L262.508 1046.63C265.425 1061.39 265.274 1091.55 267.719 1107.45L267.88 1108.46C274.697 1096.05 273.202 1077.49 280.579 1063.36C278.659 1048.89 275.661 1037.31 260.211 1033.77Z"/><path fill="#C8F0DC" d="M329.715 1009.49L330.463 1009.84C332.139 1014.15 339.198 1031.09 339.957 1034.31C329.661 1032.46 316.795 1035.58 306.846 1034.69C298.209 1033.91 299.859 1016.35 299.887 1009.64C308.483 1009.64 321.471 1010.06 329.715 1009.49Z"/><path fill="#C8F0DC" d="M697.101 1009.77C706.812 1009.54 715.743 1010.12 724.974 1009.98C726.862 1037.96 713.288 1034.16 690.231 1034.4C692.204 1025.79 695.559 1018.66 697.101 1009.77Z"/><path fill="#FEFEFE" d="M75.0965 430.642C113.2 429.243 156.511 430.287 195.097 430.412L377.439 430.457L948.162 430.405C948.132 447.349 947.734 465.558 948.335 482.359C947.514 493.493 947.952 508.007 947.939 519.434L947.817 586.63L864.566 586.586C853.856 586.562 830.143 585.886 820.157 586.906C818.445 581.813 819.52 499.437 819.479 488.438L817.746 488.214C816.572 518.535 817.624 555.688 817.647 586.541C717.026 587.737 613.459 586.989 512.776 586.649C511.852 576.212 512.139 561.452 512.13 550.867C512.202 530.035 512.148 509.202 511.968 488.37L510.279 488.15L510.353 586.574L207.732 586.959C207.31 553.766 207.238 520.57 207.516 487.376L206.093 487.715C205.64 520.516 206.674 554.52 205.728 586.938C165.238 588.259 116.521 586.971 75.427 587.123C74.5825 570.54 75.3209 553.147 75.2521 536.444L75.0965 430.642Z"/><path fill="#916793" d="M817.746 488.214C811.991 487.166 806.833 485.365 804.828 479.243C808.485 474.128 828.44 472.086 830.629 479.768C828.876 485.26 824.703 487.048 819.479 488.438L817.746 488.214Z"/><path fill="#916793" d="M510.279 488.15C503.778 486.332 501.89 486.189 497.841 480.875L497.649 478.952C501.27 474.701 523.359 472.818 524.044 480.686C520.963 485.979 517.952 486.376 512.453 488.212L511.968 488.37L510.279 488.15Z"/><path fill="#916793" d="M206.093 487.715C201.323 486.869 194.297 485.251 193.901 479.418C197.769 474.442 213.685 474.25 218.355 479.094C217.827 485.207 212.586 486.394 207.516 487.376L206.093 487.715Z"/><path fill="#FFF5E4" d="M950.304 431.613C951.637 442.764 950.263 456.583 950.982 468.015C969.314 493.566 985.579 520.539 999.622 548.676C1003.96 557.495 1020.5 596.199 1024 601.014L1024 973.695L1024 1100.91C1019.32 1108.52 1017.97 1122.55 1014.44 1131.26C1002.03 1161.96 979.014 1200.56 952.568 1221.34L951.608 1221.1L950.721 1218.3C950.483 1244.14 950.441 1269.99 950.595 1295.83C950.494 1314.34 950.6 1332.86 950.913 1351.37C951 1358.02 951.584 1380.13 950.48 1385.37C949.996 1383.6 949.811 1379.77 949.653 1377.79C950.083 1380.34 949.532 1382.82 949.17 1385.41C948.164 1380.07 948.46 1363.81 948.48 1357.56L948.602 1309.18L948.372 1139.36C948.536 1103.23 948.761 1065.33 948.324 1029.3C947.586 1016.85 938.579 998.449 933.886 985.897C918.632 945.393 903.083 905.001 887.241 864.723C879.717 845.442 868.712 820.108 862.823 800.929L862.519 800.082L858.755 799.612C856.225 797.131 850.365 757.887 843.397 749.293C833.869 737.541 835.695 735.563 819.546 731.007L819.638 588.736C847.637 588.32 875.741 588.95 903.774 588.461C914.58 587.47 932.368 588.102 944.01 587.882C941.597 587.446 920.602 587.626 917.176 587.614L854.786 587.463C845.471 587.446 829.006 587.896 820.157 586.906C830.143 585.886 853.856 586.562 864.566 586.586L947.817 586.63L947.939 519.434C947.952 508.007 947.514 493.493 948.335 482.359C949.116 487.08 948.895 500.348 948.925 505.762C950.763 501.497 949.364 442.113 950.304 431.613Z"/><path fill="#C8F0DC" d="M903.774 588.461C917.342 589.331 934.411 588.956 948.256 588.991L948.391 885.561L948.212 989.01C948.147 1000.63 949.014 1018.92 948.324 1029.3C947.586 1016.85 938.579 998.449 933.886 985.897C918.632 945.393 903.083 905.001 887.241 864.723C879.717 845.442 868.712 820.108 862.823 800.929L862.519 800.082L858.755 799.612C856.225 797.131 850.365 757.887 843.397 749.293C833.869 737.541 835.695 735.563 819.546 731.007L819.638 588.736C847.637 588.32 875.741 588.95 903.774 588.461Z"/><path fill="#FEFEFE" d="M951.187 1099.77C951.242 1099.44 951.614 1097.35 951.685 1097.19C958.032 1082.87 973.206 1066.45 981.733 1052.47C992.943 1034.08 1002.27 1018.33 1012.05 999.443C1016.2 991.424 1019.41 980.397 1024 973.695L1024 1100.91C1019.32 1108.52 1017.97 1122.55 1014.44 1131.26C1002.03 1161.96 979.014 1200.56 952.568 1221.34L951.608 1221.1L950.721 1218.3C951.501 1179.22 950.706 1139.1 951.187 1099.77Z"/><path fill="#BBA6BC" d="M950.304 431.613C951.637 442.764 950.263 456.583 950.982 468.015L951.187 1099.77C950.706 1139.1 951.501 1179.22 950.721 1218.3C950.483 1244.14 950.441 1269.99 950.595 1295.83C950.494 1314.34 950.6 1332.86 950.913 1351.37C951 1358.02 951.584 1380.13 950.48 1385.37C949.996 1383.6 949.811 1379.77 949.653 1377.79C950.083 1380.34 949.532 1382.82 949.17 1385.41C948.164 1380.07 948.46 1363.81 948.48 1357.56L948.602 1309.18L948.372 1139.36C948.536 1103.23 948.761 1065.33 948.324 1029.3C949.014 1018.92 948.147 1000.63 948.212 989.01L948.391 885.561L948.256 588.991C934.411 588.956 917.342 589.331 903.774 588.461C914.58 587.47 932.368 588.102 944.01 587.882C941.597 587.446 920.602 587.626 917.176 587.614L854.786 587.463C845.471 587.446 829.006 587.896 820.157 586.906C830.143 585.886 853.856 586.562 864.566 586.586L947.817 586.63L947.939 519.434C947.952 508.007 947.514 493.493 948.335 482.359C949.116 487.08 948.895 500.348 948.925 505.762C950.763 501.497 949.364 442.113 950.304 431.613Z"/><path fill="#C8F0DC" d="M512.566 588.612C550.45 589.696 592.483 588.853 630.645 588.703L817.672 588.758L817.458 731.094C783.724 732.636 780.831 773.277 775.307 798.517C775.047 799.705 771.73 799.808 770.636 799.959L770.314 800.892C768.171 808.799 751.01 853.573 745.968 859.659L744.847 859.437C744.391 843.453 744.599 826.738 744.581 810.695L616.575 810.92C602.375 810.969 572.113 809.846 559.346 811.489L558.133 811.022C558.309 793.878 554.827 802.705 553.47 797.564C545.993 769.26 549.441 737.16 512.447 732.984C511.205 686.246 512.472 635.702 512.566 588.612Z"/><path fill="#C8F0DC" d="M207.73 589.085L510.459 588.696C511.282 635.984 510.685 685.377 510.385 732.725C478.932 739.541 478.699 754.56 472.523 782.358C470.748 790.346 470.969 796.247 464.634 801.69C463.382 804.615 463.837 808.048 463.952 811.297C456.746 811.311 446.501 811.024 439.541 811.493L279.919 811.342C278.829 829.432 279.256 850.159 279.098 868.559C271.641 861.802 256.664 804.596 251.541 800.783C241.527 773.331 245.996 735.61 207.896 732.978L207.56 715.135L207.73 589.085Z"/><path fill="#C8F0DC" d="M75.4456 589.114C118.828 588.927 162.211 588.979 205.593 589.271C206.762 626.29 204.31 668.405 206.139 704.392C207.342 708.58 206.98 713.688 207.56 715.135L207.896 732.978C245.996 735.61 241.527 773.331 251.541 800.783C224.454 800.91 187.86 801.991 161.604 800.508C159.63 800.923 156.743 801.115 156.015 802.961C150.632 816.615 145.903 832.62 141.037 846.322L97.9201 965.701C91.8009 982.506 84.3227 1007.59 76.1963 1023.16C75.1123 1015.08 75.4595 989.973 75.4268 980.43L75.5042 889.999L75.4456 589.114Z"/><path fill="#FFD6C0" d="M207.896 732.978C245.996 735.61 241.527 773.331 251.541 800.783C224.454 800.91 187.86 801.991 161.604 800.508C170.261 772.451 169.302 735.585 206.055 733.165L207.896 732.978Z"/><path fill="#FFF3B0" d="M204.309 734.907C233.011 735.121 237.546 751.893 243.119 776.316C244.786 783.62 246.795 791.627 248.662 798.942L220.816 798.97C202.241 798.99 182.511 799.332 164.029 798.749C170.864 773.131 172.595 737.974 204.309 734.907Z"/><path fill="#FFF3B0" d="M204.309 734.907C233.011 735.121 237.546 751.893 243.119 776.316C244.786 783.62 246.795 791.627 248.662 798.942L220.816 798.97C217.27 778.674 208.454 755.492 204.309 734.907Z"/><path fill="#BBA6BC" d="M206.139 704.392C207.342 708.58 206.98 713.688 207.56 715.135L207.896 732.978L206.055 733.165C205.462 725.893 205.738 711.547 206.139 704.392Z"/><path fill="#FFF5E4" d="M559.346 811.489C572.113 809.846 602.375 810.969 616.575 810.92L744.581 810.695C744.599 826.738 744.391 843.453 744.847 859.437C744.763 862.734 744.826 868.46 744.076 871.454C743.383 873.334 742.443 876.447 741.229 877.873L742.43 883.145C736.629 886.534 737.552 887.844 735.364 894.555C734.323 897.748 733.205 903.031 733.832 906.33L732.408 906.648C730.96 908.551 730.763 909.535 727.963 909.645C708.513 910.406 688.753 909.599 669.282 909.71C665.66 909.73 655.176 909.557 652.433 910.107L652.42 1007.59C651.344 1008.85 651.996 1008.36 650.287 1008.93L648.64 1007.07C648.945 974.95 648.324 942.314 648.471 910.036C630.968 910.128 613.464 910.082 595.962 909.897L594.185 906.821C589.256 907.802 564.865 907.318 558.695 907.278L558.133 811.022L559.346 811.489Z"/><path fill="#FFF5E4" d="M558.133 811.022L559.346 811.489L560.67 814.122C567.708 816.311 636.084 814.815 648.388 814.769C648.39 844.927 648.878 876.35 648.419 906.431C640.352 906.411 599.831 905.839 594.185 906.821C589.256 907.802 564.865 907.318 558.695 907.278L558.133 811.022Z"/><path fill="#916793" d="M559.346 811.489C572.113 809.846 602.375 810.969 616.575 810.92L744.581 810.695C744.599 826.738 744.391 843.453 744.847 859.437C744.763 862.734 744.826 868.46 744.076 871.454C743.383 873.334 742.443 876.447 741.229 877.873C740.038 858.281 740.575 834.755 740.547 814.867L652.529 814.824L652.403 906.417C677.381 906.416 707.88 905.594 732.408 906.648C730.96 908.551 730.763 909.535 727.963 909.645C708.513 910.406 688.753 909.599 669.282 909.71C665.66 909.73 655.176 909.557 652.433 910.107L652.42 1007.59C651.344 1008.85 651.996 1008.36 650.287 1008.93L648.64 1007.07C648.945 974.95 648.324 942.314 648.471 910.036C630.968 910.128 613.464 910.082 595.962 909.897L594.185 906.821C599.831 905.839 640.352 906.411 648.419 906.431C648.878 876.35 648.39 844.927 648.388 814.769C636.084 814.815 567.708 816.311 560.67 814.122L559.346 811.489Z"/><path fill="#FFF5E4" d="M279.919 811.342L439.541 811.493C447.034 812.242 456.854 811.338 462.953 812.541L463.53 813.769L462.465 815.181L465.381 815.178C466.223 829.471 465.626 848.911 465.614 863.553C465.604 876.116 466.112 894.708 465.354 906.866C453.629 906.899 438.121 907.328 426.743 906.615L426.208 909.763C415.39 910.118 385.468 910.84 375.496 909.767L373.645 910.883C373.252 913.309 373.072 915.081 372.898 917.533L372.116 910.161L291.946 910.135L291.26 906.495L288.666 906.756C289.852 899.374 287.446 892.036 282.547 886.524C283.259 884.656 283.249 882.831 283.401 880.822C280.965 878.523 280.409 876.002 279.314 872.825L279.098 868.559C279.256 850.159 278.829 829.432 279.919 811.342Z"/><path fill="#FFF5E4" d="M462.465 815.181L465.381 815.178C466.223 829.471 465.626 848.911 465.614 863.553C465.604 876.116 466.112 894.708 465.354 906.866C453.629 906.899 438.121 907.328 426.743 906.615C411.271 905.946 391.852 906.497 376.077 906.499L375.898 815.228C404.753 814.994 433.61 814.978 462.465 815.181Z"/><path fill="#916793" d="M279.919 811.342L439.541 811.493C447.034 812.242 456.854 811.338 462.953 812.541L463.53 813.769L462.465 815.181C433.61 814.978 404.753 814.994 375.898 815.228L376.077 906.499C391.852 906.497 411.271 905.946 426.743 906.615L426.208 909.763C415.39 910.118 385.468 910.84 375.496 909.767L373.645 910.883C373.252 913.309 373.072 915.081 372.898 917.533L372.116 910.161L291.946 910.135L291.26 906.495C316.082 905.579 346.39 906.432 371.64 906.454L371.657 815.253C342.768 814.69 312.204 815.163 283.231 815.373L283.401 880.822C280.965 878.523 280.409 876.002 279.314 872.825L279.098 868.559C279.256 850.159 278.829 829.432 279.919 811.342Z"/><path fill="#C8F0DC" d="M920.741 1139.8C929.034 1139.2 939.887 1139.42 948.372 1139.36L948.602 1309.18L948.48 1357.56C948.46 1363.81 948.164 1380.07 949.17 1385.41L884.244 1385.37C882.611 1312 883.976 1236.21 883.856 1162.63C897.404 1162.87 941.12 1166.74 920.741 1139.8Z"/><path fill="#C8F0DC" d="M76.3209 1138.18C87.0182 1138.2 95.2487 1140.3 104.017 1140.4C87.5501 1166.98 125.751 1162.61 140.309 1162.39C141.387 1235.93 140.302 1311.6 140.433 1385.37L76.3565 1385.42L76.3209 1138.18Z"/><path fill="#FFF5E4" d="M426.208 909.763C439.068 909.311 452.353 909.544 465.249 909.6C465.608 913.419 465.716 917.107 465.704 920.935C465.611 949.548 465.746 978.257 465.228 1006.86C450.846 1006.84 385.831 1004.98 375.993 1007.58L374.184 1008.7L373.13 1008.2C371.795 995.243 372.606 973.83 372.477 960.187C372.378 949.723 371.848 927.052 372.898 917.533C373.072 915.081 373.252 913.309 373.645 910.883L375.496 909.767C385.468 910.84 415.39 910.118 426.208 909.763Z"/><path fill="#916793" d="M372.898 917.533C373.072 915.081 373.252 913.309 373.645 910.883L375.496 909.767C376.476 920.213 376.059 935.124 376.055 945.985L375.993 1007.58L374.184 1008.7L373.13 1008.2C371.795 995.243 372.606 973.83 372.477 960.187C372.378 949.723 371.848 927.052 372.898 917.533Z"/><path fill="#FFF5E4" d="M652.433 910.107C661.613 910.809 740.327 910.079 741.415 910.805C743.2 919 742.574 938.583 742.551 947.958L742.356 1007.83C729.618 1008 716.878 1007.94 704.142 1007.63C695.193 1007.41 658.759 1006.1 652.42 1007.59L652.433 910.107Z"/><path fill="#FFF5E4" d="M558.695 909.719C571.118 909.609 583.541 909.669 595.962 909.897C613.464 910.082 630.968 910.128 648.471 910.036C648.324 942.314 648.945 974.95 648.64 1007.07C618.889 1006.77 588.747 1007.06 558.966 1007.1C558.805 975.597 557.72 940.883 558.695 909.719Z"/><path fill="#FEFEFE" d="M289.8 1103.74C295.718 1107.29 288.809 1131.13 286.592 1136.95L256.724 1137.22C254.058 1129.98 249.014 1115.01 251.343 1107.03C252.052 1104.6 254.696 1104.31 256.975 1103.61C267.894 1104.07 278.869 1103.85 289.8 1103.74Z"/><path fill="#FEFEFE" d="M742.43 883.145C742.68 889.687 745.725 905.636 738.358 907.592L733.832 906.33C733.205 903.031 734.323 897.748 735.364 894.555C737.552 887.844 736.629 886.534 742.43 883.145Z"/><path fill="#FEFEFE" d="M292.465 1162.44L438.151 1162.51L438.169 1222.25L438.18 1252.05C434.565 1252.05 430.275 1251.7 427.096 1253.21C423.218 1257.63 424.39 1280.76 426.284 1286.73C429.129 1288.86 434.625 1288.2 438.33 1288.09L438.209 1379.99L438.185 1411.02C394.98 1411.25 351.774 1411.2 308.569 1410.88L308.44 1380.5L308.348 1288.41C310.937 1288.39 319.048 1288.48 319.952 1286.87C322.689 1281.99 322.104 1256.52 318.902 1252.94C313.935 1251.65 298.439 1252.23 292.682 1252.27L292.623 1230.03C291.929 1208.81 292.5 1183.93 292.465 1162.44Z"/><path fill="#FFF5E4" d="M292.465 1162.44L438.151 1162.51L438.169 1222.25C404.11 1221.82 370.049 1221.72 335.988 1221.95C329.388 1221.97 298.338 1221.76 293.897 1222.55C292.703 1225.54 292.778 1226.9 292.623 1230.03C291.929 1208.81 292.5 1183.93 292.465 1162.44Z"/><path fill="#FFF5E4" d="M308.44 1380.5C322.145 1381.12 336.185 1380.67 349.92 1380.25C379.118 1379.37 409.093 1381.19 438.209 1379.99L438.185 1411.02C394.98 1411.25 351.774 1411.2 308.569 1410.88L308.44 1380.5Z"/><path fill="#FEFEFE" d="M585.866 1162.5L730.58 1162.63L730.656 1222.48L730.602 1252.28C724.66 1252.26 706.826 1251.04 702.946 1254C700.787 1260.73 700.294 1278.91 701.776 1285.47C704.849 1288.47 707.052 1288.03 711.205 1287.98C712.665 1287.96 714.124 1287.93 715.583 1287.89C716.216 1318.86 716.233 1349.85 715.633 1380.83L715.478 1410.95L586.005 1411.03C585.842 1389.3 585.843 1367.58 586.007 1345.85C585.843 1326.63 585.814 1307.41 585.921 1288.18C590.072 1288.2 593.999 1287.9 598.129 1287.63C598.18 1278.96 601.081 1261.07 595.817 1253.94C594.153 1251.68 588.671 1252.1 585.844 1252.12L585.869 1221.61L585.866 1162.5Z"/><path fill="#FFF5E4" d="M585.866 1162.5L730.58 1162.63L730.656 1222.48C722.452 1221.47 701.731 1221.91 692.684 1221.9L625.553 1221.93C612.928 1221.95 598.288 1222.41 585.869 1221.61L585.866 1162.5Z"/><path fill="#FFF5E4" d="M586.007 1345.85C587.299 1352.74 586.769 1372.34 586.726 1380.73L673.52 1380.71C682.097 1380.68 709.1 1379.94 715.633 1380.83L715.478 1410.95L586.005 1411.03C585.842 1389.3 585.843 1367.58 586.007 1345.85Z"/><path fill="#FFF5E4" d="M109.043 1139.35C161.859 1138.59 216.392 1139.21 269.368 1139.18L605.045 1139.16L813.794 1138.85L874.734 1138.94C885.228 1138.94 895.825 1138.66 906.317 1138.92C921.106 1139.28 931.977 1148.15 916.812 1160.35C903.021 1161.33 878.868 1160.56 864.447 1160.57L759.92 1160.59L429.007 1160.3L216.033 1160.47C192.158 1160.53 168.282 1160.46 144.408 1160.27C136.404 1160.23 109.604 1162.79 104.315 1155.9C100.097 1150.41 103.231 1143.49 109.043 1139.35Z"/><path fill="#FFF5E4" d="M732.773 1162.56L881.839 1162.69L881.893 1222.01L881.807 1380.4C874.372 1380.65 866.933 1380.78 859.493 1380.79C859.614 1357.63 858.889 1314.42 860.122 1289.84C860.24 1287.49 865.471 1290.01 869.355 1285.57C870.464 1279.86 870.803 1259.07 868.848 1253.93C859.276 1250.26 752.725 1252.44 733.287 1252.16C732.353 1246.46 732.669 1227.16 732.686 1220.81L732.773 1162.56Z"/><path fill="#FEFEFE" d="M733.625 1221.86C746.536 1222.32 761.755 1221.83 774.984 1221.9L881.893 1222.01L881.807 1380.4C874.372 1380.65 866.933 1380.78 859.493 1380.79C859.614 1357.63 858.889 1314.42 860.122 1289.84C860.24 1287.49 865.471 1290.01 869.355 1285.57C870.464 1279.86 870.803 1259.07 868.848 1253.93C859.276 1250.26 752.725 1252.44 733.287 1252.16C734.001 1245.68 733.617 1229.29 733.625 1221.86Z"/><path fill="#FFF5E4" d="M142.389 1162.43L289.874 1162.47C289.886 1184.83 290.03 1207.18 290.307 1229.54L290.438 1252.27C272.593 1252.29 166.432 1250.5 155.249 1253.98C153.787 1257.55 154.09 1281.25 154.902 1285.61C157.218 1288.49 161.994 1287.47 163.659 1289.57C165.593 1292 163.891 1371.02 163.796 1380.95C157.059 1380.82 149.727 1381.01 142.94 1381.06C141.522 1329.52 142.429 1274.48 142.51 1222.84C142.772 1202.7 142.731 1182.56 142.389 1162.43Z"/><path fill="#FEFEFE" d="M142.51 1222.84C145.862 1221.07 275.074 1222 288.583 1222.35C289.854 1224.83 289.919 1226.78 290.307 1229.54L290.438 1252.27C272.593 1252.29 166.432 1250.5 155.249 1253.98C153.787 1257.55 154.09 1281.25 154.902 1285.61C157.218 1288.49 161.994 1287.47 163.659 1289.57C165.593 1292 163.891 1371.02 163.796 1380.95C157.059 1380.82 149.727 1381.01 142.94 1381.06C141.522 1329.52 142.429 1274.48 142.51 1222.84Z"/><path fill="#FFF5E4" d="M440.304 1162.48L583.881 1162.48L583.935 1223.94C583.936 1228.96 584.156 1248.65 583.334 1252.29C538.367 1252.86 485.659 1253.29 440.708 1252.34C440.61 1242.22 440.572 1232.1 440.596 1221.99C440.293 1202.15 440.196 1182.31 440.304 1162.48Z"/><path fill="#FEFEFE" d="M440.596 1221.99L533.394 1222.08C542.582 1222.1 574.834 1222.6 582.973 1221.3C583.006 1226.51 582.717 1248.42 583.334 1252.29C538.367 1252.86 485.659 1253.29 440.708 1252.34C440.61 1242.22 440.572 1232.1 440.596 1221.99Z"/><path fill="#FEFEFE" d="M465.865 801.18C495.826 801.176 526.605 800.798 556.496 801.237L556.563 813.786L556.52 815.978L556.527 907.253L467.55 907.199C467.517 877.618 467.879 846.903 467.166 817.416L466.093 812.052C465.413 808.142 465.694 805.143 465.865 801.18Z"/><path fill="#FEFEFE" d="M465.865 801.18C495.826 801.176 526.605 800.798 556.496 801.237L556.563 813.786L556.52 815.978C546.132 815.859 471.144 814.824 467.634 816.745L467.166 817.416L466.093 812.052C465.413 808.142 465.694 805.143 465.865 801.18Z"/><path fill="#EDE7F6" d="M466.093 812.052C490.281 814.339 531.477 813.609 556.563 813.786L556.52 815.978C546.132 815.859 471.144 814.824 467.634 816.745L467.166 817.416L466.093 812.052Z"/><path fill="#FEFEFE" d="M440.638 1287.84L511.464 1287.83C511.595 1318.8 511.53 1349.77 511.269 1380.74L511.162 1410.95C489.601 1411.01 461.843 1411.79 440.628 1410.79C440.446 1400.61 440.428 1390.42 440.574 1380.24C440.695 1350.42 439.77 1317.17 440.638 1287.84Z"/><path fill="#FFF5E4" d="M440.574 1380.24L486.634 1380.29C492.965 1380.3 505.322 1379.97 511.269 1380.74L511.162 1410.95C489.601 1411.01 461.843 1411.79 440.628 1410.79C440.446 1400.61 440.428 1390.42 440.574 1380.24Z"/><path fill="#FEFEFE" d="M467.516 909.704L556.591 909.782C557.24 941.654 556.801 975.078 556.534 1007L467.639 1006.88L467.516 909.704Z"/><path fill="#FEFEFE" d="M513.545 1287.85C537.004 1287.77 560.463 1287.87 583.92 1288.14L584.018 1380.73L583.96 1411.06L513.512 1410.89C513.249 1400.86 513.375 1390.29 513.334 1380.22L513.545 1287.85Z"/><path fill="#FFF5E4" d="M513.334 1380.22C536.051 1380.88 562.355 1379.5 584.018 1380.73L583.96 1411.06L513.512 1410.89C513.249 1400.86 513.375 1390.29 513.334 1380.22Z"/><path fill="#FEFEFE" d="M788.969 1287.86C811.25 1287.88 834.961 1287.52 857.126 1288.03C857.372 1318.81 857.388 1349.59 857.176 1380.37L857.027 1411.03L789.292 1410.89C789.053 1400.79 789.059 1390.36 788.947 1380.23C788.787 1350.12 788.522 1317.93 788.969 1287.86Z"/><path fill="#FFF5E4" d="M788.947 1380.23C811.149 1380.47 835.402 1379.8 857.176 1380.37L857.027 1411.03L789.292 1410.89C789.053 1400.79 789.059 1390.36 788.947 1380.23Z"/><path fill="#FEFEFE" d="M166.348 1288.5L234.163 1288.43C234.506 1319.07 234.45 1349.72 233.994 1380.37L233.764 1411.07L166.528 1411.01C165.706 1391.45 166.302 1367.51 166.425 1347.62C166.168 1327.92 166.143 1308.21 166.348 1288.5Z"/><path fill="#FFF5E4" d="M166.425 1347.62C167.908 1354.65 167.214 1372.59 167.026 1380.74C189.349 1380.85 211.673 1380.73 233.994 1380.37L233.764 1411.07L166.528 1411.01C165.706 1391.45 166.302 1367.51 166.425 1347.62Z"/><path fill="#FEFEFE" d="M732.579 1287.82L786.903 1287.8L786.733 1380.28L786.645 1410.99C768.73 1411.21 750.466 1411.06 732.522 1411.09C732.404 1392.06 732.435 1373.02 732.616 1353.99C732.466 1331.93 732.454 1309.87 732.579 1287.82Z"/><path fill="#FFF5E4" d="M732.616 1353.99C733.319 1362.29 733.156 1371.58 733.187 1379.99C750.784 1380.28 769.215 1380.84 786.733 1380.28L786.645 1410.99C768.73 1411.21 750.466 1411.06 732.522 1411.09C732.404 1392.06 732.435 1373.02 732.616 1353.99Z"/><path fill="#FEFEFE" d="M236.572 1288.4C253.108 1287.56 273.595 1288.11 290.419 1288.13C290.539 1308.25 290.541 1328.38 290.425 1348.5L290.422 1410.62C273.909 1411.25 253.178 1411.28 236.5 1410.91L236.415 1380.69L236.572 1288.4Z"/><path fill="#FFF5E4" d="M289.399 1380.94C289.487 1373.75 289.14 1354.4 290.425 1348.5L290.422 1410.62C273.909 1411.25 253.178 1411.28 236.5 1410.91L236.415 1380.69C243.339 1379.39 281.047 1380.6 289.399 1380.94Z"/><path fill="#FFD6C0" d="M586.136 1413.36C625.992 1411.66 675.183 1413.04 715.697 1413.06C715.845 1427.08 715.882 1441.09 715.808 1455.11L586.47 1454.76C586.108 1440.97 585.997 1427.16 586.136 1413.36Z"/><path fill="#FFD6C0" d="M308.599 1413.22C350.693 1412.51 396.019 1412.82 438.151 1413.32L438.035 1454.49L308.643 1454.94C308.459 1441.14 308.604 1427.04 308.599 1413.22Z"/><path fill="#FCB3AD" d="M427.694 1254.88C480.527 1253.16 541.835 1254.53 595.374 1254.54C595.929 1264.19 595.778 1276.28 595.505 1285.83C541.55 1286.97 482.132 1285.82 427.677 1285.72C427.338 1275.68 427.608 1264.97 427.694 1254.88Z"/><path fill="#FCB3AD" d="M157.542 1254.39C172.864 1253.64 195.381 1254.36 211.095 1254.39L318.877 1254.76C319.168 1263.04 320.129 1278.29 319.303 1286C266.04 1285.83 212.431 1286.7 159.313 1285.26C155.392 1285.15 156.052 1257.77 157.542 1254.39Z"/><path fill="#FCB3AD" d="M704.39 1254.94C719.783 1253.41 742.992 1254.76 759.144 1254.7C795.188 1254.58 831.524 1254.1 867.534 1254.74C867.984 1263.5 867.773 1277.15 867.359 1285.78C813.696 1286.63 757.859 1285.83 704.068 1285.81C703.955 1276.48 703.668 1264.02 704.39 1254.94Z"/><path fill="#FFF3B0" d="M507.753 735.255C543.992 731.425 547.213 772.228 551.599 799.112L519.808 799.172C503.451 799.043 486.861 799.27 470.486 799.356C472.723 789.439 475.133 779.307 477.317 769.404C481.432 750.746 487.438 738.456 507.753 735.255Z"/><path fill="#FFF3B0" d="M507.753 735.255C543.992 731.425 547.213 772.228 551.599 799.112L519.808 799.172C519.392 785.636 516.463 745.292 507.753 735.255Z"/><path fill="#FFF3B0" d="M809.764 733.679C818.543 732.754 824.893 732.559 832.305 738.563C847.515 750.883 852.213 781.104 856.002 799.611L827.791 799.681L777.382 799.714C780.237 776.583 785.747 743.665 809.764 733.679Z"/><path fill="#FFF3B0" d="M809.764 733.679C818.543 732.754 824.893 732.559 832.305 738.563C847.515 750.883 852.213 781.104 856.002 799.611L827.791 799.681C826.81 778.108 820.996 752.319 809.764 733.679Z"/><path fill="#FFD6C0" d="M440.771 1413.06C463.975 1412.76 487.86 1413.06 511.116 1413.07C511.434 1426.59 511.204 1441.02 511.222 1454.61C488.536 1455.16 463.654 1454.66 440.801 1454.66C440.455 1441.18 440.743 1426.62 440.771 1413.06Z"/><path fill="#FFD6C0" d="M513.621 1412.98L583.978 1413.05L584.031 1454.84L513.729 1454.76C513.419 1441.09 513.628 1426.7 513.621 1412.98Z"/><path fill="#FFD6C0" d="M236.473 1413.26L306.196 1413.05C306.544 1426.52 306.303 1441.07 306.331 1454.63C283.028 1454.73 259.723 1454.68 236.42 1454.46C236.225 1440.72 236.243 1426.99 236.473 1413.26Z"/><path fill="#FFD6C0" d="M718.342 1413.03L786.752 1413.05L786.792 1454.95L718.444 1454.93L718.342 1413.03Z"/><path fill="#FFD6C0" d="M789.047 1413.09L856.985 1413.13L857.131 1455.02C834.991 1455.61 811.16 1455.1 788.924 1454.98L789.047 1413.09Z"/><path fill="#FFD6C0" d="M166.433 1413.07L233.797 1413.27C233.884 1424.69 234.478 1443.35 233.556 1454.24C211.322 1454.63 189.085 1454.77 166.848 1454.66L166.433 1413.07Z"/><path fill="#FEFEFE" d="M292.208 1288.31L306.109 1288.29C306.285 1319.45 306.281 1350.62 306.097 1381.78C302.526 1381.09 296.231 1381.14 292.402 1381.05L292.208 1288.31Z"/><path fill="#C8F0DC" d="M350.463 1090.46L375.535 1090.35C376.03 1095.86 376.419 1132.22 375.531 1137.17L350.478 1137.23C350.176 1121.93 350.442 1105.83 350.463 1090.46Z"/><path fill="#BECFD4" d="M375.535 1090.35C376.03 1095.86 376.419 1132.22 375.531 1137.17C374.559 1130.54 375.013 1097.53 375.535 1090.35Z"/><path fill="#C8F0DC" d="M468.483 1097.02C468.387 1094.7 468.079 1093.56 469.157 1091.62C473.754 1088.88 489.136 1088.53 492.63 1092.18C493.381 1098.1 494.005 1131.26 493.066 1137.02L468.489 1137.18L468.483 1097.02Z"/><path fill="#C8F0DC" d="M468.483 1097.02C468.387 1094.7 468.079 1093.56 469.157 1091.62C473.754 1088.88 489.136 1088.53 492.63 1092.18L491.565 1094.47C485.444 1096.01 473.892 1093.45 469.899 1095.56L469.822 1096.12L468.483 1097.02Z"/><path fill="#BECFD4" d="M492.63 1092.18C493.381 1098.1 494.005 1131.26 493.066 1137.02C492.106 1127.93 492.535 1106.67 492.402 1096.51C485.71 1096.63 476.166 1097.09 469.822 1096.12L469.899 1095.56C473.892 1093.45 485.444 1096.01 491.565 1094.47L492.63 1092.18Z"/><path fill="#FEFEFE" d="M718.125 1287.87L730.26 1287.85C730.59 1318.58 730.637 1349.31 730.4 1380.04C727.453 1381.59 721.688 1381.06 718.072 1381.02C717.408 1350.93 718.099 1318.18 718.125 1287.87Z"/><path fill="#C8F0DC" d="M530.231 1097.07C533.511 1095.89 538.092 1096.18 541.685 1096.19L541.769 1136.93L528.639 1136.88L517.49 1136.85L517.453 1097.07L530.231 1097.07Z"/><path fill="#FFD6C0" d="M859.405 1413.19L881.766 1413.12L881.72 1455.03L859.534 1455.13L859.405 1413.19Z"/><path fill="#FFD6C0" d="M142.514 1413.2L163.723 1413.09C164.035 1426.54 163.717 1441.11 163.669 1454.65L142.667 1454.73L142.514 1413.2Z"/><path fill="#FFF5E4" d="M859.493 1380.79C866.933 1380.78 874.372 1380.65 881.807 1380.4C881.893 1390.55 881.91 1400.7 881.859 1410.84L859.509 1410.81L859.493 1380.79Z"/><path fill="#FFF5E4" d="M142.94 1381.06C149.727 1381.01 157.059 1380.82 163.796 1380.95L163.592 1411.04L143.022 1411.14L142.94 1381.06Z"/><path fill="#FFF5E4" d="M292.402 1381.05C296.231 1381.14 302.526 1381.09 306.097 1381.78L306.078 1410.79L292.522 1410.81L292.402 1381.05Z"/><path fill="#FFF5E4" d="M718.072 1381.02C721.688 1381.06 727.453 1381.59 730.4 1380.04L730.169 1411.01L718.163 1410.96L718.072 1381.02Z"/><path fill="#C8F0DC" d="M516.284 1090.44C521.686 1090.01 535.773 1089 540.892 1090.88C541.998 1091.28 542.024 1092.71 542.432 1094.19C535.088 1094.15 526.533 1097.01 519.238 1094.7C517.468 1094.14 517.138 1092.34 516.284 1090.44Z"/></svg>