<?xml version="1.0" encoding="utf-8" ?><svg xmlns="http://www.w3.org/2000/svg" xmlns:xlink="http://www.w3.org/1999/xlink" width="1024" height="1820" viewBox="0 0 1024 1820"><path fill="#FEFEFE" d="M0 0L1024 0L1024 1820L0 1820L0 0Z"/><path fill="#88656C" d="M101.741 704.505C106.866 689.226 127.63 649.253 136.47 634.709C208.008 518.633 309.285 418.062 442.461 381.688C672.194 318.942 850.793 467.386 923.318 676.172C923.9 676.514 924.482 676.855 925.064 677.197L928.75 677.503C937.36 674.136 950.564 672.914 959.071 676.76C963.158 678.609 967.198 682.044 968.736 686.367C973.651 700.181 971.208 761.031 971.229 778.983C971.431 839.228 971.281 899.475 970.777 959.719C976.272 959.33 984.554 957.847 988.735 961.146C990.468 973.908 990.386 1128.63 988.086 1135.23C984.117 1138.1 975.672 1137.41 970.606 1137.36C970.648 1153.04 969.888 1177.51 970.816 1192.43C975.184 1239.06 977.544 1286.34 981.707 1333.2C986.556 1387.77 990.337 1444.56 986.804 1499.3C986.147 1509.47 980.348 1525.84 970.949 1531.13C946.661 1541.58 948.362 1540.03 921.852 1536.76C908.32 1535.08 894.78 1533.46 881.231 1531.91L726.428 1513.63C724.208 1514.79 721.291 1515.73 720.656 1518.08C716.691 1532.74 724.62 1552.15 716.043 1565.04C724.456 1565.06 788.01 1564.32 791.885 1565.89L793.557 1567.63L793.044 1569.18C789.244 1570.98 721.017 1570.02 710.813 1569.97C657.533 1570.35 604.253 1570.46 550.972 1570.28L356.114 1569.95C325.801 1569.67 295.486 1569.62 265.172 1569.82C258.054 1569.85 211.705 1571.26 208.719 1567.58C210.54 1566.08 214.065 1564.73 216.442 1564.72C250.617 1564.58 285.344 1565.97 319.467 1565C312.692 1555.78 315.38 1533.04 315.257 1519.62C310.218 1516.24 307.51 1512.89 302.655 1516.23C301.243 1517.2 299.411 1517.85 297.63 1517.82C284.69 1517.58 271.752 1517.65 258.807 1517.67L169.705 1517.68C149.493 1517.58 129.274 1518.29 109.094 1517.74C103.172 1517.83 97.9078 1512.73 97.4667 1506.77C96.4784 1493.42 96.8979 1479.21 96.8993 1465.8C97.0397 1436.88 96.9917 1407.96 96.7555 1379.04C95.5731 1376.81 95.9338 1329.85 95.9195 1323.93C92.8243 1320.14 88.9611 1309.85 86.9974 1304.91C70.4409 1263.28 58.1379 1215.99 49.7689 1172.01C25.5105 1044.02 32.5098 912.073 70.1725 787.368C75.9309 768.435 86.5983 733.581 97.2469 717.927C97.1953 710.872 97.3444 709.942 101.741 704.505Z"/><path fill="#FEFEFE" d="M310.235 722.797C448.602 721.579 586.974 721.166 725.346 721.559L725.347 1186.38L725.363 1331.51C725.353 1340.37 724.324 1408.43 726.368 1410.82L728.934 1411.1C741.259 1415.41 735.776 1430.57 728.831 1429.88L726.241 1431.05C721.198 1439.9 731.154 1509.63 720.259 1511.37C703.28 1514.07 669.769 1512.78 651.435 1512.74L424.259 1512.93L351.721 1513.22C342.003 1513.24 320.094 1513.83 311.55 1512.18C309.453 1505.75 310.041 1473.97 310.015 1465.08L309.659 1401.59L309.988 983.226L310.023 852.151C310.022 842.674 310.535 801.294 309.325 794.921L309.186 794.228C307.761 794.306 306.463 794.097 305.047 793.936C301.704 790.003 301.561 779.561 306.697 777.444L309.199 776.975C311.219 772.627 310.279 730.614 310.235 722.797Z"/><path fill="#FEFEFE" d="M327.062 773.157C325.05 763.456 326.991 743.391 339.645 741.626C351.23 740.012 365.502 740.771 377.385 740.743L450.052 740.573L603.77 740.712C630.387 740.764 657.041 740.809 683.654 741.019C708.885 741.219 707.852 755.289 707.167 776.157C705.205 778.809 703.136 781.745 700.956 784.18C709.305 793.807 699.989 814.718 705.034 820.967C705.367 821.492 705.774 822.135 706.257 822.896C706.682 855.279 706.509 899.636 706.534 930.744L706.61 1331.69L706.701 1435.7C706.711 1450.37 707.643 1481.75 705.007 1494.78C701.351 1498.6 626.889 1497.03 614.637 1497.01L473.681 1496.82C455.99 1496.77 339.08 1498.34 331.801 1495.37C330.322 1493.87 328.606 1492.17 328.481 1490.02C327.651 1475.64 327.998 1460.08 328.019 1445.7L328.174 1356.14L328.193 1013.26L328.182 908.151C328.183 898.892 328.929 867.564 328.144 860.26C327.26 854.645 327.789 839.899 327.429 833.653C326.539 818.236 322.955 787.689 327.062 773.157Z"/><path fill="#FFF5E4" d="M358.071 1328.35C359.108 1339.27 358.511 1358.15 358.457 1369.67C363.139 1367.81 366.494 1367.25 371.611 1367.44C451.237 1369.47 533.074 1365.14 612.918 1367.31C629.906 1367.77 646.948 1366.89 663.971 1367.56L674.38 1367.22C674.359 1362.93 673.682 1348.24 675.315 1345.68C675.42 1355.73 675.452 1365.77 675.411 1375.81L693.136 1391.42L695.971 1393.88C697.72 1395.34 700.612 1397.88 702.37 1399.09L702.228 1492.13L472.103 1492.19L386.588 1492.3C378.399 1492.31 338.225 1493.59 334.281 1490.28C331.923 1486.62 332.499 1481.66 332.61 1477.27C335.2 1454.28 330.966 1427.38 333.389 1404.06C333.769 1400.4 334.893 1398.66 336.875 1395.63L340.109 1391.95C346.11 1385.84 351.935 1379.56 357.577 1373.11C357.349 1359.59 357.177 1341.65 358.071 1328.35Z"/><path fill="#FFF5E4" d="M327.062 773.157C325.05 763.456 326.991 743.391 339.645 741.626C351.23 740.012 365.502 740.771 377.385 740.743L450.052 740.573L603.77 740.712C630.387 740.764 657.041 740.809 683.654 741.019C708.885 741.219 707.852 755.289 707.167 776.157C705.205 778.809 703.136 781.745 700.956 784.18C694.601 791.29 685.016 801.238 679.402 808.379L679.335 846.073L675.447 845.827C647.54 847.163 609.514 846.21 581.173 845.989L459.308 845.794C426.581 845.523 390.757 844.303 358.238 845.212L355.902 844.942C353.565 841.249 354.489 814.438 354.476 807.5C345.012 794.151 335.995 794.294 327.062 773.157Z"/><path fill="#88656C" d="M327.062 773.157C325.05 763.456 326.991 743.391 339.645 741.626C351.23 740.012 365.502 740.771 377.385 740.743L450.052 740.573L603.77 740.712C630.387 740.764 657.041 740.809 683.654 741.019C708.885 741.219 707.852 755.289 707.167 776.157C705.205 778.809 703.136 781.745 700.956 784.18C694.601 791.29 685.016 801.238 679.402 808.379L679.335 846.073L675.447 845.827L675.481 806.656C684.068 795.981 694.423 786.687 702.469 775.871L702.62 757.187C698.716 749.553 695.893 745.957 686.739 745.61C672.974 745.088 659.169 745.36 645.388 745.401L572.251 745.366C496.267 745.171 416.721 744.477 340.908 745.697C329.654 752.257 331.069 758.737 330.64 770.709C339.792 789.768 347.389 788.956 356.849 804.414C360.091 809.712 359.934 840.763 358.238 845.212L355.902 844.942C353.565 841.249 354.489 814.438 354.476 807.5C345.012 794.151 335.995 794.294 327.062 773.157Z"/><path fill="#FFF5E4" d="M327.062 773.157C335.995 794.294 345.012 794.151 354.476 807.5C354.489 814.438 353.565 841.249 355.902 844.942L358.238 845.212C352.371 847.653 354.344 852.001 354.702 858.038C356.151 858.869 358.448 859.743 358.412 861.21C357.933 880.904 361.06 981.28 358.458 993.175L355.502 993.033C353.174 995.556 352.981 1001.26 354.496 1004.04C353.383 1011.2 352.819 1120.14 354.413 1127.96C353.692 1130.22 353.469 1137.02 354.415 1139.01C356.045 1139.77 357.816 1140.13 357.978 1141.5C359.489 1154.27 358.451 1174.24 358.181 1187C357.849 1200.42 359.774 1272.59 357.479 1278.98L354.696 1280.32C353.095 1285.04 353.493 1287.7 354.213 1292.46L355.419 1293.75L357.515 1294.77C359.231 1301.7 357.193 1320.43 358.071 1328.35C357.177 1341.65 357.349 1359.59 357.577 1373.11C351.935 1379.56 346.11 1385.84 340.109 1391.95L336.875 1395.63C334.893 1398.66 333.769 1400.4 333.389 1404.06C330.966 1427.38 335.2 1454.28 332.61 1477.27C332.499 1481.66 331.923 1486.62 334.281 1490.28C338.225 1493.59 378.399 1492.31 386.588 1492.3L472.103 1492.19L702.228 1492.13L702.37 1399.09C700.612 1397.88 697.72 1395.34 695.971 1393.88L693.136 1391.42L675.411 1375.81C675.452 1365.77 675.42 1355.73 675.315 1345.68C675.613 1337.73 674.474 1297.37 676.656 1293.42L678.938 1293.26C682.295 1293.71 685.803 1292.88 687.575 1289.91C687.913 1282.46 681.786 1280.54 676.299 1278.87C675.27 1276.46 675.506 1270.78 675.52 1268.01C675.742 1225.58 675.069 1183.1 675.842 1140.69C675.842 1140.69 677.071 1139.22 677.19 1139.08C678.92 1138.76 683.474 1138.32 684.514 1137.21C691.375 1129.89 686.03 1125.58 678.197 1125.81C679.624 1122.88 679.704 1013.25 678.991 1004.4C682.892 1004.11 683.187 1003.91 685.362 1001.47C686.415 996.019 684.202 993.897 679.084 992.592C679.899 985.867 679.627 950.888 679.336 943.542C678.886 932.176 681.191 865.212 678.238 859.472C680.942 859.493 682.238 859.625 684.887 858.8C688.896 855.153 688.819 851.564 686.197 847.225C683.098 845.272 683.654 845.915 679.335 846.073L679.402 808.379C685.016 801.238 694.601 791.29 700.956 784.18C709.305 793.807 699.989 814.718 705.034 820.967C705.367 821.492 705.774 822.135 706.257 822.896C706.682 855.279 706.509 899.636 706.534 930.744L706.61 1331.69L706.701 1435.7C706.711 1450.37 707.643 1481.75 705.007 1494.78C701.351 1498.6 626.889 1497.03 614.637 1497.01L473.681 1496.82C455.99 1496.77 339.08 1498.34 331.801 1495.37C330.322 1493.87 328.606 1492.17 328.481 1490.02C327.651 1475.64 327.998 1460.08 328.019 1445.7L328.174 1356.14L328.193 1013.26L328.182 908.151C328.183 898.892 328.929 867.564 328.144 860.26C327.26 854.645 327.789 839.899 327.429 833.653C326.539 818.236 322.955 787.689 327.062 773.157Z"/><path fill="#FFF5E4" d="M700.956 784.18C709.305 793.807 699.989 814.718 705.034 820.967C703.877 821.505 702.43 821.852 702.416 822.805C701.967 853.168 702.194 901.522 702.188 929.756L702.238 1394.71L702.37 1399.09C700.612 1397.88 697.72 1395.34 695.971 1393.88L693.136 1391.42L675.411 1375.81C675.452 1365.77 675.42 1355.73 675.315 1345.68C675.613 1337.73 674.474 1297.37 676.656 1293.42L678.938 1293.26C682.295 1293.71 685.803 1292.88 687.575 1289.91C687.913 1282.46 681.786 1280.54 676.299 1278.87C675.27 1276.46 675.506 1270.78 675.52 1268.01C675.742 1225.58 675.069 1183.1 675.842 1140.69C675.842 1140.69 677.071 1139.22 677.19 1139.08C678.92 1138.76 683.474 1138.32 684.514 1137.21C691.375 1129.89 686.03 1125.58 678.197 1125.81C679.624 1122.88 679.704 1013.25 678.991 1004.4C682.892 1004.11 683.187 1003.91 685.362 1001.47C686.415 996.019 684.202 993.897 679.084 992.592C679.899 985.867 679.627 950.888 679.336 943.542C678.886 932.176 681.191 865.212 678.238 859.472C680.942 859.493 682.238 859.625 684.887 858.8C688.896 855.153 688.819 851.564 686.197 847.225C683.098 845.272 683.654 845.915 679.335 846.073L679.402 808.379C685.016 801.238 694.601 791.29 700.956 784.18Z"/><path fill="#D4A486" d="M677.19 1139.08C680.063 1141.93 679.261 1146.59 679.274 1151.23L679.251 1243.8C679.251 1249.11 679.683 1275.13 678.851 1278.09C678.063 1278.35 677.092 1278.73 676.299 1278.87C675.27 1276.46 675.506 1270.78 675.52 1268.01C675.742 1225.58 675.069 1183.1 675.842 1140.69C675.842 1140.69 677.071 1139.22 677.19 1139.08Z"/><path fill="#D4A486" d="M675.315 1345.68C675.613 1337.73 674.474 1297.37 676.656 1293.42L678.938 1293.26C679.976 1318.58 679.178 1347.74 679.245 1373.45C686.334 1380.9 694.513 1387.87 702.238 1394.71L702.37 1399.09C700.612 1397.88 697.72 1395.34 695.971 1393.88L693.136 1391.42L675.411 1375.81C675.452 1365.77 675.42 1355.73 675.315 1345.68Z"/><path fill="#88656C" d="M705.034 820.967C705.367 821.492 705.774 822.135 706.257 822.896C706.682 855.279 706.509 899.636 706.534 930.744L706.61 1331.69L706.701 1435.7C706.711 1450.37 707.643 1481.75 705.007 1494.78C701.351 1498.6 626.889 1497.03 614.637 1497.01L473.681 1496.82C455.99 1496.77 339.08 1498.34 331.801 1495.37C330.322 1493.87 328.606 1492.17 328.481 1490.02C327.651 1475.64 327.998 1460.08 328.019 1445.7L328.174 1356.14L328.193 1013.26L328.182 908.151C328.183 898.892 328.929 867.564 328.144 860.26C328.655 852.486 327.552 828.193 330.148 823.622C331.29 823.998 332.245 824.018 332.267 824.982C333.856 895.433 333.189 1025.76 333.17 1091.1C331.853 1110.56 332.651 1140.77 332.602 1161.3L332.415 1294.53L332.514 1408.05C332.425 1427.22 331.322 1459.13 332.61 1477.27C332.499 1481.66 331.923 1486.62 334.281 1490.28C338.225 1493.59 378.399 1492.31 386.588 1492.3L472.103 1492.19L702.228 1492.13L702.37 1399.09L702.238 1394.71L702.188 929.756C702.194 901.522 701.967 853.168 702.416 822.805C702.43 821.852 703.877 821.505 705.034 820.967Z"/><path fill="#D4A486" d="M333.17 1091.1C333.636 1104.86 333.356 1118.68 333.407 1132.45C333.724 1219.55 332.387 1306.8 333.32 1393.89C340.054 1386.62 347.281 1379.06 353.618 1371.49C353.689 1349.57 353.514 1318.14 354.027 1295.34C354.572 1294.72 355.036 1294.19 355.419 1293.75L357.515 1294.77C359.231 1301.7 357.193 1320.43 358.071 1328.35C357.177 1341.65 357.349 1359.59 357.577 1373.11C351.935 1379.56 346.11 1385.84 340.109 1391.95L336.875 1395.63C334.893 1398.66 333.769 1400.4 333.389 1404.06C330.966 1427.38 335.2 1454.28 332.61 1477.27C331.322 1459.13 332.425 1427.22 332.514 1408.05L332.415 1294.53L332.602 1161.3C332.651 1140.77 331.853 1110.56 333.17 1091.1Z"/><path fill="#B5867C" d="M354.702 858.038C356.151 858.869 358.448 859.743 358.412 861.21C357.933 880.904 361.06 981.28 358.458 993.175C357.273 992.733 355.85 992.016 354.677 991.471C353.099 986.235 353.864 869.689 354.702 858.038Z"/><path fill="#D4A486" d="M353.809 1192.83C355.207 1191.27 356.906 1188.76 358.181 1187C357.849 1200.42 359.774 1272.59 357.479 1278.98L354.314 1278.46C352.821 1274.38 353.781 1202.91 353.809 1192.83Z"/><path fill="#B5867C" d="M354.415 1139.01C356.045 1139.77 357.816 1140.13 357.978 1141.5C359.489 1154.27 358.451 1174.24 358.181 1187C356.906 1188.76 355.207 1191.27 353.809 1192.83C353.741 1182.15 352.973 1147.44 354.415 1139.01Z"/><path fill="#E8F4F0" d="M415.112 1294.94L664.07 1294.56C664.334 1318.89 664.301 1343.23 663.971 1367.56C646.948 1366.89 629.906 1367.77 612.918 1367.31C533.074 1365.14 451.237 1369.47 371.611 1367.44L371.544 1343.36C384.717 1327.13 403.274 1310.5 415.112 1294.94Z"/><path fill="#B5867C" d="M354.496 1004.04C355.768 1004.68 358.106 1005.52 358.094 1006.48C357.925 1020.12 359.541 1120.13 357.859 1126.17C356.728 1126.79 355.606 1127.47 354.413 1127.96C352.819 1120.14 353.383 1011.2 354.496 1004.04Z"/><path fill="#D4A486" d="M678.238 859.472C681.191 865.212 678.886 932.176 679.336 943.542C679.627 950.888 679.899 985.867 679.084 992.592L676.139 992.23C675.599 991.203 674.833 867.877 675.863 860.37L678.238 859.472Z"/><path fill="#D4A486" d="M678.197 1125.81C676.71 1125.42 676.824 1125.4 675.8 1124.23C675.604 1111.76 674.366 1009.38 676.122 1004.8L678.991 1004.4C679.704 1013.25 679.624 1122.88 678.197 1125.81Z"/><path fill="#E8F4F0" d="M371.979 858.746L543.745 858.78C582.533 858.691 622.63 858.205 661.388 859.367C640.249 883.31 615.231 908.215 595.355 931.564C575.635 951.394 556.979 972.849 536.917 992.821C527.135 993.915 504.96 993.094 493.686 993.212C452.937 993.407 412.186 993.243 371.44 992.721C371.785 948.557 370.775 902.658 371.979 858.746Z"/><path fill="#E8F4F0" d="M560.219 1138.59C593.212 1137.05 630.22 1139.39 664.139 1138.42C664.749 1158.48 664.125 1180.69 664.199 1200.97C664.293 1226.63 664.611 1252.48 664.401 1278.09L536.444 1278.1L430.555 1278.14C441.981 1266.5 451.963 1254.62 462.908 1242.65L525.558 1174.61C531.165 1168.51 555.473 1141.19 560.219 1138.59Z"/><path fill="#E8F4F0" d="M371.457 1004.28C423.373 1003.85 475.292 1003.88 527.208 1004.35C507.503 1026.11 486.968 1047.27 467.335 1069.21C449.45 1088.18 432.351 1107.18 414.135 1126.05C401.295 1126.68 384.511 1126.19 371.377 1126.18C370.072 1087.87 371.63 1043.37 371.457 1004.28Z"/><path fill="#E8F4F0" d="M663.239 1023.5L664.367 1024.29C665.445 1029.05 664.388 1052.06 664.324 1058.29L664.295 1125.93C633.644 1126.09 602.991 1126.1 572.339 1125.95L571.295 1125.68L571.161 1124.47L663.239 1023.5Z"/><path fill="#E8F4F0" d="M526.347 1139.12C529.757 1138.95 533.641 1138.48 536.819 1139.48L536.889 1140.51C507.774 1175.66 473.494 1207.95 443.431 1242.41C433.029 1254.34 422.181 1266.65 411.101 1277.92L399.298 1278.05C406.103 1269.6 418.778 1257.33 426.679 1248.66L483.986 1185.6C497.562 1170.9 513.755 1154.38 526.347 1139.12Z"/><path fill="#E8F4F0" d="M650.587 1004.19L662.449 1004.32C625.924 1045.31 588.619 1085.61 550.556 1125.18C547.326 1126.32 544.391 1126.78 541.384 1125.1C541.67 1122.69 641.36 1013.45 650.587 1004.19Z"/><path fill="#E8F4F0" d="M371.004 1139.39L403.458 1139.36C397.961 1145.84 392.345 1152.23 386.613 1158.5C381.545 1164.18 376.507 1169.89 371.498 1175.63C371.183 1163.6 371.327 1151.51 371.004 1139.39Z"/><path fill="#E8F4F0" d="M385.813 1294.99C389.177 1293.35 394.153 1294.04 398.066 1294.22C389 1304.58 380.819 1313.66 370.656 1323.12L370.681 1309.46C375.155 1305.87 382.356 1299.43 385.813 1294.99Z"/><path fill="#E8F4F0" d="M670.091 982.673C671.331 987.146 666.112 991.088 662.838 993.186L662.55 991.349C664.203 988.251 667.548 985.227 670.091 982.673Z"/><path fill="#FFF3B0" d="M818.049 723.887C828.25 721.194 877.158 711.047 886.22 711.375C893.06 711.562 899.741 713.482 905.637 716.954C918.164 724.365 926.522 738.836 927.122 753.2C927.844 770.47 927.712 787.993 927.785 805.275C928.027 855.501 927.966 905.729 927.602 955.955L927.637 1329.13L927.066 1426.81C927.025 1440.45 927.802 1462.02 926.98 1474.77C926.691 1475.14 926.002 1476.14 925.665 1476.35C925.31 1475.48 923.67 1472.23 922.712 1472.12C875.643 1466.94 828.386 1462.67 781.235 1458.17C770.901 1457.03 756.176 1455.21 746.049 1455.42L744.083 1453.2C740.193 1448.92 735.557 1449.6 729.507 1449.26C729.516 1443.15 729.79 1435.83 728.831 1429.88C735.776 1430.57 741.259 1415.41 728.934 1411.1C731.025 1404.88 729.194 1306.94 729.224 1293.05L729.835 778.829C735.63 771.328 738.546 766.53 745.102 759.072C748.895 754.563 758.172 740.719 761.289 738.121C770.303 730.606 804.927 726.276 818.049 723.887Z"/><path fill="#FFD6C0" d="M745.102 759.072C748.895 754.563 758.172 740.719 761.289 738.121C770.303 730.606 804.927 726.276 818.049 723.887C809.718 732.299 802.083 736.733 794.466 747.055C779.634 767.155 781.225 786.076 781.239 809.33L781.299 844.942C781.307 846.3 781.386 847.497 781.51 848.851C771.668 850.023 762.103 849.962 752.315 851.013C751.948 851.053 749.517 853.246 749.162 853.644C745.04 873.884 764.116 872.938 778.01 872.292L780.753 873.365C781.534 879.003 781.147 901.435 781.166 908.1L781.47 984.992C773.896 984.839 757.326 983.378 752.005 987.714C751.873 1008.82 761.468 1012.51 780.654 1012L781.254 1011.98C780.503 1047.37 780.35 1093.32 781.528 1128.69C767.923 1128.58 752.877 1123.61 751.84 1141C752.29 1145.64 752.373 1147.3 753.914 1151.64C759.649 1164.59 767.056 1168.75 780.952 1168.64C782.787 1202.38 779.487 1242.41 781.521 1276.22C777.359 1276.15 763.162 1275.73 759.627 1276.47L754.779 1279.83C753.699 1285.56 754.143 1286.39 754.915 1292.13C756.74 1298.58 758.098 1301.95 762.216 1307.33C770.048 1312.1 772.132 1311.86 781.495 1311.52L781.235 1458.17C770.901 1457.03 756.176 1455.21 746.049 1455.42L744.083 1453.2C740.193 1448.92 735.557 1449.6 729.507 1449.26C729.516 1443.15 729.79 1435.83 728.831 1429.88C735.776 1430.57 741.259 1415.41 728.934 1411.1C731.025 1404.88 729.194 1306.94 729.224 1293.05L729.835 778.829C735.63 771.328 738.546 766.53 745.102 759.072Z"/><path fill="#FFF3B0" d="M729.835 778.829C735.63 771.328 738.546 766.53 745.102 759.072C743.544 770.883 743.935 785.64 743.911 797.787L743.871 854.78L743.961 1046.11L743.711 1326.86L743.784 1412.35C743.818 1423.2 743.252 1442.91 744.083 1453.2C740.193 1448.92 735.557 1449.6 729.507 1449.26C729.516 1443.15 729.79 1435.83 728.831 1429.88C735.776 1430.57 741.259 1415.41 728.934 1411.1C731.025 1404.88 729.194 1306.94 729.224 1293.05L729.835 778.829Z"/><path fill="#FEFEFE" d="M817.96 775.45C837.545 773.018 857.166 770.889 876.816 769.062C883.904 768.345 900.364 766.215 906.636 766.349C906.877 793.098 907.362 822.611 906.481 849.248L910.255 853.822C908.91 858.63 906.024 864.049 901.381 866.418C892.215 871.094 819.915 871.398 805.105 871.603C796.72 871.719 786.17 870.633 778.01 872.292C764.116 872.938 745.04 873.884 749.162 853.644C749.517 853.246 751.948 851.053 752.315 851.013C762.103 849.962 771.668 850.023 781.51 848.851C793.801 847.599 806.101 846.44 818.41 845.375C818.056 822.069 817.907 798.759 817.96 775.45Z"/><path fill="#E8F4F0" d="M778.01 872.292C764.116 872.938 745.04 873.884 749.162 853.644C759.957 857.929 863.575 854.17 881.286 853.871C890.066 854.22 901.285 853.853 910.255 853.822C908.91 858.63 906.024 864.049 901.381 866.418C892.215 871.094 819.915 871.398 805.105 871.603C796.72 871.719 786.17 870.633 778.01 872.292Z"/><path fill="#FFF5E4" d="M881.286 853.871C889.011 852.292 893.634 853.886 900.776 852.584L900.796 851.766L898.186 851.516L897.795 850.655C901.384 849.64 902.753 849.554 906.481 849.248L910.255 853.822C901.285 853.853 890.066 854.22 881.286 853.871Z"/><path fill="#FEFEFE" d="M781.528 1128.69C812.014 1128.53 842.501 1128.72 872.982 1129.26C882.447 1129.47 892.194 1129.12 901.631 1129.73C907.521 1130.11 909.198 1134.56 910.842 1139.43L910.158 1145.34C910.209 1157.57 909.775 1162.07 898.452 1168.48C859.522 1169.36 819.007 1167.61 780.952 1168.64C767.056 1168.75 759.649 1164.59 753.914 1151.64C752.373 1147.3 752.29 1145.64 751.84 1141C752.877 1123.61 767.923 1128.58 781.528 1128.69Z"/><path fill="#E8F4F0" d="M910.158 1145.34C910.209 1157.57 909.775 1162.07 898.452 1168.48C859.522 1169.36 819.007 1167.61 780.952 1168.64C767.056 1168.75 759.649 1164.59 753.914 1151.64C800.886 1151.33 847.88 1150.91 894.853 1151.09C903.14 1151.12 904.708 1150.96 910.158 1145.34Z"/><path fill="#E8F4F0" d="M781.528 1128.69C812.014 1128.53 842.501 1128.72 872.982 1129.26C882.447 1129.47 892.194 1129.12 901.631 1129.73C907.521 1130.11 909.198 1134.56 910.842 1139.43C888.693 1140.94 758.218 1138.2 751.84 1141C752.877 1123.61 767.923 1128.58 781.528 1128.69Z"/><path fill="#E8F4F0" d="M781.47 984.992C808.183 985.167 834.896 985.172 861.609 985.009C870.615 984.968 904.827 982.956 910.083 988.219C911.177 1005.62 903.593 1011.83 886.427 1011.96C851.375 1012.23 816.308 1012.15 781.254 1011.98L780.654 1012C761.468 1012.51 751.873 1008.82 752.005 987.714C757.326 983.378 773.896 984.839 781.47 984.992Z"/><path fill="#FEFEFE" d="M781.47 984.992C808.183 985.167 834.896 985.172 861.609 985.009C870.615 984.968 904.827 982.956 910.083 988.219C907.817 990.703 905.946 992.531 902.913 994.052C901.033 994.994 897.033 996.009 895.128 995.982C878.993 995.754 761.078 997.547 754.801 995.228C752.61 993.279 752.502 990.609 752.005 987.714C757.326 983.378 773.896 984.839 781.47 984.992Z"/><path fill="#E8F4F0" d="M754.915 1292.13C803.457 1290.51 851.768 1293 900.241 1291.38C903.509 1291.27 906.735 1289.65 909.525 1288.09C909.382 1300.45 909.823 1310.73 894.188 1311.29C856.91 1312.62 818.741 1310.43 781.495 1311.52C772.132 1311.86 770.048 1312.1 762.216 1307.33C758.098 1301.95 756.74 1298.58 754.915 1292.13Z"/><path fill="#FFF5E4" d="M759.627 1276.47C771.077 1277.4 788.555 1276.94 800.469 1276.95L870.579 1277.16C878.493 1277.19 903.362 1275.92 908.201 1279.64C908.805 1282.4 909.635 1285.3 909.525 1288.09C906.735 1289.65 903.509 1291.27 900.241 1291.38C851.768 1293 803.457 1290.51 754.915 1292.13C754.143 1286.39 753.699 1285.56 754.779 1279.83L759.627 1276.47Z"/><path fill="#E8F4F0" d="M759.627 1276.47C771.077 1277.4 788.555 1276.94 800.469 1276.95L870.579 1277.16C878.493 1277.19 903.362 1275.92 908.201 1279.64C903.24 1281.08 869.496 1280.3 861.652 1280.26L754.779 1279.83L759.627 1276.47Z"/><path fill="#FFF5E4" d="M305.181 712.936C307.232 725.313 303.981 771.434 306.697 777.444C301.561 779.561 301.704 790.003 305.047 793.936C306.463 794.097 307.761 794.306 309.186 794.228C307.659 794.906 305.715 795.33 305.66 796.999C305.398 805.049 305.64 816.03 305.639 823.954L305.57 916.958L305.353 1318.37L305.548 1443.48C305.582 1457.13 306.51 1494.18 305.236 1506.65C296.416 1503.96 297.999 1508.54 290.116 1507.44L289.005 1506.21C286.963 1502.3 287.96 1385.25 287.988 1371.45L116.42 1372.12L116.347 912.416L116.314 793.769C116.308 774.924 116.287 756.079 116.362 737.235C116.393 729.241 119.762 727.791 126.394 725.345C129.236 728.791 127.953 754.131 127.765 760.032L128.071 762.111C153.572 762.635 180.027 762.189 205.605 762.118C218.389 762.082 237.985 762.689 250.038 761.97C254.117 761.863 259.725 762.525 262.841 760.596C266.695 755.499 282.078 746.208 288.428 740.043C290.806 732.594 289.806 724.417 281.14 722.396C288.672 717.473 297.313 721.774 304.832 722.261C304.847 719.258 305.049 715.964 305.181 712.936Z"/><path fill="#FFD6C0" d="M305.181 712.936C307.232 725.313 303.981 771.434 306.697 777.444C301.561 779.561 301.704 790.003 305.047 793.936C306.463 794.097 307.761 794.306 309.186 794.228C307.659 794.906 305.715 795.33 305.66 796.999C305.398 805.049 305.64 816.03 305.639 823.954L305.57 916.958L305.353 1318.37L305.548 1443.48C305.582 1457.13 306.51 1494.18 305.236 1506.65C296.416 1503.96 297.999 1508.54 290.116 1507.44L289.005 1506.21C286.963 1502.3 287.96 1385.25 287.988 1371.45C287.858 1332.18 286.648 1283.4 288.164 1244.69C281.727 1243.77 249.721 1244.28 240.772 1244.27C203.046 1243.95 165.316 1244.2 127.597 1244.99L127.488 1231.82C128.236 1199.58 126.945 1166.22 127.452 1133.68C143.243 1132.6 160.41 1133.08 176.368 1133.15C202.632 1133.38 228.897 1133.38 255.16 1133.15L284.295 1133.13L284.72 1116.8L256.881 1116.94L256.278 1116.25C256.432 1095.69 257.177 1071.53 256.392 1051.21L257.15 1050.07C258.59 1049.72 259.144 1049.31 260.459 1048.63C261.613 1046.22 261.54 1047.29 260.685 1044.85C258.553 1042.51 257.984 1042.51 254.809 1042.02C254.596 1028.84 254.695 1015.41 254.675 1002.2L283.949 1002.25C283.839 996.087 284.318 989.789 284.673 983.628C276.851 983.612 267.788 983.382 260.112 984.119C260.179 967.267 260.176 945.26 260.262 927.951C260.268 926.776 264.333 920.809 265.261 919.43L264.223 917.612C261.807 915.653 258.298 916.144 255.077 916.173L255.022 871.798C264.635 871.663 274.726 871.819 284.377 871.835C284.455 867.568 284.593 865.177 285.197 860.966C284.897 859.475 284.531 858.976 283.819 857.674C279.387 855.872 269.981 856.631 264.777 856.765C266.481 850.685 264.002 765.939 262.841 760.596C266.695 755.499 282.078 746.208 288.428 740.043C290.806 732.594 289.806 724.417 281.14 722.396C288.672 717.473 297.313 721.774 304.832 722.261C304.847 719.258 305.049 715.964 305.181 712.936Z"/><path fill="#FFF3B0" d="M127.452 1133.68C143.243 1132.6 160.41 1133.08 176.368 1133.15C202.632 1133.38 228.897 1133.38 255.16 1133.15C254.432 1157.77 256.159 1183.54 255.27 1208.31C255.013 1215.49 255.924 1224.98 255.392 1231.88C212.758 1232.24 170.122 1232.22 127.488 1231.82C128.236 1199.58 126.945 1166.22 127.452 1133.68Z"/><path fill="#FFF3B0" d="M262.841 760.596C266.695 755.499 282.078 746.208 288.428 740.043C285.346 793.974 289.235 851.076 287.288 905.339C287.003 913.279 286.954 923.003 287.321 930.94C286.303 1000.97 287.349 1072.39 287.261 1142.58L287.13 1203.25C287.134 1208.65 286.934 1227.76 287.904 1232.18C280.373 1231.28 263.526 1231.81 255.392 1231.88C255.924 1224.98 255.013 1215.49 255.27 1208.31C256.159 1183.54 254.432 1157.77 255.16 1133.15L284.295 1133.13L284.72 1116.8L256.881 1116.94L256.278 1116.25C256.432 1095.69 257.177 1071.53 256.392 1051.21L257.15 1050.07C258.59 1049.72 259.144 1049.31 260.459 1048.63C261.613 1046.22 261.54 1047.29 260.685 1044.85C258.553 1042.51 257.984 1042.51 254.809 1042.02C254.596 1028.84 254.695 1015.41 254.675 1002.2L283.949 1002.25C283.839 996.087 284.318 989.789 284.673 983.628C276.851 983.612 267.788 983.382 260.112 984.119C260.179 967.267 260.176 945.26 260.262 927.951C260.268 926.776 264.333 920.809 265.261 919.43L264.223 917.612C261.807 915.653 258.298 916.144 255.077 916.173L255.022 871.798C264.635 871.663 274.726 871.819 284.377 871.835C284.455 867.568 284.593 865.177 285.197 860.966C284.897 859.475 284.531 858.976 283.819 857.674C279.387 855.872 269.981 856.631 264.777 856.765C266.481 850.685 264.002 765.939 262.841 760.596Z"/><path fill="#FFF5E4" d="M287.321 930.94C288.298 927.445 288.294 910.194 288.872 904.615C289.811 910.646 290.422 914.524 290.591 920.686C291.064 999.476 290.824 1078.27 289.873 1157.06C289.789 1181.81 290.406 1206.66 290.54 1231.45L290.693 1243.46C290.607 1262.29 291.85 1501.29 290.035 1505.49L289.005 1506.21C286.963 1502.3 287.96 1385.25 287.988 1371.45C287.858 1332.18 286.648 1283.4 288.164 1244.69C281.727 1243.77 249.721 1244.28 240.772 1244.27C203.046 1243.95 165.316 1244.2 127.597 1244.99L127.488 1231.82C170.122 1232.22 212.758 1232.24 255.392 1231.88C263.526 1231.81 280.373 1231.28 287.904 1232.18C286.934 1227.76 287.134 1208.65 287.13 1203.25L287.261 1142.58C287.349 1072.39 286.303 1000.97 287.321 930.94Z"/><path fill="#FFF5E4" d="M281.14 722.396C288.672 717.473 297.313 721.774 304.832 722.261C304.751 724.707 304.682 733.458 304.066 735.221C304.12 732.318 304.709 725.673 303.561 723.621L303.717 723.55L301.705 726.382L301.148 725.793C297.984 722.499 292.745 720.098 288.321 722.238C292.103 757.037 291.188 788.467 290.852 823.464C290.558 854.201 292.31 890.546 290.591 920.686C290.422 914.524 289.811 910.646 288.872 904.615C288.294 910.194 288.298 927.445 287.321 930.94C286.954 923.003 287.003 913.279 287.288 905.339C289.235 851.076 285.346 793.974 288.428 740.043C290.806 732.594 289.806 724.417 281.14 722.396Z"/><path fill="#FFF3B0" d="M127.032 983.808C127.659 976.536 127.347 964.881 127.359 957.332L127.278 906.835C127.252 900.209 126.072 878.833 129.758 874.693C140.381 870.162 235.783 871.883 255.022 871.798L255.077 916.173C258.298 916.144 261.807 915.653 264.223 917.612L265.261 919.43C264.333 920.809 260.268 926.776 260.262 927.951C260.176 945.26 260.179 967.267 260.112 984.119C267.219 985.614 278.773 982.439 283.503 986.366L283.056 988.474C282.901 988.514 281.855 988.819 281.717 988.817C265.555 988.628 133.123 991.863 127.327 987.748L127.032 983.808Z"/><path fill="#FEFEFE" d="M153.104 983.848C153.029 965.231 152.715 946.368 153.421 927.775C153.533 924.833 150.736 923.34 148.18 920.747C148.073 918.155 147.837 919.174 149.699 916.785C155.329 914.348 192.991 916.121 201.549 916.171C203.012 916.179 204.02 918.191 204.669 919.45C203.682 922.58 203.287 921.47 201.099 923.922C200.919 924.123 199.592 925.827 199.59 925.995C199.445 944.243 199.488 965.766 199.558 983.763L214.268 983.781L214.377 947.226C214.437 940.934 214.547 934.045 214.406 927.748C214.34 924.793 209.938 922.863 209.227 918.717L210.531 917.184C217.634 914.337 245.526 915.937 255.077 916.173C258.298 916.144 261.807 915.653 264.223 917.612L265.261 919.43C264.333 920.809 260.268 926.776 260.262 927.951C260.176 945.26 260.179 967.267 260.112 984.119C267.219 985.614 278.773 982.439 283.503 986.366L283.056 988.474C282.901 988.514 281.855 988.819 281.717 988.817C265.555 988.628 133.123 991.863 127.327 987.748L127.032 983.808L153.104 983.848Z"/><path fill="#FFF3B0" d="M127.129 1116.9C127.242 1104.91 125.867 1007.92 128.304 1005.08C130.149 1002.93 136.822 1002.53 139.488 1002.34C152.832 1001.37 166.808 1002.22 180.213 1002.26L254.675 1002.2C254.695 1015.41 254.596 1028.84 254.809 1042.02C257.984 1042.51 258.553 1042.51 260.685 1044.85C261.54 1047.29 261.613 1046.22 260.459 1048.63C259.144 1049.31 258.59 1049.72 257.15 1050.07L256.392 1051.21C257.177 1071.53 256.432 1095.69 256.278 1116.25C222.612 1115.46 187.397 1116.1 153.59 1116.23L152.928 1117.04C144.409 1117.11 135.669 1116.95 127.129 1116.9Z"/><path fill="#FEFEFE" d="M152.91 1051.21C187.403 1051.54 221.899 1051.54 256.392 1051.21C257.177 1071.53 256.432 1095.69 256.278 1116.25C222.612 1115.46 187.397 1116.1 153.59 1116.23C152.177 1100.7 152.963 1068.4 152.91 1051.21Z"/><path fill="#FEFEFE" d="M254.809 1042.02C257.984 1042.51 258.553 1042.51 260.685 1044.85C261.54 1047.29 261.613 1046.22 260.459 1048.63C259.144 1049.31 258.59 1049.72 257.15 1050.07L256.392 1051.21C221.899 1051.54 187.403 1051.54 152.91 1051.21L150.844 1049.64C148.343 1048.32 148.434 1046.82 148.554 1044.46C154.681 1039.23 238.137 1043.5 254.809 1042.02Z"/><path fill="#D5D3D3" d="M150.844 1049.64L226.344 1049.64C230.904 1049.65 254.238 1049.4 257.15 1050.07L256.392 1051.21C221.899 1051.54 187.403 1051.54 152.91 1051.21L150.844 1049.64Z"/><path fill="#FFF3B0" d="M250.038 761.97C254.117 761.863 259.725 762.525 262.841 760.596C264.002 765.939 266.481 850.685 264.777 856.765C269.981 856.631 279.387 855.872 283.819 857.674C284.531 858.976 284.897 859.475 285.197 860.966C279.964 861.662 264.036 861.208 258.264 861.18C240.098 861.092 221.819 860.559 203.625 860.552C185.565 860.657 167.505 860.67 149.445 860.592C144.771 860.593 129.328 862.116 127.069 858.947L127.833 856.591C129.006 827.026 128.144 791.913 128.071 762.111C153.572 762.635 180.027 762.189 205.605 762.118C218.389 762.082 237.985 762.689 250.038 761.97Z"/><path fill="#FEFEFE" d="M192.523 801.87C198.628 801.34 216.923 801.07 223.166 801.764L223.815 803.24C230.029 807.792 234.214 812.016 234.862 820.152C235.786 831.757 236.794 846.213 231.046 856.366C239.186 856.588 247.328 856.714 255.471 856.745L264.777 856.765C269.981 856.631 279.387 855.872 283.819 857.674C284.531 858.976 284.897 859.475 285.197 860.966C279.964 861.662 264.036 861.208 258.264 861.18C240.098 861.092 221.819 860.559 203.625 860.552C185.565 860.657 167.505 860.67 149.445 860.592C144.771 860.593 129.328 862.116 127.069 858.947L127.833 856.591C145.576 856.611 166.007 857.089 183.526 856.169C182.583 854.673 181.7 853.141 180.879 851.575C177.859 845.722 177.27 821.902 180.001 815.09C182.769 808.185 185.56 806.553 192.016 803.42L192.523 801.87Z"/><path fill="#D5D3D3" d="M192.523 801.87C198.628 801.34 216.923 801.07 223.166 801.764L223.815 803.24C213.215 803.128 202.614 803.188 192.016 803.42L192.523 801.87Z"/><path fill="#FFD6C0" d="M250.038 761.97C254.117 761.863 259.725 762.525 262.841 760.596C264.002 765.939 266.481 850.685 264.777 856.765L255.471 856.745C255.849 829.782 256.681 790.632 255.584 764.336C254.058 762.214 253.208 762.657 250.038 761.97Z"/><path fill="#FEFEFE" d="M192.523 801.87C189.716 799.598 186.337 797.337 184.967 794.094C185.889 785.09 221.366 791.514 228.451 790.121C228.841 790.044 229.955 790.669 230.311 790.86L230.929 792.567C229.115 796.054 225.949 798.935 223.166 801.764C216.923 801.07 198.628 801.34 192.523 801.87Z"/><path fill="#FFF5E4" d="M153.59 1116.23C187.397 1116.1 222.612 1115.46 256.278 1116.25L256.881 1116.94L284.72 1116.8C284.307 1118.68 283.865 1119.99 283.258 1121.82C279.2 1122.92 255.746 1122.72 250.127 1122.74L168.762 1122.54C158.408 1122.45 137.8 1123.17 128.383 1122.26C126.696 1120.53 127.239 1119.89 127.129 1116.9C135.669 1116.95 144.409 1117.11 152.928 1117.04L153.59 1116.23Z"/><path fill="#D5D3D3" d="M153.59 1116.23C187.397 1116.1 222.612 1115.46 256.278 1116.25L256.881 1116.94C222.392 1117.36 187.45 1117.07 152.928 1117.04L153.59 1116.23Z"/><path fill="#805962" d="M182.619 1281.54C193.61 1281.4 222.435 1279.54 230.178 1284.2C233.455 1288.94 231.732 1291.93 227.213 1294.76C215.908 1294.89 185.874 1296.91 178.232 1291.57C176.541 1288.7 176.758 1289.91 177.061 1286.95C178.726 1284 179.904 1283.41 182.619 1281.54Z"/><path fill="#FFF5E4" d="M182.2 1286.14C190.642 1286.07 217.38 1284.88 226.457 1287.26C227.45 1287.52 227.253 1289.29 227.362 1290.7C219.803 1290.75 186.36 1292.28 181.837 1288.83L182.2 1286.14Z"/><path fill="#FFF5E4" d="M101.741 704.505C106.866 689.226 127.63 649.253 136.47 634.709C208.008 518.633 309.285 418.062 442.461 381.688C672.194 318.942 850.793 467.386 923.318 676.172C923.9 676.514 924.482 676.855 925.064 677.197C920.943 679.38 885.624 685.254 878.96 686.526L785.984 704.849C769.314 708.103 746.485 711.797 730.402 715.998C729.895 656.955 729.742 597.909 729.942 538.863L730.165 489.602C730.225 478.765 732.68 461.022 725.189 453.253C722.116 450.067 717.911 449.894 713.693 449.588C696.861 449.242 679.678 449.407 662.841 449.443L567.984 449.514L412.678 449.521C380.813 449.469 348.8 449.005 316.978 449.79C313.09 449.886 307.695 455.908 307.626 459.86C306.313 534.767 308.264 609.79 307.149 684.734C307.096 688.332 307.581 704.83 305.842 707.149C299.255 702.68 278.391 704.292 269.324 704.314L209.992 704.496L137.808 704.548C127.306 704.537 111.866 704.013 101.741 704.505Z"/><path fill="#FEFEFE" d="M730.108 720.303L877.027 691.808C887.829 689.717 934.549 679.841 943.249 680.133C945.102 684.022 944.451 833.597 944.469 849.948L944.794 1307.74C944.768 1382.68 943.541 1459.43 944.456 1534.09C879.484 1527.9 814.638 1518.39 749.713 1511.61C742.775 1510.89 735.75 1510 728.801 1509.46C730.504 1498.64 729.58 1461.58 729.507 1449.26C735.557 1449.6 740.193 1448.92 744.083 1453.2L746.049 1455.42C756.176 1455.21 770.901 1457.03 781.235 1458.17C828.386 1462.67 875.643 1466.94 922.712 1472.12C923.67 1472.23 925.31 1475.48 925.665 1476.35C926.002 1476.14 926.691 1475.14 926.98 1474.77C927.802 1462.02 927.025 1440.45 927.066 1426.81L927.637 1329.13L927.602 955.955C927.966 905.729 928.027 855.501 927.785 805.275C927.712 787.993 927.844 770.47 927.122 753.2C926.522 738.836 918.164 724.365 905.637 716.954C899.741 713.482 893.06 711.562 886.22 711.375C877.158 711.047 828.25 721.194 818.049 723.887C804.927 726.276 770.303 730.606 761.289 738.121C758.172 740.719 748.895 754.563 745.102 759.072C738.546 766.53 735.63 771.328 729.835 778.829L730.108 720.303Z"/><path fill="#88656C" d="M746.049 1455.42C756.176 1455.21 770.901 1457.03 781.235 1458.17C828.386 1462.67 875.643 1466.94 922.712 1472.12C923.67 1472.23 925.31 1475.48 925.665 1476.35C906.041 1476.22 865.944 1471.07 845.17 1468.94C815.525 1465.89 776.709 1463.54 748.056 1458.98C746.045 1457.42 746.652 1458.26 746.049 1455.42Z"/><path fill="#FFF5E4" d="M97.2469 717.927C97.8561 737.385 97.4153 757.87 97.4505 777.416L97.558 889.797L97.647 936.182C97.6545 940.293 97.8431 955.852 97.18 958.895L97.7898 959.369C97.8723 965.286 98.2362 975.421 97.4382 981.148C96.8733 1010.14 97.7174 1039.53 97.4641 1068.52C97.374 1078.85 98.2035 1099.74 96.9667 1108.87C94.8727 1110.34 92.4087 1110.31 89.7692 1110.61C93.2716 1110.94 94.0406 1110.96 97.55 1110.48C97.4962 1117.19 97.7596 1130.73 96.9837 1136.77L96.9527 1314.92C96.7782 1335.68 97.5197 1358.62 96.7555 1379.04C95.5731 1376.81 95.9338 1329.85 95.9195 1323.93C92.8243 1320.14 88.9611 1309.85 86.9974 1304.91C70.4409 1263.28 58.1379 1215.99 49.7689 1172.01C25.5105 1044.02 32.5098 912.073 70.1725 787.368C75.9309 768.435 86.5983 733.581 97.2469 717.927Z"/><path fill="#805962" d="M96.9837 1136.77C92.0207 1136.9 82.273 1137.77 78.4102 1135.18C75.9076 1128.07 75.8151 966.49 77.7036 961.237C81.5837 957.82 91.7954 958.829 97.18 958.895L97.7898 959.369C97.8723 965.286 98.2362 975.421 97.4382 981.148C96.8733 1010.14 97.7174 1039.53 97.4641 1068.52C97.374 1078.85 98.2035 1099.74 96.9667 1108.87C94.8727 1110.34 92.4087 1110.31 89.7692 1110.61C93.2716 1110.94 94.0406 1110.96 97.55 1110.48C97.4962 1117.19 97.7596 1130.73 96.9837 1136.77Z"/><path fill="#FEFEFE" d="M97.4382 981.148C96.8733 1010.14 97.7174 1039.53 97.4641 1068.52C97.374 1078.85 98.2035 1099.74 96.9667 1108.87C94.8727 1110.34 92.4087 1110.31 89.7692 1110.61L89.7205 1025.93C89.7069 1015.45 89.0391 992.073 90.1617 982.382C93.0186 980.674 93.6199 981.257 97.4382 981.148Z"/><path fill="#FFF3B0" d="M116.42 1372.12L287.988 1371.45C287.96 1385.25 286.963 1502.3 289.005 1506.21L290.116 1507.44C289.624 1510.39 289.808 1511.88 286.481 1512.96C269.204 1512.82 122.239 1514.54 116.497 1512.2C117.337 1466.58 116.463 1417.96 116.42 1372.12Z"/><path fill="#805962" d="M181.661 1417.49C192.733 1417.36 204.388 1417.11 215.477 1417.19C221.686 1417.24 230.42 1417.24 231.358 1424.76C230.472 1427.89 229.496 1428.55 227.219 1430.75C216.485 1430.85 205.714 1431.03 194.982 1431C188.664 1430.98 178.762 1431.68 177.619 1423.93C178.613 1420.45 179.168 1420.03 181.661 1417.49Z"/><path fill="#FEFEFE" d="M181.86 1421.91C188.551 1421.19 218.229 1420.88 225.423 1422.55C226.552 1422.81 226.63 1424.7 226.998 1426.22C219.865 1426.68 191.018 1427.54 182.897 1425.47C181.961 1425.24 182.035 1423.28 181.86 1421.91Z"/><path fill="#FEFEFE" d="M101.32 712.923C104.207 710.699 104.872 709.438 108.437 709.365C121.005 709.109 133.905 709.219 146.457 709.245L219.978 709.353L272.187 709.263C280.82 709.227 299.423 707.202 305.181 712.936C305.049 715.964 304.847 719.258 304.832 722.261C297.313 721.774 288.672 717.473 281.14 722.396C289.806 724.417 290.806 732.594 288.428 740.043C282.078 746.208 266.695 755.499 262.841 760.596C259.725 762.525 254.117 761.863 250.038 761.97C237.985 762.689 218.389 762.082 205.605 762.118C180.027 762.189 153.572 762.635 128.071 762.111L127.765 760.032C127.953 754.131 129.236 728.791 126.394 725.345C119.762 727.791 116.393 729.241 116.362 737.235C116.287 756.079 116.308 774.924 116.314 793.769L116.347 912.416L116.42 1372.12C116.463 1417.96 117.337 1466.58 116.497 1512.2L113.987 1511.78C106.806 1517.5 102.017 1508.82 102.014 1501.99C102.011 1491.23 101.914 1480.45 101.866 1469.69L101.578 1400.82C101.248 1312.91 102.816 1222.08 101.094 1134.57C97.9972 1131.4 102.581 1120.01 97.55 1110.48C94.0406 1110.96 93.2716 1110.94 89.7692 1110.61C92.4087 1110.31 94.8727 1110.34 96.9667 1108.87C98.2035 1099.74 97.374 1078.85 97.4641 1068.52C97.7174 1039.53 96.8733 1010.14 97.4382 981.148C98.2362 975.421 97.8723 965.286 97.7898 959.369L98.9306 960.021C103.439 953.327 96.4571 720.445 101.32 712.923Z"/><path fill="#FFF3B0" d="M126.394 725.345C168.584 724.834 239.235 724.894 284.218 725.659C284.962 726.307 285.602 726.865 286.138 727.333C287.775 730.56 287.138 735.107 286.959 738.846C278.704 746.233 268.311 752.941 259.491 760.28L180.527 760.376C163.62 760.443 144.488 760.887 127.765 760.032C127.953 754.131 129.236 728.791 126.394 725.345Z"/><path fill="#B5867C" d="M281.14 722.396C289.806 724.417 290.806 732.594 288.428 740.043C282.078 746.208 266.695 755.499 262.841 760.596C259.725 762.525 254.117 761.863 250.038 761.97C237.985 762.689 218.389 762.082 205.605 762.118C180.027 762.189 153.572 762.635 128.071 762.111L127.765 760.032C144.488 760.887 163.62 760.443 180.527 760.376L259.491 760.28C268.311 752.941 278.704 746.233 286.959 738.846C287.138 735.107 287.775 730.56 286.138 727.333C285.602 726.865 284.962 726.307 284.218 725.659C239.235 724.894 168.584 724.834 126.394 725.345C119.762 727.791 116.393 729.241 116.362 737.235C116.287 756.079 116.308 774.924 116.314 793.769L116.347 912.416L116.42 1372.12C116.463 1417.96 117.337 1466.58 116.497 1512.2L113.987 1511.78L114.352 921.897C114.718 862.463 113.806 803.057 114.175 743.619C114.262 729.666 115.112 723.881 130.845 722.908C143.116 722.149 155.6 722.566 167.907 722.611L240.557 722.743C252.595 722.761 269.63 723.324 281.14 722.396Z"/><path fill="#8E6E77" d="M97.7898 959.369L98.9306 960.021C103.439 953.327 96.4571 720.445 101.32 712.923C102.621 717.645 101.965 760.566 101.938 768.732C102.11 814.582 101.972 860.433 101.526 906.281L101.387 1056.93C101.379 1080.49 102.217 1111.58 101.094 1134.57C97.9972 1131.4 102.581 1120.01 97.55 1110.48C94.0406 1110.96 93.2716 1110.94 89.7692 1110.61C92.4087 1110.31 94.8727 1110.34 96.9667 1108.87C98.2035 1099.74 97.374 1078.85 97.4641 1068.52C97.7174 1039.53 96.8733 1010.14 97.4382 981.148C98.2362 975.421 97.8723 965.286 97.7898 959.369Z"/><path fill="#C8F0DC" d="M320.302 1517.92L715.543 1517.93C715.628 1526.24 715.815 1534.57 715.872 1542.88C715.939 1552.72 716.3 1559.28 707.108 1564.65L710.334 1565.92L710.639 1567.42L708.206 1568.84L710.905 1569.44C712.499 1568.53 714.628 1566.36 716.043 1565.04C724.456 1565.06 788.01 1564.32 791.885 1565.89L793.557 1567.63L793.044 1569.18C789.244 1570.98 721.017 1570.02 710.813 1569.97C657.533 1570.35 604.253 1570.46 550.972 1570.28L356.114 1569.95C325.801 1569.67 295.486 1569.62 265.172 1569.82C258.054 1569.85 211.705 1571.26 208.719 1567.58C210.54 1566.08 214.065 1564.73 216.442 1564.72C250.617 1564.58 285.344 1565.97 319.467 1565L320.987 1566.42C322.841 1566.06 322.372 1566.5 323.5 1565.48C327.839 1566 329.63 1566.43 333.799 1565.27C313.109 1564.24 321.827 1540.77 320.246 1526.59C319.982 1524.22 320.288 1520.38 320.302 1517.92Z"/><path fill="#8E6E77" d="M319.467 1565L320.987 1566.42C322.841 1566.06 322.372 1566.5 323.5 1565.48C327.839 1566 329.63 1566.43 333.799 1565.27C340.336 1563.43 409.801 1564.96 421.809 1564.96L707.108 1564.65L710.334 1565.92L710.639 1567.42L708.206 1568.84L710.905 1569.44C712.499 1568.53 714.628 1566.36 716.043 1565.04C724.456 1565.06 788.01 1564.32 791.885 1565.89L793.557 1567.63L793.044 1569.18C789.244 1570.98 721.017 1570.02 710.813 1569.97C657.533 1570.35 604.253 1570.46 550.972 1570.28L356.114 1569.95C325.801 1569.67 295.486 1569.62 265.172 1569.82C258.054 1569.85 211.705 1571.26 208.719 1567.58C210.54 1566.08 214.065 1564.73 216.442 1564.72C250.617 1564.58 285.344 1565.97 319.467 1565Z"/><path fill="#C8F0DC" d="M928.75 677.503C937.36 674.136 950.564 672.914 959.071 676.76C963.158 678.609 967.198 682.044 968.736 686.367C973.651 700.181 971.208 761.031 971.229 778.983C971.431 839.228 971.281 899.475 970.777 959.719C976.272 959.33 984.554 957.847 988.735 961.146C988.496 965.115 988.69 976.683 987.711 979.365C985.494 971.445 990.899 967.823 985.881 962.186C980.764 959.455 974.495 961.176 968.273 960.82C968.324 966.413 968.639 975.394 967.891 980.596C967.035 977.117 967.043 975.615 966.901 972.063C965.868 984.872 966.573 1008.39 966.585 1021.7L966.788 1125.72C966.288 1259.35 968.138 1394.51 966.305 1528C959.475 1530.79 955.773 1532 948.636 1533.89C947.719 1469.48 948.663 1403.19 948.644 1338.65L948.621 885.507L948.601 740.975C948.602 730.3 949.232 686.947 947.615 679.461L947.048 680.969C946.783 679.236 946.541 678.16 946.108 676.46C940.217 675.318 934.282 678.808 928.75 677.503Z"/><path fill="#805962" d="M928.75 677.503C937.36 674.136 950.564 672.914 959.071 676.76C963.158 678.609 967.198 682.044 968.736 686.367C973.651 700.181 971.208 761.031 971.229 778.983C971.431 839.228 971.281 899.475 970.777 959.719C976.272 959.33 984.554 957.847 988.735 961.146C988.496 965.115 988.69 976.683 987.711 979.365C985.494 971.445 990.899 967.823 985.881 962.186C980.764 959.455 974.495 961.176 968.273 960.82C968.324 966.413 968.639 975.394 967.891 980.596C967.035 977.117 967.043 975.615 966.901 972.063C966.47 967.844 966.862 953.976 966.879 949.298L967.029 902.662L966.929 772.915C966.954 748.384 967.18 723.807 966.796 699.286C966.603 686.942 960.59 678.484 947.615 679.461L947.048 680.969C946.783 679.236 946.541 678.16 946.108 676.46C940.217 675.318 934.282 678.808 928.75 677.503Z"/><path fill="#FFF5E4" d="M970.816 1192.43C975.184 1239.06 977.544 1286.34 981.707 1333.2C986.556 1387.77 990.337 1444.56 986.804 1499.3C986.147 1509.47 980.348 1525.84 970.949 1531.13C969.281 1487 970.558 1434.28 970.639 1389.59L970.816 1192.43Z"/><path fill="#FFF3B0" d="M290.116 1507.44C297.999 1508.54 296.416 1503.96 305.236 1506.65C299.661 1514.94 295.56 1513.4 286.481 1512.96C289.808 1511.88 289.624 1510.39 290.116 1507.44Z"/><path fill="#E8F4F0" d="M519.592 454.424L645.311 454.287C656.991 454.289 716.504 453.205 721.598 456.243C727.068 462.082 725.365 480.992 725.369 489.436L725.351 540.538L725.251 654.759C725.249 662.018 726.216 713.829 724.152 716.867C656.558 717.791 587.278 717.044 519.563 717.098L519.592 454.424Z"/><path fill="#805962" d="M547.475 619.979C548.436 620.123 549.391 620.304 550.338 620.52C552.848 621.11 556.067 623.07 556.219 625.863C557.169 643.269 557.425 661.699 556.078 679.07C555.917 681.143 552.086 683.064 550.453 683.99C548.261 683.333 545.823 682.731 544.165 681.058C540.112 676.967 541.225 636.357 541.651 628.672C541.887 624.42 544.502 622.661 547.475 619.979Z"/><path fill="#FFD6C0" d="M547.137 624.014C548.812 624.332 552.428 625.251 552.376 627.362C552.152 636.427 554.375 674.038 551.164 680.059C549.141 679.756 549.033 679.574 547.316 678.356C544.64 673.352 545.393 629.941 547.137 624.014Z"/><path fill="#E8F4F0" d="M317.451 454.424C382.002 453.301 450.037 454.201 514.793 454.245C515.262 516.49 515.266 578.737 514.803 640.982C514.75 650.339 516.398 713.81 513.783 717.109L510.444 717.234C444.238 716.985 378.031 717.225 311.828 717.955L311.951 534.171L311.818 485.958C311.799 477.735 311.52 468.046 312.477 459.883C312.789 457.229 315.278 455.774 317.451 454.424Z"/><path fill="#805962" d="M485.46 620.008C496.767 622.684 494.403 629.659 494.508 639.539C494.647 652.577 494.857 665.908 493.991 678.886C493.814 681.552 490.343 683.594 488.303 685C478.954 683.261 478.203 675.257 479.349 667.059C481.23 653.613 474.044 627.925 485.46 620.008Z"/><path fill="#FFD6C0" d="M485.19 624.249C488.23 625.26 487.269 624.557 489.22 626.728C491.284 632.859 490.45 673.123 489.248 680.532C487.255 680.241 486.701 679.893 484.838 679.063C482.377 675.585 482.542 628.201 485.19 624.249Z"/><path fill="#FEFEFE" d="M969.89 980.815C972.357 980.926 974.083 980.677 975.951 982.147C976.823 987.106 976.488 1015.39 976.503 1022.25C976.71 1051.62 976.665 1081 976.367 1110.37C973.648 1110.33 972.655 1110.53 970.209 1109.29C969.228 1102.03 969.894 1077.66 969.896 1068.77L969.89 980.815Z"/><path fill="#FFF3B0" d="M373.846 181.662C397.526 179.42 418.577 196.704 420.982 220.362C423.387 244.02 406.243 265.184 382.596 267.749C358.72 270.34 337.3 252.998 334.872 229.11C332.444 205.222 349.937 183.926 373.846 181.662Z"/><path fill="#FFD6C0" d="M98.3859 339.842C114.534 337.055 139.333 340.285 156.395 339.337C163.176 338.961 208.588 338.644 211.727 341.244C207.937 344.343 192.819 343.195 187.207 343.205C172.251 343.112 157.295 343.233 142.343 343.568L142.349 374.43C178.527 374.877 214.709 374.94 250.889 374.616L253.798 375.063L254.631 376.606L253.225 378.05C248.35 379.103 237.499 378.727 232.13 378.803C203.271 378.589 172.843 379.705 144.167 379.089C129.855 378.782 90.6558 380.615 79.3249 377.316L80.2071 375.652C86.6784 373.549 126.988 374.543 137.724 374.292L137.613 343.322C126.446 343.431 111.525 344.015 100.465 342.604C99.6601 342.502 98.9759 340.828 98.3859 339.842Z"/><path fill="#8E6E77" d="M812.12 1565.13C845.116 1564.24 882.619 1565.2 915.975 1565.2L971.035 1565.15C976.052 1565.14 992.24 1563.98 995.542 1565.95C996.6 1568.17 996.434 1567.19 995.64 1569.99L873.012 1570.16C854.231 1570.18 834.787 1570.28 815.961 1570.19C813.179 1570.17 813.105 1569.63 811.712 1568L812.12 1565.13Z"/><path fill="#FFD6C0" d="M786.525 343.282C788.542 343.198 790.559 343.133 792.577 343.086C802.672 342.872 902.564 342.338 905.087 344.754L904.346 345.965C900.856 348.33 882.166 347.372 876.495 347.359L876.725 381.298C883.221 381.355 901.327 381.086 906.426 382.902L906.915 384.2C904.626 386.079 904.222 385.455 900.667 385.558L858.445 385.669C854.357 385.687 841.474 386.011 837.987 385.35L837.288 383.674L838.351 382.26C845.091 380.897 864.9 381.327 872.806 381.338L872.844 347.066C861.947 346.647 790.809 348.625 786.953 346.377L786.525 343.282Z"/><path fill="#8E6E77" d="M53.075 1565.04C73.1205 1563.57 105.332 1565.57 126.365 1564.89C136.182 1564.57 176.252 1564.28 184.71 1565.28C186.507 1567.28 185.977 1566.42 186.178 1569.65C183.623 1570.11 152.221 1569.74 146.841 1569.6C117.31 1568.83 84.5955 1570.73 55.4422 1569.43C53.0883 1567.79 53.8316 1568.73 53.075 1565.04Z"/></svg>